JetBrainsMoro-SemiBold.ufo
<glyph name="exclam" format="2">
  <advance width="600.0"/>
  <unicode hex="0021"/>
  <outline>
    <contour>
      <point x="260.8" y="224.0" type="line"/>
      <point x="339.2" y="224.0" type="line"/>
      <point x="360.8" y="601.0" type="line"/>
      <point x="360.8" y="730.0" type="line"/>
      <point x="239.2" y="730.0" type="line"/>
      <point x="239.2" y="601.0" type="line"/>
    </contour>
    <contour>
      <point x="285.0" y="-5.0" type="curve" smooth="yes"/>
      <point x="314.7" y="-5.0" type="line" smooth="yes"/>
      <point x="353.0" y="-5.0"/>
      <point x="379.5" y="21.3"/>
      <point x="379.5" y="58.7" type="curve" smooth="yes"/>
      <point x="379.5" y="95.1"/>
      <point x="355.1" y="121.0"/>
      <point x="315.0" y="121.0" type="curve" smooth="yes"/>
      <point x="285.0" y="121.0" type="line" smooth="yes"/>
      <point x="247.0" y="121.0"/>
      <point x="220.5" y="95.1"/>
      <point x="220.5" y="58.0" type="curve" smooth="yes"/>
      <point x="220.5" y="20.9"/>
      <point x="247.0" y="-5.0"/>
    </contour>
  </outline>
</glyph>
<glyph name="quotedbl" format="2">
  <advance width="600.0"/>
  <unicode hex="0022"/>
  <outline>
    <contour>
      <point x="362.3" y="430.0" type="line"/>
      <point x="450.4" y="430.0" type="line"/>
      <point x="462.0" y="619.0" type="line"/>
      <point x="462.0" y="730.0" type="line"/>
      <point x="349.7" y="730.0" type="line"/>
      <point x="349.7" y="619.0" type="line"/>
    </contour>
    <contour>
      <point x="150.6" y="430.0" type="line"/>
      <point x="238.7" y="430.0" type="line"/>
      <point x="250.3" y="619.0" type="line"/>
      <point x="250.3" y="730.0" type="line"/>
      <point x="138.0" y="730.0" type="line"/>
      <point x="138.0" y="619.0" type="line"/>
    </contour>
  </outline>
</glyph>
<glyph name="numbersign" format="2">
  <advance width="600.0"/>
  <unicode hex="0023"/>
  <outline>
    <contour>
      <point x="80.0" y="0.0" type="line"/>
      <point x="159.0" y="0.0" type="line"/>
      <point x="195.3" y="199.5" type="line"/>
      <point x="346.3" y="199.5" type="line"/>
      <point x="310.0" y="0.0" type="line"/>
      <point x="389.0" y="0.0" type="line"/>
      <point x="425.3" y="199.5" type="line"/>
      <point x="530.0" y="199.5" type="line"/>
      <point x="530.0" y="275.0" type="line"/>
      <point x="438.1" y="275.0" type="line"/>
      <point x="470.6" y="455.0" type="line"/>
      <point x="565.0" y="455.0" type="line"/>
      <point x="565.0" y="530.5" type="line"/>
      <point x="483.4" y="530.5" type="line"/>
      <point x="520.0" y="730.0" type="line"/>
      <point x="441.0" y="730.0" type="line"/>
      <point x="404.4" y="530.5" type="line"/>
      <point x="253.4" y="530.5" type="line"/>
      <point x="290.0" y="730.0" type="line"/>
      <point x="211.0" y="730.0" type="line"/>
      <point x="174.4" y="530.5" type="line"/>
      <point x="70.0" y="530.5" type="line"/>
      <point x="70.0" y="455.0" type="line"/>
      <point x="161.6" y="455.0" type="line"/>
      <point x="129.1" y="275.0" type="line"/>
      <point x="35.0" y="275.0" type="line"/>
      <point x="35.0" y="199.5" type="line"/>
      <point x="116.3" y="199.5" type="line"/>
    </contour>
    <contour>
      <point x="208.1" y="275.0" type="line"/>
      <point x="240.6" y="455.0" type="line"/>
      <point x="391.6" y="455.0" type="line"/>
      <point x="359.1" y="275.0" type="line"/>
    </contour>
  </outline>
</glyph>
<glyph name="dollar" format="2">
  <advance width="600.0"/>
  <unicode hex="0024"/>
  <outline>
    <contour>
      <point x="271.7" y="-140.0" type="line"/>
      <point x="333.2" y="-140.0" type="line"/>
      <point x="333.2" y="-9.0" type="line"/>
      <point x="456.2" y="2.4"/>
      <point x="535.5" y="81.5"/>
      <point x="535.5" y="194.8" type="curve" smooth="yes"/>
      <point x="535.5" y="299.5"/>
      <point x="475.9" y="376.8"/>
      <point x="369.3" y="407.5" type="curve" smooth="yes"/>
      <point x="333.2" y="418.4" type="line"/>
      <point x="333.2" y="642.7" type="line"/>
      <point x="387.2" y="633.0"/>
      <point x="417.6" y="596.5"/>
      <point x="417.6" y="542.0" type="curve"/>
      <point x="525.6" y="542.0" type="line"/>
      <point x="524.2" y="653.1"/>
      <point x="450.2" y="728.0"/>
      <point x="333.2" y="739.0" type="curve"/>
      <point x="333.2" y="870.0" type="line"/>
      <point x="271.7" y="870.0" type="line"/>
      <point x="271.7" y="738.0" type="line"/>
      <point x="154.9" y="727.0"/>
      <point x="81.5" y="651.2"/>
      <point x="81.5" y="540.9" type="curve" smooth="yes"/>
      <point x="81.5" y="437.8"/>
      <point x="142.3" y="360.4"/>
      <point x="249.5" y="330.0" type="curve" smooth="yes"/>
      <point x="271.7" y="323.5" type="line"/>
      <point x="271.7" y="87.6" type="line"/>
      <point x="208.7" y="96.9"/>
      <point x="172.5" y="135.4"/>
      <point x="172.5" y="193.0" type="curve"/>
      <point x="64.5" y="193.0" type="line"/>
      <point x="65.9" y="77.1"/>
      <point x="143.6" y="1.6"/>
      <point x="271.7" y="-8.7" type="curve"/>
    </contour>
    <contour>
      <point x="333.2" y="87.0" type="curve"/>
      <point x="333.2" y="326.1" type="line"/>
      <point x="323.9" y="304.7" type="line" smooth="yes"/>
      <point x="389.4" y="293.6"/>
      <point x="427.5" y="249.0"/>
      <point x="427.5" y="191.3" type="curve" smooth="yes"/>
      <point x="427.5" y="133.6"/>
      <point x="392.8" y="96.1"/>
    </contour>
    <contour>
      <point x="271.7" y="388.4" type="line"/>
      <point x="309.6" y="429.5" type="line"/>
      <point x="233.2" y="436.7"/>
      <point x="189.5" y="483.1"/>
      <point x="189.5" y="548.3" type="curve" smooth="yes"/>
      <point x="189.5" y="599.6"/>
      <point x="219.3" y="633.7"/>
      <point x="271.7" y="642.7" type="curve"/>
    </contour>
  </outline>
</glyph>
<glyph name="percent" format="2">
  <advance width="600.0"/>
  <unicode hex="0025"/>
  <outline>
    <contour>
      <point x="5.300000000000001" y="0.0" type="line"/>
      <point x="87.7" y="0.0" type="line"/>
      <point x="594.7" y="730.0" type="line"/>
      <point x="512.3" y="730.0" type="line"/>
    </contour>
    <contour>
      <point x="443.5" y="-5.0" type="curve" smooth="yes"/>
      <point x="528.4" y="-5.0"/>
      <point x="585.8" y="46.9"/>
      <point x="585.8" y="130.0" type="curve" smooth="yes"/>
      <point x="585.8" y="195.0" type="line" smooth="yes"/>
      <point x="585.8" y="278.1"/>
      <point x="528.4" y="330.0"/>
      <point x="443.5" y="330.0" type="curve" smooth="yes"/>
      <point x="358.6" y="330.0"/>
      <point x="301.2" y="278.1"/>
      <point x="301.2" y="195.0" type="curve" smooth="yes"/>
      <point x="301.2" y="130.0" type="line" smooth="yes"/>
      <point x="301.2" y="46.9"/>
      <point x="358.6" y="-5.0"/>
    </contour>
    <contour>
      <point x="443.5" y="68.5" type="curve" smooth="yes"/>
      <point x="402.8" y="68.5"/>
      <point x="382.7" y="87.7"/>
      <point x="382.7" y="130.0" type="curve" smooth="yes"/>
      <point x="382.7" y="195.0" type="line" smooth="yes"/>
      <point x="382.7" y="237.3"/>
      <point x="402.8" y="257.5"/>
      <point x="443.5" y="257.5" type="curve" smooth="yes"/>
      <point x="483.9" y="257.5"/>
      <point x="504.3" y="237.3"/>
      <point x="504.3" y="195.0" type="curve" smooth="yes"/>
      <point x="504.3" y="130.0" type="line" smooth="yes"/>
      <point x="504.3" y="87.7"/>
      <point x="484.2" y="68.5"/>
    </contour>
    <contour>
      <point x="156.5" y="400.0" type="curve" smooth="yes"/>
      <point x="240.5" y="400.0"/>
      <point x="298.8" y="451.0"/>
      <point x="298.8" y="535.0" type="curve" smooth="yes"/>
      <point x="298.8" y="600.0" type="line" smooth="yes"/>
      <point x="298.8" y="684.0"/>
      <point x="240.5" y="735.0"/>
      <point x="156.5" y="735.0" type="curve" smooth="yes"/>
      <point x="72.5" y="735.0"/>
      <point x="14.2" y="684.0"/>
      <point x="14.2" y="600.0" type="curve" smooth="yes"/>
      <point x="14.2" y="535.0" type="line" smooth="yes"/>
      <point x="14.2" y="451.0"/>
      <point x="72.5" y="400.0"/>
    </contour>
    <contour>
      <point x="156.5" y="472.5" type="curve" smooth="yes"/>
      <point x="116.5" y="472.5"/>
      <point x="95.7" y="492.7"/>
      <point x="95.7" y="535.0" type="curve" smooth="yes"/>
      <point x="95.7" y="600.0" type="line" smooth="yes"/>
      <point x="95.7" y="642.3"/>
      <point x="116.5" y="662.5"/>
      <point x="156.5" y="662.5" type="curve" smooth="yes"/>
      <point x="196.5" y="662.5"/>
      <point x="217.3" y="642.3"/>
      <point x="217.3" y="600.0" type="curve" smooth="yes"/>
      <point x="217.3" y="535.0" type="line" smooth="yes"/>
      <point x="217.3" y="492.7"/>
      <point x="196.5" y="472.5"/>
    </contour>
  </outline>
</glyph>
<glyph name="ampersand" format="2">
  <advance width="600.0"/>
  <unicode hex="0026"/>
  <outline>
    <contour>
      <point x="231.5" y="-10.0" type="curve" smooth="yes"/>
      <point x="296.8" y="-10.0"/>
      <point x="356.3" y="20.1"/>
      <point x="403.1" y="76.2" type="curve"/>
      <point x="458.0" y="0.0" type="line"/>
      <point x="570.2" y="0.0" type="line"/>
      <point x="455.9" y="159.2" type="line"/>
      <point x="565.6" y="360.0" type="line"/>
      <point x="457.8" y="360.0" type="line"/>
      <point x="395.2" y="244.4" type="line"/>
      <point x="240.3" y="459.8" type="line" smooth="yes"/>
      <point x="213.5" y="496.8"/>
      <point x="197.0" y="537.6"/>
      <point x="197.0" y="570.3" type="curve" smooth="yes"/>
      <point x="197.0" y="618.6"/>
      <point x="229.9" y="649.4"/>
      <point x="281.0" y="649.4" type="curve" smooth="yes"/>
      <point x="336.3" y="649.4"/>
      <point x="371.3" y="616.5"/>
      <point x="371.3" y="563.3" type="curve"/>
      <point x="474.8" y="563.3" type="line"/>
      <point x="474.8" y="671.0"/>
      <point x="399.1" y="740.0"/>
      <point x="281.0" y="740.0" type="curve" smooth="yes"/>
      <point x="169.4" y="740.0"/>
      <point x="95.0" y="674.3"/>
      <point x="95.0" y="576.2" type="curve" smooth="yes"/>
      <point x="95.0" y="525.2"/>
      <point x="115.1" y="475.6"/>
      <point x="156.4" y="418.7" type="curve" smooth="yes"/>
      <point x="166.4" y="427.6" type="line"/>
      <point x="91.2" y="410.9"/>
      <point x="48.7" y="355.1"/>
      <point x="48.7" y="275.5" type="curve" smooth="yes"/>
      <point x="48.7" y="167.0" type="line" smooth="yes"/>
      <point x="48.7" y="56.2"/>
      <point x="116.8" y="-10.0"/>
    </contour>
    <contour>
      <point x="239.2" y="82.0" type="curve" smooth="yes"/>
      <point x="185.8" y="82.0"/>
      <point x="153.7" y="112.7"/>
      <point x="153.7" y="167.0" type="curve" smooth="yes"/>
      <point x="153.7" y="275.5" type="line" smooth="yes"/>
      <point x="153.7" y="316.2"/>
      <point x="171.1" y="342.0"/>
      <point x="204.9" y="351.1" type="curve"/>
      <point x="346.8" y="153.8" type="line"/>
      <point x="320.5" y="108.9"/>
      <point x="280.6" y="82.0"/>
    </contour>
  </outline>
</glyph>
<glyph name="quotesingle" format="2">
  <advance width="600.0"/>
  <unicode hex="0027"/>
  <outline>
    <contour>
      <point x="252.6" y="430.0" type="line"/>
      <point x="340.7" y="430.0" type="line"/>
      <point x="352.3" y="577.0" type="line"/>
      <point x="352.3" y="730.0" type="line"/>
      <point x="240.0" y="730.0" type="line"/>
      <point x="240.0" y="577.0" type="line"/>
    </contour>
  </outline>
</glyph>
<glyph name="parenleft" format="2">
  <advance width="600.0"/>
  <unicode hex="0028"/>
  <outline>
    <contour>
      <point x="485.0" y="-120.0" type="curve"/>
      <point x="485.0" y="-12.100000000000001" type="line"/>
      <point x="361.1" y="17.0"/>
      <point x="284.0" y="125.2"/>
      <point x="284.0" y="269.7" type="curve" smooth="yes"/>
      <point x="284.0" y="450.0" type="line" smooth="yes"/>
      <point x="284.0" y="596.8"/>
      <point x="361.5" y="706.1"/>
      <point x="485.0" y="735.5" type="curve"/>
      <point x="485.0" y="840.0" type="line"/>
      <point x="293.4" y="791.0"/>
      <point x="176.0" y="643.5"/>
      <point x="176.0" y="450.0" type="curve" smooth="yes"/>
      <point x="176.0" y="269.7" type="line" smooth="yes"/>
      <point x="176.0" y="72.5"/>
      <point x="289.1" y="-70.0"/>
    </contour>
  </outline>
</glyph>
<glyph name="parenright" format="2">
  <advance width="600.0"/>
  <unicode hex="0029"/>
  <outline>
    <contour>
      <point x="115.0" y="-120.0" type="line"/>
      <point x="310.9" y="-70.0"/>
      <point x="424.0" y="72.5"/>
      <point x="424.0" y="269.7" type="curve" smooth="yes"/>
      <point x="424.0" y="450.0" type="line" smooth="yes"/>
      <point x="424.0" y="643.5"/>
      <point x="306.6" y="791.0"/>
      <point x="115.0" y="840.0" type="curve"/>
      <point x="115.0" y="735.5" type="line"/>
      <point x="238.5" y="706.1"/>
      <point x="316.0" y="596.8"/>
      <point x="316.0" y="450.0" type="curve" smooth="yes"/>
      <point x="316.0" y="269.7" type="line" smooth="yes"/>
      <point x="316.0" y="125.2"/>
      <point x="238.9" y="17.0"/>
      <point x="115.0" y="-12.100000000000001" type="curve"/>
    </contour>
  </outline>
</glyph>
<glyph name="asterisk" format="2">
  <advance width="600.0"/>
  <unicode hex="002A"/>
  <outline>
    <contour>
      <point x="185.8" y="90.4" type="line"/>
      <point x="233.2" y="158.5" type="line" smooth="yes"/>
      <point x="261.3" y="197.8"/>
      <point x="283.9" y="261.9"/>
      <point x="296.3" y="299.7" type="curve"/>
      <point x="303.0" y="299.7" type="line"/>
      <point x="314.7" y="261.9"/>
      <point x="338.0" y="197.8"/>
      <point x="365.4" y="158.5" type="curve" smooth="yes"/>
      <point x="413.5" y="90.4" type="line"/>
      <point x="495.7" y="147.6" type="line"/>
      <point x="447.9" y="216.0" type="line" smooth="yes"/>
      <point x="420.5" y="255.0"/>
      <point x="369.6" y="297.7"/>
      <point x="337.8" y="322.0" type="curve"/>
      <point x="341.2" y="328.8" type="line"/>
      <point x="381.3" y="330.9"/>
      <point x="445.2" y="336.7"/>
      <point x="489.5" y="352.9" type="curve" smooth="yes"/>
      <point x="567.4" y="381.0" type="line"/>
      <point x="532.9" y="475.7" type="line"/>
      <point x="455.0" y="447.6" type="line" smooth="yes"/>
      <point x="410.0" y="431.4"/>
      <point x="355.8" y="393.3"/>
      <point x="323.9" y="368.5" type="curve"/>
      <point x="319.2" y="372.2" type="line"/>
      <point x="331.4" y="410.4"/>
      <point x="350.3" y="477.4"/>
      <point x="350.3" y="527.0" type="curve" smooth="yes"/>
      <point x="350.3" y="610.0" type="line"/>
      <point x="249.7" y="610.0" type="line"/>
      <point x="249.7" y="527.0" type="line" smooth="yes"/>
      <point x="249.7" y="477.4"/>
      <point x="268.6" y="410.4"/>
      <point x="280.1" y="372.2" type="curve"/>
      <point x="275.1" y="368.2" type="line"/>
      <point x="243.2" y="393.0"/>
      <point x="189.0" y="431.4"/>
      <point x="144.0" y="447.6" type="curve" smooth="yes"/>
      <point x="66.8" y="475.7" type="line"/>
      <point x="32.6" y="381.0" type="line"/>
      <point x="109.5" y="352.9" type="line" smooth="yes"/>
      <point x="153.8" y="336.7"/>
      <point x="218.7" y="330.9"/>
      <point x="258.8" y="328.8" type="curve"/>
      <point x="261.5" y="322.7" type="line"/>
      <point x="230.4" y="298.4"/>
      <point x="178.8" y="255.7"/>
      <point x="150.7" y="215.7" type="curve" smooth="yes"/>
      <point x="103.6" y="147.6" type="line"/>
    </contour>
  </outline>
</glyph>
<glyph name="plus" format="2">
  <advance width="600.0"/>
  <unicode hex="002B"/>
  <outline>
    <contour>
      <point x="246.7" y="93.5" type="line"/>
      <point x="353.3" y="93.5" type="line"/>
      <point x="353.3" y="281.0" type="line"/>
      <point x="538.0" y="281.0" type="line"/>
      <point x="538.0" y="379.0" type="line"/>
      <point x="353.3" y="379.0" type="line"/>
      <point x="353.3" y="566.5" type="line"/>
      <point x="246.7" y="566.5" type="line"/>
      <point x="246.7" y="379.0" type="line"/>
      <point x="62.0" y="379.0" type="line"/>
      <point x="62.0" y="281.0" type="line"/>
      <point x="246.7" y="281.0" type="line"/>
    </contour>
  </outline>
</glyph>
<glyph name="comma" format="2">
  <advance width="600.0"/>
  <unicode hex="002C"/>
  <outline>
    <contour>
      <point x="199.5" y="-160.0" type="line"/>
      <point x="304.5" y="-160.0" type="line"/>
      <point x="377.5" y="151.0" type="line"/>
      <point x="253.6" y="151.0" type="line"/>
    </contour>
  </outline>
</glyph>
<glyph name="period" format="2">
  <advance width="600.0"/>
  <unicode hex="002E"/>
  <outline>
    <contour>
      <point x="300.0" y="-10.0" type="curve" smooth="yes"/>
      <point x="354.3" y="-10.0"/>
      <point x="388.4" y="23.4"/>
      <point x="388.4" y="77.0" type="curve" smooth="yes"/>
      <point x="388.4" y="132.0"/>
      <point x="354.3" y="166.8"/>
      <point x="300.0" y="166.8" type="curve" smooth="yes"/>
      <point x="245.7" y="166.8"/>
      <point x="211.6" y="132.0"/>
      <point x="211.6" y="77.0" type="curve" smooth="yes"/>
      <point x="211.6" y="23.4"/>
      <point x="245.7" y="-10.0"/>
    </contour>
  </outline>
</glyph>
<glyph name="slash" format="2">
  <advance width="600.0"/>
  <unicode hex="002F"/>
  <outline>
    <contour>
      <point x="67.5" y="-110.0" type="line"/>
      <point x="180.5" y="-110.0" type="line"/>
      <point x="532.5" y="830.0" type="line"/>
      <point x="419.5" y="830.0" type="line"/>
    </contour>
  </outline>
</glyph>
<glyph name="zero" format="2">
  <advance width="600.0"/>
  <unicode hex="0030"/>
  <outline>
    <contour>
      <point x="300.0" y="-10.0" type="curve" smooth="yes"/>
      <point x="437.9" y="-10.0"/>
      <point x="526.0" y="75.9"/>
      <point x="526.0" y="206.5" type="curve" smooth="yes"/>
      <point x="526.0" y="523.5" type="line" smooth="yes"/>
      <point x="526.0" y="654.8"/>
      <point x="438.6" y="740.0"/>
      <point x="300.0" y="740.0" type="curve" smooth="yes"/>
      <point x="161.4" y="740.0"/>
      <point x="74.0" y="654.8"/>
      <point x="74.0" y="523.5" type="curve" smooth="yes"/>
      <point x="74.0" y="206.5" type="line" smooth="yes"/>
      <point x="74.0" y="75.2"/>
      <point x="161.4" y="-10.0"/>
    </contour>
    <contour>
      <point x="300.0" y="82.9" type="curve" smooth="yes"/>
      <point x="225.4" y="82.9"/>
      <point x="176.9" y="133.0"/>
      <point x="176.9" y="206.5" type="curve" smooth="yes"/>
      <point x="176.9" y="523.5" type="line" smooth="yes"/>
      <point x="176.9" y="597.0"/>
      <point x="225.1" y="647.1"/>
      <point x="300.0" y="647.1" type="curve" smooth="yes"/>
      <point x="374.9" y="647.1"/>
      <point x="423.1" y="597.0"/>
      <point x="423.1" y="523.5" type="curve" smooth="yes"/>
      <point x="423.1" y="206.5" type="line" smooth="yes"/>
      <point x="423.1" y="133.0"/>
      <point x="374.6" y="82.9"/>
    </contour>
    <contour>
      <point x="300.0" y="303.0" type="curve" smooth="yes"/>
      <point x="337.8" y="303.0"/>
      <point x="363.0" y="329.2"/>
      <point x="363.0" y="368.0" type="curve" smooth="yes"/>
      <point x="363.0" y="405.8"/>
      <point x="337.8" y="431.0"/>
      <point x="300.0" y="431.0" type="curve" smooth="yes"/>
      <point x="262.2" y="431.0"/>
      <point x="237.0" y="405.8"/>
      <point x="237.0" y="368.0" type="curve" smooth="yes"/>
      <point x="237.0" y="329.2"/>
      <point x="262.2" y="303.0"/>
    </contour>
  </outline>
</glyph>
<glyph name="one" format="2">
  <advance width="600.0"/>
  <unicode hex="0031"/>
  <outline>
    <contour>
      <point x="87.0" y="0.0" type="line"/>
      <point x="546.0" y="0.0" type="line"/>
      <point x="546.0" y="97.9" type="line"/>
      <point x="388.8" y="97.9" type="line"/>
      <point x="388.8" y="730.0" type="line"/>
      <point x="253.2" y="730.0" type="line"/>
      <point x="86.4" y="607.9" type="line"/>
      <point x="86.4" y="491.4" type="line"/>
      <point x="280.8" y="636.4" type="line"/>
      <point x="280.8" y="97.9" type="line"/>
      <point x="87.0" y="97.9" type="line"/>
    </contour>
  </outline>
</glyph>
<glyph name="two" format="2">
  <advance width="600.0"/>
  <unicode hex="0032"/>
  <outline>
    <contour>
      <point x="85.4" y="0.0" type="line"/>
      <point x="530.8" y="0.0" type="line"/>
      <point x="530.8" y="97.9" type="line"/>
      <point x="214.2" y="97.9" type="line"/>
      <point x="393.7" y="287.4" type="line" smooth="yes"/>
      <point x="481.9" y="380.3"/>
      <point x="520.0" y="452.0"/>
      <point x="520.0" y="525.9" type="curve" smooth="yes"/>
      <point x="520.0" y="657.4"/>
      <point x="432.3" y="740.0"/>
      <point x="294.9" y="740.0" type="curve" smooth="yes"/>
      <point x="157.5" y="740.0"/>
      <point x="68.2" y="654.3"/>
      <point x="65.4" y="519.0" type="curve"/>
      <point x="173.4" y="519.0" type="line"/>
      <point x="173.4" y="596.0"/>
      <point x="219.9" y="643.5"/>
      <point x="294.0" y="643.5" type="curve" smooth="yes"/>
      <point x="366.8" y="643.5"/>
      <point x="412.0" y="597.3"/>
      <point x="412.0" y="522.4" type="curve" smooth="yes"/>
      <point x="412.0" y="470.6"/>
      <point x="385.0" y="420.7"/>
      <point x="325.6" y="356.8" type="curve" smooth="yes"/>
      <point x="85.4" y="101.9" type="line"/>
    </contour>
  </outline>
</glyph>
<glyph name="three" format="2">
  <advance width="600.0"/>
  <unicode hex="0033"/>
  <outline>
    <contour>
      <point x="291.1" y="-10.0" type="curve" smooth="yes"/>
      <point x="428.5" y="-10.0"/>
      <point x="519.0" y="73.1"/>
      <point x="519.0" y="200.0" type="curve" smooth="yes"/>
      <point x="519.0" y="252.7" type="line" smooth="yes"/>
      <point x="519.0" y="381.3"/>
      <point x="431.3" y="463.3"/>
      <point x="293.2" y="463.3" type="curve"/>
      <point x="293.2" y="424.0" type="line"/>
      <point x="494.5" y="636.4" type="line"/>
      <point x="494.5" y="730.0" type="line"/>
      <point x="96.1" y="730.0" type="line"/>
      <point x="96.1" y="635.1" type="line"/>
      <point x="375.7" y="635.1" type="line"/>
      <point x="209.5" y="458.6" type="line"/>
      <point x="209.5" y="369.2" type="line"/>
      <point x="291.8" y="369.2" type="line" smooth="yes"/>
      <point x="367.2" y="369.2"/>
      <point x="411.0" y="326.3"/>
      <point x="411.0" y="252.4" type="curve" smooth="yes"/>
      <point x="411.0" y="200.0" type="line" smooth="yes"/>
      <point x="411.0" y="128.9"/>
      <point x="367.5" y="83.5"/>
      <point x="291.8" y="83.5" type="curve" smooth="yes"/>
      <point x="217.1" y="83.5"/>
      <point x="172.6" y="127.1"/>
      <point x="172.6" y="200.0" type="curve"/>
      <point x="64.6" y="200.0" type="line"/>
      <point x="64.6" y="73.1"/>
      <point x="153.7" y="-10.0"/>
    </contour>
  </outline>
</glyph>
<glyph name="four" format="2">
  <advance width="600.0"/>
  <unicode hex="0034"/>
  <outline>
    <contour>
      <point x="391.0" y="0.0" type="line"/>
      <point x="499.0" y="0.0" type="line"/>
      <point x="499.0" y="420.0" type="line"/>
      <point x="391.0" y="420.0" type="line"/>
      <point x="391.0" y="248.6" type="line"/>
      <point x="169.0" y="248.6" type="line"/>
      <point x="169.0" y="288.4" type="line"/>
      <point x="451.2" y="730.0" type="line"/>
      <point x="332.4" y="730.0" type="line"/>
      <point x="64.0" y="313.6" type="line"/>
      <point x="64.0" y="152.2" type="line"/>
      <point x="391.0" y="152.2" type="line"/>
    </contour>
  </outline>
</glyph>
<glyph name="five" format="2">
  <advance width="600.0"/>
  <unicode hex="0035"/>
  <outline>
    <contour>
      <point x="298.3" y="-10.0" type="curve" smooth="yes"/>
      <point x="439.5" y="-10.0"/>
      <point x="522.5" y="71.0"/>
      <point x="522.5" y="201.5" type="curve" smooth="yes"/>
      <point x="522.5" y="272.5" type="line" smooth="yes"/>
      <point x="522.5" y="403.3"/>
      <point x="452.8" y="480.4"/>
      <point x="334.5" y="479.7" type="curve" smooth="yes"/>
      <point x="251.1" y="479.7"/>
      <point x="198.3" y="441.0"/>
      <point x="198.3" y="379.3" type="curve"/>
      <point x="227.5" y="405.0" type="line"/>
      <point x="198.6" y="405.0" type="line"/>
      <point x="201.3" y="632.1" type="line"/>
      <point x="496.2" y="632.1" type="line"/>
      <point x="496.2" y="730.0" type="line"/>
      <point x="98.1" y="730.0" type="line"/>
      <point x="93.1" y="327.2" type="line"/>
      <point x="199.6" y="327.2" type="line"/>
      <point x="216.0" y="364.7"/>
      <point x="252.5" y="388.7"/>
      <point x="299.7" y="388.7" type="curve" smooth="yes"/>
      <point x="375.8" y="388.7"/>
      <point x="414.5" y="346.8"/>
      <point x="414.5" y="272.5" type="curve" smooth="yes"/>
      <point x="414.5" y="201.5" type="line" smooth="yes"/>
      <point x="414.5" y="127.2"/>
      <point x="375.5" y="85.0"/>
      <point x="299.0" y="85.0" type="curve" smooth="yes"/>
      <point x="230.7" y="85.0"/>
      <point x="191.0" y="115.9"/>
      <point x="185.5" y="169.0" type="curve"/>
      <point x="77.5" y="169.0" type="line"/>
      <point x="87.5" y="59.3"/>
      <point x="171.5" y="-10.0"/>
    </contour>
  </outline>
</glyph>
<glyph name="six" format="2">
  <advance width="600.0"/>
  <unicode hex="0036"/>
  <outline>
    <contour>
      <point x="300.7" y="-10.0" type="curve" smooth="yes"/>
      <point x="445.3" y="-10.0"/>
      <point x="541.7" y="85.0"/>
      <point x="541.7" y="226.7" type="curve" smooth="yes"/>
      <point x="541.7" y="359.4"/>
      <point x="461.9" y="448.1"/>
      <point x="343.7" y="448.1" type="curve" smooth="yes"/>
      <point x="286.7" y="448.1"/>
      <point x="241.7" y="424.5"/>
      <point x="216.2" y="386.4" type="curve"/>
      <point x="211.3" y="389.7" type="line"/>
      <point x="411.1" y="730.0" type="line"/>
      <point x="293.6" y="730.0" type="line"/>
      <point x="125.8" y="435.7" type="line" smooth="yes"/>
      <point x="82.0" y="359.4"/>
      <point x="58.3" y="291.5"/>
      <point x="58.3" y="228.7" type="curve" smooth="yes"/>
      <point x="58.3" y="86.1"/>
      <point x="155.4" y="-10.0"/>
    </contour>
    <contour>
      <point x="300.0" y="83.5" type="curve" smooth="yes"/>
      <point x="219.6" y="83.5"/>
      <point x="165.1" y="140.4"/>
      <point x="165.1" y="224.7" type="curve" smooth="yes"/>
      <point x="165.1" y="309.3"/>
      <point x="219.6" y="366.5"/>
      <point x="300.0" y="366.5" type="curve" smooth="yes"/>
      <point x="380.4" y="366.5"/>
      <point x="434.9" y="309.3"/>
      <point x="434.9" y="224.7" type="curve" smooth="yes"/>
      <point x="434.9" y="140.4"/>
      <point x="380.4" y="83.5"/>
    </contour>
  </outline>
</glyph>
<glyph name="seven" format="2">
  <advance width="600.0"/>
  <unicode hex="0037"/>
  <outline>
    <contour>
      <point x="174.5" y="0.0" type="line"/>
      <point x="293.0" y="0.0" type="line"/>
      <point x="551.0" y="632.5" type="line"/>
      <point x="551.0" y="730.0" type="line"/>
      <point x="72.5" y="730.0" type="line"/>
      <point x="72.5" y="515.0" type="line"/>
      <point x="180.5" y="515.0" type="line"/>
      <point x="180.5" y="633.6" type="line"/>
      <point x="438.5" y="633.6" type="line"/>
    </contour>
  </outline>
</glyph>
<glyph name="eight" format="2">
  <advance width="600.0"/>
  <unicode hex="0038"/>
  <outline>
    <contour>
      <point x="300.0" y="-10.0" type="curve" smooth="yes"/>
      <point x="444.3" y="-10.0"/>
      <point x="540.0" y="68.7"/>
      <point x="540.0" y="185.7" type="curve" smooth="yes"/>
      <point x="540.0" y="273.2"/>
      <point x="478.8" y="349.2"/>
      <point x="377.9" y="388.9" type="curve" smooth="yes"/>
      <point x="273.4" y="430.3" type="line" smooth="yes"/>
      <point x="218.8" y="451.4"/>
      <point x="181.1" y="494.8"/>
      <point x="181.1" y="545.9" type="curve" smooth="yes"/>
      <point x="181.1" y="605.1"/>
      <point x="229.6" y="647.5"/>
      <point x="300.0" y="647.5" type="curve" smooth="yes"/>
      <point x="370.1" y="647.5"/>
      <point x="418.3" y="605.8"/>
      <point x="418.3" y="545.9" type="curve" smooth="yes"/>
      <point x="418.3" y="495.9"/>
      <point x="379.5" y="451.5"/>
      <point x="323.8" y="429.3" type="curve" smooth="yes"/>
      <point x="219.3" y="387.5" type="line" smooth="yes"/>
      <point x="122.8" y="349.6"/>
      <point x="60.0" y="274.3"/>
      <point x="60.0" y="185.7" type="curve" smooth="yes"/>
      <point x="60.0" y="69.6"/>
      <point x="155.7" y="-10.0"/>
    </contour>
    <contour>
      <point x="300.0" y="83.2" type="curve" smooth="yes"/>
      <point x="220.4" y="83.2"/>
      <point x="165.4" y="129.9"/>
      <point x="165.4" y="198.0" type="curve" smooth="yes"/>
      <point x="165.4" y="249.9"/>
      <point x="201.7" y="298.2"/>
      <point x="259.4" y="321.4" type="curve" smooth="yes"/>
      <point x="367.7" y="365.6" type="line" smooth="yes"/>
      <point x="469.5" y="406.2"/>
      <point x="523.7" y="472.3"/>
      <point x="523.7" y="551.0" type="curve" smooth="yes"/>
      <point x="523.7" y="660.3"/>
      <point x="431.7" y="740.7"/>
      <point x="300.0" y="740.7" type="curve" smooth="yes"/>
      <point x="168.0" y="740.7"/>
      <point x="75.7" y="660.3"/>
      <point x="75.7" y="551.0" type="curve" smooth="yes"/>
      <point x="75.7" y="472.5"/>
      <point x="129.5" y="406.5"/>
      <point x="230.5" y="366.3" type="curve" smooth="yes"/>
      <point x="338.5" y="322.1" type="line" smooth="yes"/>
      <point x="396.9" y="298.9"/>
      <point x="434.6" y="251.0"/>
      <point x="434.6" y="197.7" type="curve" smooth="yes"/>
      <point x="434.6" y="129.9"/>
      <point x="379.6" y="83.2"/>
    </contour>
  </outline>
</glyph>
<glyph name="nine" format="2">
  <advance width="600.0"/>
  <unicode hex="0039"/>
  <outline>
    <contour>
      <point x="190.4" y="0.0" type="line"/>
      <point x="310.2" y="0.0" type="line"/>
      <point x="473.5" y="294.6" type="line" smooth="yes"/>
      <point x="516.0" y="370.9"/>
      <point x="541.7" y="439.1"/>
      <point x="541.7" y="502.5" type="curve" smooth="yes"/>
      <point x="541.7" y="643.3"/>
      <point x="443.4" y="740.0"/>
      <point x="299.3" y="740.0" type="curve" smooth="yes"/>
      <point x="155.9" y="740.0"/>
      <point x="58.3" y="643.8"/>
      <point x="58.3" y="502.4" type="curve" smooth="yes"/>
      <point x="58.3" y="370.3"/>
      <point x="138.7" y="280.1"/>
      <point x="256.3" y="280.1" type="curve" smooth="yes"/>
      <point x="313.3" y="280.1"/>
      <point x="357.8" y="303.7"/>
      <point x="383.3" y="341.8" type="curve"/>
      <point x="388.2" y="338.5" type="line"/>
    </contour>
    <contour>
      <point x="300.0" y="361.7" type="curve" smooth="yes"/>
      <point x="219.9" y="361.7"/>
      <point x="165.1" y="419.2"/>
      <point x="165.1" y="504.4" type="curve" smooth="yes"/>
      <point x="165.1" y="589.0"/>
      <point x="219.9" y="646.5"/>
      <point x="300.0" y="646.5" type="curve" smooth="yes"/>
      <point x="380.1" y="646.5"/>
      <point x="434.9" y="589.0"/>
      <point x="434.9" y="504.4" type="curve" smooth="yes"/>
      <point x="434.9" y="419.2"/>
      <point x="380.1" y="361.7"/>
    </contour>
  </outline>
</glyph>
<glyph name="semicolon" format="2">
  <advance width="600.0"/>
  <unicode hex="003B"/>
  <outline>
    <contour>
      <point x="290.0" y="401.0" type="curve" smooth="yes"/>
      <point x="310.0" y="401.0" type="line" smooth="yes"/>
      <point x="356.4" y="401.0"/>
      <point x="389.5" y="434.1"/>
      <point x="389.5" y="480.5" type="curve" smooth="yes"/>
      <point x="389.5" y="526.2"/>
      <point x="355.7" y="560.0"/>
      <point x="310.0" y="560.0" type="curve" smooth="yes"/>
      <point x="290.0" y="560.0" type="line" smooth="yes"/>
      <point x="244.3" y="560.0"/>
      <point x="210.5" y="526.2"/>
      <point x="210.5" y="480.5" type="curve" smooth="yes"/>
      <point x="210.5" y="434.1"/>
      <point x="243.6" y="401.0"/>
    </contour>
    <component base="comma" xOffset="-5.0"/>
  </outline>
</glyph>
<glyph name="less" format="2">
  <advance width="600.0"/>
  <unicode hex="003C"/>
  <outline>
    <contour>
      <point x="519.5" y="60.2" type="line"/>
      <point x="519.5" y="164.3" type="line"/>
      <point x="219.7" y="307.7" type="line" smooth="yes"/>
      <point x="195.5" y="319.7"/>
      <point x="168.1" y="328.1"/>
      <point x="154.6" y="331.1" type="curve"/>
      <point x="167.4" y="334.1"/>
      <point x="194.1" y="342.8"/>
      <point x="219.7" y="354.8" type="curve" smooth="yes"/>
      <point x="519.5" y="497.5" type="line"/>
      <point x="519.5" y="599.2" type="line"/>
      <point x="80.5" y="386.0" type="line"/>
      <point x="80.5" y="273.1" type="line"/>
    </contour>
  </outline>
</glyph>
<glyph name="equal" format="2">
  <advance width="600.0"/>
  <unicode hex="003D"/>
  <outline>
    <contour>
      <point x="83.5" y="402.5" type="line"/>
      <point x="516.5" y="402.5" type="line"/>
      <point x="516.5" y="500.5" type="line"/>
      <point x="83.5" y="500.5" type="line"/>
    </contour>
    <contour>
      <point x="83.5" y="159.5" type="line"/>
      <point x="516.5" y="159.5" type="line"/>
      <point x="516.5" y="257.5" type="line"/>
      <point x="83.5" y="257.5" type="line"/>
    </contour>
  </outline>
</glyph>
<glyph name="greater" format="2">
  <advance width="600.0"/>
  <unicode hex="003E"/>
  <outline>
    <contour>
      <point x="80.5" y="60.2" type="line"/>
      <point x="519.5" y="273.4" type="line"/>
      <point x="519.5" y="386.3" type="line"/>
      <point x="80.5" y="599.2" type="line"/>
      <point x="80.5" y="495.1" type="line"/>
      <point x="380.3" y="351.7" type="line" smooth="yes"/>
      <point x="404.5" y="339.7"/>
      <point x="431.9" y="331.3"/>
      <point x="445.4" y="328.3" type="curve"/>
      <point x="432.6" y="325.3"/>
      <point x="405.9" y="316.6"/>
      <point x="380.3" y="304.6" type="curve" smooth="yes"/>
      <point x="80.5" y="161.9" type="line"/>
    </contour>
  </outline>
</glyph>
<glyph name="question" format="2">
  <advance width="600.0"/>
  <unicode hex="003F"/>
  <outline>
    <contour>
      <point x="197.0" y="211.0" type="line"/>
      <point x="297.5" y="211.0" type="line"/>
      <point x="297.5" y="308.5" type="line"/>
      <point x="413.7" y="312.7"/>
      <point x="492.5" y="396.7"/>
      <point x="492.5" y="515.0" type="curve" smooth="yes"/>
      <point x="492.5" y="646.0"/>
      <point x="400.4" y="730.0"/>
      <point x="256.5" y="730.0" type="curve" smooth="yes"/>
      <point x="122.5" y="730.0" type="line"/>
      <point x="122.5" y="628.5" type="line"/>
      <point x="259.5" y="628.5" type="line" smooth="yes"/>
      <point x="336.2" y="628.5"/>
      <point x="384.5" y="584.1"/>
      <point x="384.5" y="515.0" type="curve" smooth="yes"/>
      <point x="384.5" y="446.2"/>
      <point x="336.2" y="401.5"/>
      <point x="260.5" y="401.5" type="curve" smooth="yes"/>
      <point x="195.5" y="401.5" type="line"/>
    </contour>
    <contour>
      <point x="231.7" y="-5.0" type="curve" smooth="yes"/>
      <point x="261.4" y="-5.0" type="line" smooth="yes"/>
      <point x="299.7" y="-5.0"/>
      <point x="326.2" y="21.3"/>
      <point x="326.2" y="58.7" type="curve" smooth="yes"/>
      <point x="326.2" y="95.1"/>
      <point x="301.8" y="121.0"/>
      <point x="261.7" y="121.0" type="curve" smooth="yes"/>
      <point x="231.7" y="121.0" type="line" smooth="yes"/>
      <point x="193.7" y="121.0"/>
      <point x="167.2" y="95.1"/>
      <point x="167.2" y="58.0" type="curve" smooth="yes"/>
      <point x="167.2" y="20.9"/>
      <point x="193.7" y="-5.0"/>
    </contour>
  </outline>
</glyph>
<glyph name="at" format="2">
  <advance width="600.0"/>
  <unicode hex="0040"/>
  <outline>
    <contour>
      <point x="325.0" y="-179.7" type="curve" smooth="yes"/>
      <point x="395.0" y="-179.7" type="line"/>
      <point x="395.0" y="-94.2" type="line"/>
      <point x="325.0" y="-94.2" type="line" smooth="yes"/>
      <point x="203.4" y="-94.2"/>
      <point x="131.0" y="-17.6"/>
      <point x="131.0" y="110.3" type="curve" smooth="yes"/>
      <point x="131.0" y="450.0" type="line" smooth="yes"/>
      <point x="131.0" y="583.0"/>
      <point x="198.6" y="659.5"/>
      <point x="312.9" y="659.5" type="curve" smooth="yes"/>
      <point x="417.5" y="659.5"/>
      <point x="474.0" y="601.4"/>
      <point x="474.0" y="496.5" type="curve" smooth="yes"/>
      <point x="474.0" y="489.1" type="line"/>
      <point x="476.7" y="410.0" type="line"/>
      <point x="459.7" y="410.0" type="line"/>
      <point x="474.0" y="399.3" type="line"/>
      <point x="474.0" y="452.8"/>
      <point x="431.4" y="488.0"/>
      <point x="366.8" y="488.0" type="curve" smooth="yes"/>
      <point x="281.3" y="488.0"/>
      <point x="235.5" y="431.9"/>
      <point x="235.5" y="330.0" type="curve" smooth="yes"/>
      <point x="235.5" y="213.0" type="line" smooth="yes"/>
      <point x="235.5" y="111.1"/>
      <point x="281.3" y="55.0"/>
      <point x="366.8" y="55.0" type="curve" smooth="yes"/>
      <point x="431.1" y="55.0"/>
      <point x="474.0" y="90.5"/>
      <point x="474.0" y="143.3" type="curve"/>
      <point x="456.8" y="133.0" type="line"/>
      <point x="476.3" y="133.0" type="line"/>
      <point x="476.3" y="65.0" type="line"/>
      <point x="566.0" y="65.0" type="line"/>
      <point x="566.0" y="496.5" type="line" smooth="yes"/>
      <point x="566.0" y="644.3"/>
      <point x="471.2" y="740.0"/>
      <point x="315.0" y="740.0" type="curve" smooth="yes"/>
      <point x="143.4" y="740.0"/>
      <point x="39.0" y="630.0"/>
      <point x="39.0" y="450.0" type="curve" smooth="yes"/>
      <point x="39.0" y="110.3" type="line" smooth="yes"/>
      <point x="39.0" y="-67.6"/>
      <point x="149.5" y="-179.7"/>
    </contour>
    <contour>
      <point x="400.0" y="124.6" type="curve" smooth="yes"/>
      <point x="350.5" y="124.6"/>
      <point x="326.0" y="151.5"/>
      <point x="326.0" y="213.0" type="curve" smooth="yes"/>
      <point x="326.0" y="330.0" type="line" smooth="yes"/>
      <point x="326.0" y="389.4"/>
      <point x="350.5" y="418.4"/>
      <point x="400.0" y="418.4" type="curve" smooth="yes"/>
      <point x="449.9" y="418.4"/>
      <point x="474.0" y="390.1"/>
      <point x="474.0" y="330.7" type="curve" smooth="yes"/>
      <point x="474.0" y="220.0" type="line" smooth="yes"/>
      <point x="474.0" y="154.0"/>
      <point x="451.1" y="124.6"/>
    </contour>
  </outline>
</glyph>
<glyph name="A" format="2">
  <advance width="600.0"/>
  <unicode hex="0041"/>
  <anchor x="300.0" y="0.0" name="bottom"/>
  <anchor x="489.5" y="0.0" name="ogonek"/>
  <anchor x="300.0" y="730.0" name="top"/>
  <outline>
    <contour>
      <point x="42.5" y="0.0" type="line"/>
      <point x="152.8" y="0.0" type="line"/>
      <point x="196.9" y="185.3" type="line"/>
      <point x="403.8" y="185.3" type="line"/>
      <point x="447.9" y="0.0" type="line"/>
      <point x="557.5" y="0.0" type="line"/>
      <point x="370.9" y="730.0" type="line"/>
      <point x="229.2" y="730.0" type="line"/>
    </contour>
    <contour>
      <point x="217.0" y="274.5" type="line"/>
      <point x="267.3" y="485.8" type="line" smooth="yes"/>
      <point x="285.0" y="559.6"/>
      <point x="296.4" y="618.1"/>
      <point x="300.0" y="639.1" type="curve"/>
      <point x="303.6" y="618.1"/>
      <point x="315.3" y="559.6"/>
      <point x="333.0" y="484.8" type="curve" smooth="yes"/>
      <point x="382.7" y="274.5" type="line"/>
    </contour>
  </outline>
</glyph>
<glyph name="B" format="2">
  <advance width="600.0"/>
  <unicode hex="0042"/>
  <anchor x="300.0" y="0.0" name="bottom"/>
  <anchor x="300.0" y="730.0" name="top"/>
  <outline>
    <contour>
      <point x="84.9" y="0.0" type="line"/>
      <point x="313.5" y="0.0" type="line" smooth="yes"/>
      <point x="451.6" y="0.0"/>
      <point x="539.0" y="79.8"/>
      <point x="539.0" y="205.4" type="curve" smooth="yes"/>
      <point x="539.0" y="320.0"/>
      <point x="464.9" y="393.8"/>
      <point x="352.0" y="392.1" type="curve"/>
      <point x="352.0" y="379.5" type="line"/>
      <point x="456.6" y="378.1"/>
      <point x="522.3" y="442.1"/>
      <point x="522.3" y="541.6" type="curve" smooth="yes"/>
      <point x="522.3" y="657.8"/>
      <point x="437.2" y="730.0"/>
      <point x="300.3" y="730.0" type="curve" smooth="yes"/>
      <point x="84.9" y="730.0" type="line"/>
    </contour>
    <contour>
      <point x="190.0" y="93.0" type="line"/>
      <point x="190.0" y="334.1" type="line"/>
      <point x="304.7" y="334.1" type="line" smooth="yes"/>
      <point x="383.0" y="334.1"/>
      <point x="431.4" y="284.2"/>
      <point x="431.4" y="209.9" type="curve" smooth="yes"/>
      <point x="431.4" y="137.7"/>
      <point x="383.0" y="93.0"/>
      <point x="304.7" y="93.0" type="curve" smooth="yes"/>
    </contour>
    <contour>
      <point x="190.0" y="424.1" type="line"/>
      <point x="190.0" y="637.0" type="line"/>
      <point x="299.7" y="637.0" type="line" smooth="yes"/>
      <point x="371.0" y="637.0"/>
      <point x="414.7" y="596.6"/>
      <point x="414.7" y="530.7" type="curve" smooth="yes"/>
      <point x="414.7" y="464.8"/>
      <point x="370.3" y="424.1"/>
      <point x="299.0" y="424.1" type="curve" smooth="yes"/>
    </contour>
  </outline>
</glyph>
<glyph name="C" format="2">
  <advance width="600.0"/>
  <unicode hex="0043"/>
  <anchor x="305.0" y="0.0" name="bottom"/>
  <anchor x="305.0" y="730.0" name="top"/>
  <outline>
    <contour>
      <point x="304.0" y="-10.0" type="curve" smooth="yes"/>
      <point x="439.8" y="-10.0"/>
      <point x="527.0" y="72.8"/>
      <point x="527.0" y="203.0" type="curve"/>
      <point x="419.0" y="203.0" type="line"/>
      <point x="419.0" y="127.5"/>
      <point x="376.6" y="85.7"/>
      <point x="304.0" y="85.7" type="curve" smooth="yes"/>
      <point x="230.7" y="85.7"/>
      <point x="187.6" y="127.5"/>
      <point x="187.6" y="203.0" type="curve" smooth="yes"/>
      <point x="187.6" y="527.7" type="line" smooth="yes"/>
      <point x="187.6" y="602.5"/>
      <point x="230.7" y="644.3"/>
      <point x="304.0" y="644.3" type="curve" smooth="yes"/>
      <point x="376.6" y="644.3"/>
      <point x="419.0" y="602.5"/>
      <point x="419.0" y="527.0" type="curve"/>
      <point x="527.0" y="527.0" type="line"/>
      <point x="527.0" y="657.2"/>
      <point x="439.8" y="740.0"/>
      <point x="304.0" y="740.0" type="curve" smooth="yes"/>
      <point x="166.8" y="740.0"/>
      <point x="79.6" y="658.6"/>
      <point x="79.6" y="527.0" type="curve" smooth="yes"/>
      <point x="79.6" y="203.0" type="line" smooth="yes"/>
      <point x="79.6" y="71.7"/>
      <point x="166.8" y="-10.0"/>
    </contour>
  </outline>
</glyph>
<glyph name="D" format="2">
  <advance width="600.0"/>
  <unicode hex="0044"/>
  <anchor x="300.0" y="0.0" name="bottom"/>
  <anchor x="300.0" y="365.0" name="center"/>
  <anchor x="300.0" y="730.0" name="top"/>
  <outline>
    <contour>
      <point x="83.3" y="0.0" type="line"/>
      <point x="286.7" y="0.0" type="line" smooth="yes"/>
      <point x="430.7" y="0.0"/>
      <point x="524.0" y="88.4"/>
      <point x="524.0" y="224.5" type="curve" smooth="yes"/>
      <point x="524.0" y="506.5" type="line" smooth="yes"/>
      <point x="524.0" y="641.9"/>
      <point x="430.7" y="730.0"/>
      <point x="286.7" y="730.0" type="curve" smooth="yes"/>
      <point x="83.3" y="730.0" type="line"/>
    </contour>
    <contour>
      <point x="191.3" y="96.5" type="line"/>
      <point x="191.3" y="633.5" type="line"/>
      <point x="286.7" y="633.5" type="line" smooth="yes"/>
      <point x="366.3" y="633.5"/>
      <point x="416.0" y="585.1"/>
      <point x="416.0" y="506.5" type="curve" smooth="yes"/>
      <point x="416.0" y="224.5" type="line" smooth="yes"/>
      <point x="416.0" y="145.2"/>
      <point x="366.3" y="96.5"/>
      <point x="286.7" y="96.5" type="curve" smooth="yes"/>
    </contour>
  </outline>
</glyph>
<glyph name="E" format="2">
  <advance width="600.0"/>
  <unicode hex="0045"/>
  <anchor x="320.0" y="0.0" name="bottom"/>
  <anchor x="437.0" y="0.0" name="ogonek"/>
  <anchor x="320.0" y="730.0" name="top"/>
  <anchor x="20.0" y="730.0" name="topleft"/>
  <outline>
    <contour>
      <point x="94.0" y="0.0" type="line"/>
      <point x="523.0" y="0.0" type="line"/>
      <point x="523.0" y="96.4" type="line"/>
      <point x="200.4" y="96.4" type="line"/>
      <point x="200.4" y="333.0" type="line"/>
      <point x="488.0" y="333.0" type="line"/>
      <point x="488.0" y="426.2" type="line"/>
      <point x="200.4" y="426.2" type="line"/>
      <point x="200.4" y="633.6" type="line"/>
      <point x="523.0" y="633.6" type="line"/>
      <point x="523.0" y="730.0" type="line"/>
      <point x="94.0" y="730.0" type="line"/>
    </contour>
  </outline>
</glyph>
<glyph name="F" format="2">
  <advance width="600.0"/>
  <unicode hex="0046"/>
  <anchor x="300.0" y="0.0" name="bottom"/>
  <anchor x="300.0" y="730.0" name="top"/>
  <outline>
    <contour>
      <point x="87.5" y="0.0" type="line"/>
      <point x="195.5" y="0.0" type="line"/>
      <point x="195.5" y="313.2" type="line"/>
      <point x="503.5" y="313.2" type="line"/>
      <point x="503.5" y="412.6" type="line"/>
      <point x="193.5" y="412.6" type="line"/>
      <point x="193.5" y="630.6" type="line"/>
      <point x="529.5" y="630.6" type="line"/>
      <point x="529.5" y="730.0" type="line"/>
      <point x="87.5" y="730.0" type="line"/>
    </contour>
  </outline>
</glyph>
<glyph name="H" format="2">
  <advance width="600.0"/>
  <unicode hex="0048"/>
  <anchor x="300.0" y="0.0" name="bottom"/>
  <anchor x="300.0" y="365.0" name="center"/>
  <anchor x="300.0" y="730.0" name="top"/>
  <anchor x="20.0" y="730.0" name="topleft"/>
  <outline>
    <contour>
      <point x="84.9" y="0.0" type="line"/>
      <point x="192.9" y="0.0" type="line"/>
      <point x="192.9" y="329.7" type="line"/>
      <point x="407.1" y="329.7" type="line"/>
      <point x="407.1" y="0.0" type="line"/>
      <point x="515.1" y="0.0" type="line"/>
      <point x="515.1" y="730.0" type="line"/>
      <point x="407.1" y="730.0" type="line"/>
      <point x="407.1" y="427.6" type="line"/>
      <point x="192.9" y="427.6" type="line"/>
      <point x="192.9" y="730.0" type="line"/>
      <point x="84.9" y="730.0" type="line"/>
    </contour>
  </outline>
</glyph>
<glyph name="I" format="2">
  <advance width="600.0"/>
  <unicode hex="0049"/>
  <anchor x="300.0" y="0.0" name="bottom"/>
  <anchor x="320.0" y="0.0" name="ogonek"/>
  <anchor x="300.0" y="730.0" name="top"/>
  <anchor x="20.0" y="730.0" name="topleft"/>
  <outline>
    <contour>
      <point x="97.5" y="0.0" type="line"/>
      <point x="502.5" y="0.0" type="line"/>
      <point x="502.5" y="97.9" type="line"/>
      <point x="354.7" y="97.9" type="line"/>
      <point x="354.7" y="632.1" type="line"/>
      <point x="502.5" y="632.1" type="line"/>
      <point x="502.5" y="730.0" type="line"/>
      <point x="97.5" y="730.0" type="line"/>
      <point x="97.5" y="632.1" type="line"/>
      <point x="245.3" y="632.1" type="line"/>
      <point x="245.3" y="97.9" type="line"/>
      <point x="97.5" y="97.9" type="line"/>
    </contour>
  </outline>
</glyph>
<glyph name="J" format="2">
  <advance width="600.0"/>
  <unicode hex="004A"/>
  <anchor x="300.0" y="0.0" name="bottom"/>
  <anchor x="360.0" y="730.0" name="top"/>
  <outline>
    <contour>
      <point x="270.0" y="-10.0" type="curve" smooth="yes"/>
      <point x="413.5" y="-10.0"/>
      <point x="502.5" y="75.2"/>
      <point x="502.5" y="212.7" type="curve" smooth="yes"/>
      <point x="502.5" y="730.0" type="line"/>
      <point x="189.5" y="730.0" type="line"/>
      <point x="189.5" y="632.1" type="line"/>
      <point x="394.5" y="632.1" type="line"/>
      <point x="394.5" y="212.7" type="line" smooth="yes"/>
      <point x="394.5" y="132.1"/>
      <point x="347.8" y="85.0"/>
      <point x="270.0" y="85.0" type="curve" smooth="yes"/>
      <point x="191.9" y="85.0"/>
      <point x="145.5" y="132.4"/>
      <point x="145.5" y="213.3" type="curve"/>
      <point x="37.5" y="213.3" type="line"/>
      <point x="37.5" y="75.5"/>
      <point x="125.8" y="-10.0"/>
    </contour>
  </outline>
</glyph>
<glyph name="K" format="2">
  <advance width="600.0"/>
  <unicode hex="004B"/>
  <anchor x="300.0" y="0.0" name="bottom"/>
  <anchor x="300.0" y="730.0" name="top"/>
  <outline>
    <contour>
      <point x="83.9" y="0.0" type="line"/>
      <point x="191.9" y="0.0" type="line"/>
      <point x="191.9" y="330.5" type="line"/>
      <point x="286.7" y="330.5" type="line"/>
      <point x="443.2" y="0.0" type="line"/>
      <point x="564.5" y="0.0" type="line"/>
      <point x="383.4" y="380.5" type="line"/>
      <point x="555.7" y="730.0" type="line"/>
      <point x="438.5" y="730.0" type="line"/>
      <point x="288.5" y="424.8" type="line"/>
      <point x="191.9" y="424.8" type="line"/>
      <point x="191.9" y="730.0" type="line"/>
      <point x="83.9" y="730.0" type="line"/>
    </contour>
  </outline>
</glyph>
<glyph name="L" format="2">
  <advance width="600.0"/>
  <unicode hex="004C"/>
  <anchor x="340.0" y="0.0" name="bottom"/>
  <anchor x="300.0" y="365.0" name="center"/>
  <anchor x="179.5" y="730.0" name="top"/>
  <anchor x="580.0" y="730.0" name="topright"/>
  <outline>
    <contour>
      <point x="125.5" y="0.0" type="line"/>
      <point x="553.0" y="0.0" type="line"/>
      <point x="553.0" y="97.9" type="line"/>
      <point x="233.5" y="97.9" type="line"/>
      <point x="233.5" y="730.0" type="line"/>
      <point x="125.5" y="730.0" type="line"/>
    </contour>
  </outline>
</glyph>
<glyph name="M" format="2">
  <advance width="600.0"/>
  <unicode hex="004D"/>
  <anchor x="300.0" y="0.0" name="bottom"/>
  <anchor x="300.0" y="730.0" name="top"/>
  <outline>
    <contour>
      <point x="65.8" y="0.0" type="line"/>
      <point x="168.5" y="0.0" type="line"/>
      <point x="168.5" y="325.5" type="line" smooth="yes"/>
      <point x="168.5" y="463.1"/>
      <point x="154.6" y="571.1"/>
      <point x="141.2" y="667.9" type="curve"/>
      <point x="250.7" y="317.0" type="line"/>
      <point x="348.4" y="317.0" type="line"/>
      <point x="457.2" y="671.5" type="line"/>
      <point x="444.1" y="567.4"/>
      <point x="431.5" y="451.9"/>
      <point x="431.5" y="325.5" type="curve" smooth="yes"/>
      <point x="431.5" y="0.0" type="line"/>
      <point x="534.2" y="0.0" type="line"/>
      <point x="534.2" y="730.0" type="line"/>
      <point x="400.6" y="730.0" type="line"/>
      <point x="328.7" y="496.5" type="line" smooth="yes"/>
      <point x="314.7" y="451.3"/>
      <point x="304.9" y="407.7"/>
      <point x="301.1" y="387.1" type="curve"/>
      <point x="297.0" y="407.7"/>
      <point x="287.2" y="451.3"/>
      <point x="273.2" y="495.8" type="curve" smooth="yes"/>
      <point x="199.1" y="730.0" type="line"/>
      <point x="65.8" y="730.0" type="line"/>
    </contour>
  </outline>
</glyph>
<glyph name="N" format="2">
  <advance width="600.0"/>
  <unicode hex="004E"/>
  <anchor x="300.0" y="0.0" name="bottom"/>
  <anchor x="300.0" y="730.0" name="top"/>
  <outline>
    <contour>
      <point x="81.0" y="0.0" type="line"/>
      <point x="181.5" y="0.0" type="line"/>
      <point x="181.5" y="383.0" type="line" smooth="yes"/>
      <point x="181.5" y="454.8"/>
      <point x="175.6" y="553.5"/>
      <point x="171.0" y="607.0" type="curve"/>
      <point x="382.5" y="0.0" type="line"/>
      <point x="519.0" y="0.0" type="line"/>
      <point x="519.0" y="730.0" type="line"/>
      <point x="418.5" y="730.0" type="line"/>
      <point x="418.5" y="353.0" type="line" smooth="yes"/>
      <point x="418.5" y="281.2"/>
      <point x="425.4" y="179.2"/>
      <point x="430.3" y="123.0" type="curve"/>
      <point x="217.5" y="730.0" type="line"/>
      <point x="81.0" y="730.0" type="line"/>
    </contour>
  </outline>
</glyph>
<glyph name="O" format="2">
  <advance width="600.0"/>
  <unicode hex="004F"/>
  <anchor x="300.0" y="0.0" name="bottom"/>
  <anchor x="300.0" y="365.0" name="center"/>
  <anchor x="320.0" y="700.0" name="horn"/>
  <anchor x="348.5" y="0.0" name="ogonek"/>
  <anchor x="300.0" y="730.0" name="top"/>
  <anchor x="20.0" y="730.0" name="topleft"/>
  <anchor x="580.0" y="730.0" name="topright"/>
  <outline>
    <contour>
      <point x="300.0" y="-10.0" type="curve" smooth="yes"/>
      <point x="435.8" y="-10.0"/>
      <point x="520.4" y="71.7"/>
      <point x="520.4" y="203.0" type="curve" smooth="yes"/>
      <point x="520.4" y="527.7" type="line" smooth="yes"/>
      <point x="520.4" y="658.3"/>
      <point x="435.8" y="740.0"/>
      <point x="300.0" y="740.0" type="curve" smooth="yes"/>
      <point x="164.2" y="740.0"/>
      <point x="79.6" y="658.3"/>
      <point x="79.6" y="527.0" type="curve" smooth="yes"/>
      <point x="79.6" y="203.0" type="line" smooth="yes"/>
      <point x="79.6" y="71.7"/>
      <point x="164.2" y="-10.0"/>
    </contour>
    <contour>
      <point x="300.0" y="85.7" type="curve" smooth="yes"/>
      <point x="227.4" y="85.7"/>
      <point x="187.6" y="127.5"/>
      <point x="187.6" y="203.0" type="curve" smooth="yes"/>
      <point x="187.6" y="527.0" type="line" smooth="yes"/>
      <point x="187.6" y="602.5"/>
      <point x="227.1" y="644.3"/>
      <point x="300.0" y="644.3" type="curve" smooth="yes"/>
      <point x="372.9" y="644.3"/>
      <point x="412.4" y="602.5"/>
      <point x="412.4" y="527.0" type="curve" smooth="yes"/>
      <point x="412.4" y="203.0" type="line" smooth="yes"/>
      <point x="412.4" y="127.5"/>
      <point x="372.6" y="85.7"/>
    </contour>
  </outline>
</glyph>
<glyph name="P" format="2">
  <advance width="600.0"/>
  <unicode hex="0050"/>
  <anchor x="300.0" y="0.0" name="bottom"/>
  <anchor x="300.0" y="730.0" name="top"/>
  <outline>
    <contour>
      <point x="84.2" y="0.0" type="line"/>
      <point x="192.2" y="0.0" type="line"/>
      <point x="192.2" y="289.8" type="line"/>
      <point x="323.4" y="289.8" type="line" smooth="yes"/>
      <point x="464.5" y="289.8"/>
      <point x="556.0" y="376.5"/>
      <point x="556.0" y="509.9" type="curve" smooth="yes"/>
      <point x="556.0" y="643.6"/>
      <point x="464.8" y="730.0"/>
      <point x="323.4" y="730.0" type="curve" smooth="yes"/>
      <point x="84.2" y="730.0" type="line"/>
    </contour>
    <contour>
      <point x="192.2" y="385.5" type="line"/>
      <point x="192.2" y="634.3" type="line"/>
      <point x="323.4" y="634.3" type="line" smooth="yes"/>
      <point x="397.9" y="634.3"/>
      <point x="445.9" y="585.0"/>
      <point x="445.9" y="509.9" type="curve" smooth="yes"/>
      <point x="445.9" y="434.8"/>
      <point x="397.9" y="385.5"/>
      <point x="323.4" y="385.5" type="curve" smooth="yes"/>
    </contour>
  </outline>
</glyph>
<glyph name="Q" format="2">
  <advance width="600.0"/>
  <unicode hex="0051"/>
  <anchor x="300.0" y="0.0" name="bottom"/>
  <anchor x="300.0" y="730.0" name="top"/>
  <outline>
    <contour>
      <point x="415.4" y="-180.0" type="line"/>
      <point x="535.0" y="-180.0" type="line"/>
      <point x="416.2" y="15.1" type="line"/>
      <point x="485.9" y="48.7"/>
      <point x="526.0" y="117.4"/>
      <point x="526.0" y="206.5" type="curve" smooth="yes"/>
      <point x="526.0" y="523.5" type="line" smooth="yes"/>
      <point x="526.0" y="654.8"/>
      <point x="437.7" y="740.0"/>
      <point x="300.0" y="740.0" type="curve" smooth="yes"/>
      <point x="162.0" y="740.0"/>
      <point x="74.0" y="655.1"/>
      <point x="74.0" y="523.5" type="curve" smooth="yes"/>
      <point x="74.0" y="206.5" type="line" smooth="yes"/>
      <point x="74.0" y="75.5021"/>
      <point x="162.3" y="-10.0"/>
      <point x="300.0" y="-10.0" type="curve" smooth="yes"/>
      <point x="308.8" y="-10.0"/>
      <point x="318.2" y="-9.0"/>
      <point x="323.2" y="-9.0" type="curve"/>
      <point x="306.9" y="-0.8999999999999999" type="line"/>
    </contour>
    <contour>
      <point x="300.0" y="85.3" type="curve" smooth="yes"/>
      <point x="226.1" y="85.3"/>
      <point x="182.0" y="132.0"/>
      <point x="182.0" y="206.5" type="curve" smooth="yes"/>
      <point x="182.0" y="523.5" type="line" smooth="yes"/>
      <point x="182.0" y="598.3"/>
      <point x="227.3" y="645.0"/>
      <point x="300.0" y="645.0" type="curve" smooth="yes"/>
      <point x="372.7" y="645.0"/>
      <point x="418.0" y="598.3"/>
      <point x="418.0" y="523.5" type="curve" smooth="yes"/>
      <point x="418.0" y="206.5" type="line" smooth="yes"/>
      <point x="418.0" y="132.0"/>
      <point x="373.9" y="85.3"/>
    </contour>
  </outline>
</glyph>
<glyph name="R" format="2">
  <advance width="600.0"/>
  <unicode hex="0052"/>
  <anchor x="300.0" y="0.0" name="bottom"/>
  <anchor x="300.0" y="730.0" name="top"/>
  <outline>
    <contour>
      <point x="83.9" y="0.0" type="line"/>
      <point x="191.6" y="0.0" type="line"/>
      <point x="191.6" y="299.8" type="line"/>
      <point x="294.5" y="299.8" type="line"/>
      <point x="427.9" y="0.0" type="line"/>
      <point x="551.0" y="0.0" type="line"/>
      <point x="402.5" y="314.0" type="line"/>
      <point x="487.5" y="342.8"/>
      <point x="541.0" y="418.6"/>
      <point x="541.0" y="516.4" type="curve" smooth="yes"/>
      <point x="541.0" y="644.7"/>
      <point x="450.1" y="730.0"/>
      <point x="312.6" y="730.0" type="curve" smooth="yes"/>
      <point x="83.9" y="730.0" type="line"/>
    </contour>
    <contour>
      <point x="191.6" y="395.5" type="line"/>
      <point x="191.6" y="634.3" type="line"/>
      <point x="312.6" y="634.3" type="line" smooth="yes"/>
      <point x="384.2" y="634.3"/>
      <point x="430.9" y="587.5"/>
      <point x="430.9" y="514.3" type="curve" smooth="yes"/>
      <point x="430.9" y="441.7"/>
      <point x="384.9" y="395.5"/>
      <point x="312.6" y="395.5" type="curve" smooth="yes"/>
    </contour>
  </outline>
</glyph>
<glyph name="S" format="2">
  <advance width="600.0"/>
  <unicode hex="0053"/>
  <anchor x="300.0" y="0.0" name="bottom"/>
  <anchor x="300.0" y="730.0" name="top"/>
  <outline>
    <contour>
      <point x="302.8" y="-10.0" type="curve" smooth="yes"/>
      <point x="443.9" y="-10.0"/>
      <point x="535.5" y="71.4"/>
      <point x="535.5" y="196.2" type="curve" smooth="yes"/>
      <point x="535.5" y="300.9"/>
      <point x="474.5" y="379.6"/>
      <point x="371.4" y="409.6" type="curve" smooth="yes"/>
      <point x="271.1" y="439.9" type="line" smooth="yes"/>
      <point x="218.3" y="455.1"/>
      <point x="188.1" y="492.6997"/>
      <point x="188.1" y="542.2" type="curve" smooth="yes"/>
      <point x="188.1" y="605.4"/>
      <point x="232.7" y="645.0"/>
      <point x="303.0" y="645.0" type="curve" smooth="yes"/>
      <point x="373.8" y="645.0"/>
      <point x="417.6" y="604.8"/>
      <point x="417.6" y="542.0" type="curve"/>
      <point x="525.6" y="542.0" type="line"/>
      <point x="525.6" y="662.8"/>
      <point x="438.6" y="740.0"/>
      <point x="303.6" y="740.0" type="curve" smooth="yes"/>
      <point x="168.2" y="740.0"/>
      <point x="81.5" y="661.9"/>
      <point x="81.5" y="540.2" type="curve" smooth="yes"/>
      <point x="81.5" y="439.9"/>
      <point x="143.7" y="363.2"/>
      <point x="249.5" y="332.8" type="curve" smooth="yes"/>
      <point x="347.3" y="303.9" type="line" smooth="yes"/>
      <point x="398.1" y="289.4"/>
      <point x="428.9" y="246.9"/>
      <point x="428.9" y="194.1" type="curve" smooth="yes"/>
      <point x="428.9" y="128.0"/>
      <point x="380.7" y="85.0"/>
      <point x="303.7" y="85.0" type="curve" smooth="yes"/>
      <point x="224.0" y="85.0"/>
      <point x="172.5" y="128.6"/>
      <point x="172.5" y="194.4" type="curve"/>
      <point x="64.5" y="194.4" type="line"/>
      <point x="64.5" y="69.9"/>
      <point x="157.9" y="-10.0"/>
    </contour>
  </outline>
</glyph>
<glyph name="T" format="2">
  <advance width="600.0"/>
  <unicode hex="0054"/>
  <anchor x="300.0" y="0.0" name="bottom"/>
  <anchor x="300.0" y="365.0" name="center"/>
  <anchor x="300.0" y="730.0" name="top"/>
  <outline>
    <contour>
      <point x="246.0" y="0.0" type="line"/>
      <point x="354.0" y="0.0" type="line"/>
      <point x="354.0" y="632.1" type="line"/>
      <point x="549.5" y="632.1" type="line"/>
      <point x="549.5" y="730.0" type="line"/>
      <point x="50.5" y="730.0" type="line"/>
      <point x="50.5" y="632.1" type="line"/>
      <point x="246.0" y="632.1" type="line"/>
    </contour>
  </outline>
</glyph>
<glyph name="U" format="2">
  <advance width="600.0"/>
  <unicode hex="0055"/>
  <anchor x="300.0" y="0.0" name="bottom"/>
  <anchor x="385.0" y="730.0" name="horn"/>
  <anchor x="348.5" y="0.0" name="ogonek"/>
  <anchor x="300.0" y="730.0" name="top"/>
  <anchor x="580.0" y="730.0" name="topright"/>
  <outline>
    <contour>
      <point x="300.0" y="-10.0" type="curve" smooth="yes"/>
      <point x="440.3" y="-10.0"/>
      <point x="519.0" y="71.1"/>
      <point x="519.0" y="204.2" type="curve" smooth="yes"/>
      <point x="519.0" y="730.0" type="line"/>
      <point x="411.0" y="730.0" type="line"/>
      <point x="411.0" y="204.5" type="line" smooth="yes"/>
      <point x="411.0" y="130.2"/>
      <point x="372.8" y="85.0"/>
      <point x="300.0" y="85.0" type="curve" smooth="yes"/>
      <point x="226.2" y="85.0"/>
      <point x="189.0" y="130.2"/>
      <point x="189.0" y="204.5" type="curve" smooth="yes"/>
      <point x="189.0" y="730.0" type="line"/>
      <point x="81.0" y="730.0" type="line"/>
      <point x="81.0" y="204.2" type="line" smooth="yes"/>
      <point x="81.0" y="71.5"/>
      <point x="160.4" y="-10.0"/>
    </contour>
  </outline>
</glyph>
<glyph name="V" format="2">
  <advance width="600.0"/>
  <unicode hex="0056"/>
  <anchor x="300.0" y="0.0" name="bottom"/>
  <anchor x="300.0" y="730.0" name="top"/>
  <outline>
    <contour>
      <point x="228.4" y="0.0" type="line"/>
      <point x="371.5" y="0.0" type="line"/>
      <point x="557.5" y="730.0" type="line"/>
      <point x="447.1" y="730.0" type="line"/>
      <point x="333.7" y="244.8" type="line" smooth="yes"/>
      <point x="319.7" y="186.6"/>
      <point x="307.2" y="123.7"/>
      <point x="302.2" y="92.5" type="curve"/>
      <point x="296.9" y="123.7"/>
      <point x="285.2" y="185.9"/>
      <point x="271.2" y="243.8" type="curve" smooth="yes"/>
      <point x="153.4" y="730.0" type="line"/>
      <point x="42.5" y="730.0" type="line"/>
    </contour>
  </outline>
</glyph>
<glyph name="W" format="2">
  <advance width="600.0"/>
  <unicode hex="0057"/>
  <anchor x="300.0" y="0.0" name="bottom"/>
  <anchor x="300.0" y="730.0" name="top"/>
  <outline>
    <contour>
      <point x="99.7" y="0.0" type="line"/>
      <point x="225.9" y="0.0" type="line"/>
      <point x="289.0" y="530.5" type="line" smooth="yes"/>
      <point x="293.7" y="572.2"/>
      <point x="298.4" y="628.3"/>
      <point x="301.4" y="658.9" type="curve"/>
      <point x="303.7" y="628.3"/>
      <point x="308.7" y="572.2"/>
      <point x="313.4" y="530.5" type="curve" smooth="yes"/>
      <point x="371.5" y="0.0" type="line"/>
      <point x="497.4" y="0.0" type="line"/>
      <point x="579.5" y="730.0" type="line"/>
      <point x="484.9" y="730.0" type="line"/>
      <point x="434.8" y="205.6" type="line" smooth="yes"/>
      <point x="430.7" y="166.1"/>
      <point x="427.0" y="108.3"/>
      <point x="425.3" y="75.5" type="curve"/>
      <point x="421.7" y="108.3"/>
      <point x="415.1" y="166.1"/>
      <point x="410.7" y="205.6" type="curve" smooth="yes"/>
      <point x="351.7" y="730.0" type="line"/>
      <point x="252.4" y="730.0" type="line"/>
      <point x="188.6" y="205.6" type="line" smooth="yes"/>
      <point x="183.5" y="166.1"/>
      <point x="178.6" y="108.3"/>
      <point x="175.3" y="75.5" type="curve"/>
      <point x="174.3" y="108.3"/>
      <point x="170.6" y="166.1"/>
      <point x="167.2" y="205.6" type="curve" smooth="yes"/>
      <point x="117.6" y="730.0" type="line"/>
      <point x="20.5" y="730.0" type="line"/>
    </contour>
  </outline>
</glyph>
<glyph name="X" format="2">
  <advance width="600.0"/>
  <unicode hex="0058"/>
  <anchor x="300.0" y="0.0" name="bottom"/>
  <anchor x="300.0" y="730.0" name="top"/>
  <outline>
    <contour>
      <point x="34.0" y="0.0" type="line"/>
      <point x="152.3" y="0.0" type="line"/>
      <point x="266.9" y="217.1" type="line" smooth="yes"/>
      <point x="279.5" y="241.2"/>
      <point x="292.3" y="269.9"/>
      <point x="298.4" y="285.0" type="curve"/>
      <point x="304.8" y="269.9"/>
      <point x="317.9" y="241.2"/>
      <point x="330.5" y="216.4" type="curve" smooth="yes"/>
      <point x="444.4" y="0.0" type="line"/>
      <point x="566.0" y="0.0" type="line"/>
      <point x="360.2" y="376.3" type="line"/>
      <point x="554.4" y="730.0" type="line"/>
      <point x="436.8" y="730.0" type="line"/>
      <point x="332.9" y="530.8" type="line" smooth="yes"/>
      <point x="320.3" y="506.0"/>
      <point x="307.8" y="477.9"/>
      <point x="302.0" y="464.1" type="curve"/>
      <point x="295.5" y="477.9"/>
      <point x="282.7" y="506.0"/>
      <point x="269.8" y="530.8" type="curve" smooth="yes"/>
      <point x="167.9" y="730.0" type="line"/>
      <point x="45.6" y="730.0" type="line"/>
      <point x="239.8" y="372.1" type="line"/>
    </contour>
  </outline>
</glyph>
<glyph name="Y" format="2">
  <advance width="600.0"/>
  <unicode hex="0059"/>
  <anchor x="300.0" y="0.0" name="bottom"/>
  <anchor x="300.0" y="730.0" name="top"/>
  <anchor x="20.0" y="730.0" name="topleft"/>
  <outline>
    <contour>
      <point x="246.0" y="0.0" type="line"/>
      <point x="354.0" y="0.0" type="line"/>
      <point x="354.0" y="269.1" type="line"/>
      <point x="571.0" y="730.0" type="line"/>
      <point x="459.1" y="730.0" type="line"/>
      <point x="333.0" y="454.0" type="line" smooth="yes"/>
      <point x="316.4" y="417.7"/>
      <point x="305.5" y="383.4"/>
      <point x="301.6" y="367.4" type="curve"/>
      <point x="297.7" y="383.4"/>
      <point x="286.9" y="417.7"/>
      <point x="270.3" y="454.0" type="curve" smooth="yes"/>
      <point x="141.2" y="730.0" type="line"/>
      <point x="29.0" y="730.0" type="line"/>
      <point x="246.0" y="269.1" type="line"/>
    </contour>
  </outline>
</glyph>
<glyph name="Z" format="2">
  <advance width="600.0"/>
  <unicode hex="005A"/>
  <anchor x="300.0" y="0.0" name="bottom"/>
  <anchor x="300.0" y="365.0" name="center"/>
  <anchor x="300.0" y="730.0" name="top"/>
  <outline>
    <contour>
      <point x="82.0" y="0.0" type="line"/>
      <point x="518.0" y="0.0" type="line"/>
      <point x="518.0" y="97.9" type="line"/>
      <point x="196.7" y="97.9" type="line"/>
      <point x="507.7" y="626.5" type="line"/>
      <point x="507.7" y="730.0" type="line"/>
      <point x="87.9" y="730.0" type="line"/>
      <point x="87.9" y="632.1" type="line"/>
      <point x="392.7" y="632.1" type="line"/>
      <point x="82.0" y="103.5" type="line"/>
    </contour>
  </outline>
</glyph>
<glyph name="backslash" format="2">
  <advance width="600.0"/>
  <unicode hex="005C"/>
  <outline>
    <contour>
      <point x="419.2" y="-110.0" type="line"/>
      <point x="532.2" y="-110.0" type="line"/>
      <point x="180.2" y="830.0" type="line"/>
      <point x="67.2" y="830.0" type="line"/>
    </contour>
  </outline>
</glyph>
<glyph name="bracketright" format="2">
  <advance width="600.0"/>
  <unicode hex="005D"/>
  <outline>
    <contour>
      <point x="142.5" y="-110.0" type="line"/>
      <point x="405.5" y="-110.0" type="line"/>
      <point x="405.5" y="830.0" type="line"/>
      <point x="142.5" y="830.0" type="line"/>
      <point x="142.5" y="732.0" type="line"/>
      <point x="297.5" y="732.0" type="line"/>
      <point x="297.5" y="-12.0" type="line"/>
      <point x="142.5" y="-12.0" type="line"/>
    </contour>
  </outline>
</glyph>
<glyph name="asciicircum" format="2">
  <advance width="600.0"/>
  <unicode hex="005E"/>
  <outline>
    <contour>
      <point x="74.0" y="340.0" type="line"/>
      <point x="173.0" y="340.0" type="line"/>
      <point x="277.5" y="583.6" type="line" smooth="yes"/>
      <point x="289.2" y="610.8"/>
      <point x="298.3" y="638.4"/>
      <point x="302.4" y="652.1" type="curve"/>
      <point x="305.8" y="638.4"/>
      <point x="314.2" y="610.8"/>
      <point x="325.2" y="583.6" type="curve" smooth="yes"/>
      <point x="426.7" y="340.0" type="line"/>
      <point x="526.0" y="340.0" type="line"/>
      <point x="352.3" y="730.0" type="line"/>
      <point x="249.7" y="730.0" type="line"/>
    </contour>
  </outline>
</glyph>
<glyph name="a" format="2">
  <advance width="600.0"/>
  <unicode hex="0061"/>
  <anchor x="305.0" y="0.0" name="bottom"/>
  <anchor x="457.5" y="0.0" name="ogonek"/>
  <anchor x="305.0" y="550.0" name="top"/>
  <outline>
    <contour>
      <point x="245.1" y="-10.0" type="curve" smooth="yes"/>
      <point x="347.5" y="-10.0"/>
      <point x="413.3" y="40.6"/>
      <point x="413.3" y="121.5" type="curve"/>
      <point x="395.0" y="99.0" type="line"/>
      <point x="412.7" y="99.0" type="line"/>
      <point x="412.7" y="0.0" type="line"/>
      <point x="517.8" y="0.0" type="line"/>
      <point x="517.8" y="375.6" type="line" smooth="yes"/>
      <point x="517.8" y="489.4"/>
      <point x="435.8" y="560.0"/>
      <point x="305.0" y="560.0" type="curve" smooth="yes"/>
      <point x="182.5" y="560.0"/>
      <point x="95.3" y="494.2"/>
      <point x="86.7" y="397.5" type="curve"/>
      <point x="191.7" y="397.5" type="line"/>
      <point x="196.6" y="435.6"/>
      <point x="236.9" y="468.4"/>
      <point x="301.1" y="468.4" type="curve" smooth="yes"/>
      <point x="368.0" y="468.4"/>
      <point x="409.8" y="433.6"/>
      <point x="409.8" y="373.5" type="curve" smooth="yes"/>
      <point x="409.8" y="323.0" type="line"/>
      <point x="259.3" y="323.0" type="line" smooth="yes"/>
      <point x="135.5" y="323.0"/>
      <point x="60.2" y="260.6"/>
      <point x="60.2" y="155.6" type="curve" smooth="yes"/>
      <point x="60.2" y="53.3"/>
      <point x="130.6" y="-10.0"/>
    </contour>
    <contour>
      <point x="277.3" y="72.4" type="curve" smooth="yes"/>
      <point x="208.9" y="72.4"/>
      <point x="168.2" y="106.4"/>
      <point x="168.2" y="163.3" type="curve" smooth="yes"/>
      <point x="168.2" y="216.4"/>
      <point x="203.7" y="249.4"/>
      <point x="261.6" y="249.4" type="curve" smooth="yes"/>
      <point x="409.8" y="249.4" type="line"/>
      <point x="409.8" y="177.4" type="line" smooth="yes"/>
      <point x="409.8" y="115.2"/>
      <point x="354.5" y="72.4"/>
    </contour>
  </outline>
</glyph>
<glyph name="b" format="2">
  <advance width="600.0"/>
  <unicode hex="0062"/>
  <anchor x="300.0" y="0.0" name="bottom"/>
  <anchor x="300.0" y="730.0" name="top"/>
  <outline>
    <contour>
      <point x="339.5" y="-10.0" type="curve" smooth="yes"/>
      <point x="449.8" y="-10.0"/>
      <point x="522.5" y="69.5"/>
      <point x="522.5" y="197.3" type="curve" smooth="yes"/>
      <point x="522.5" y="352.0" type="line" smooth="yes"/>
      <point x="522.5" y="480.2"/>
      <point x="450.5" y="560.0"/>
      <point x="339.5" y="560.0" type="curve" smooth="yes"/>
      <point x="249.2" y="560.0"/>
      <point x="189.2" y="506.4"/>
      <point x="189.2" y="419.8" type="curve"/>
      <point x="213.8" y="445.0" type="line"/>
      <point x="189.3" y="445.0" type="line"/>
      <point x="192.2" y="573.0" type="line"/>
      <point x="192.2" y="730.0" type="line"/>
      <point x="84.2" y="730.0" type="line"/>
      <point x="84.2" y="0.0" type="line"/>
      <point x="190.7" y="0.0" type="line"/>
      <point x="190.7" y="105.0" type="line"/>
      <point x="213.8" y="105.0" type="line"/>
      <point x="189.2" y="130.2" type="line"/>
      <point x="189.2" y="42.9"/>
      <point x="248.5" y="-10.0"/>
    </contour>
    <contour>
      <point x="302.3" y="83.6" type="curve" smooth="yes"/>
      <point x="234.0" y="83.6"/>
      <point x="192.2" y="127.5"/>
      <point x="192.2" y="203.0" type="curve" smooth="yes"/>
      <point x="192.2" y="347.0" type="line" smooth="yes"/>
      <point x="192.2" y="422.2"/>
      <point x="234.0" y="466.4"/>
      <point x="302.3" y="466.4" type="curve" smooth="yes"/>
      <point x="372.3" y="466.4"/>
      <point x="414.5" y="423.6"/>
      <point x="414.5" y="347.0" type="curve" smooth="yes"/>
      <point x="414.5" y="203.0" type="line" smooth="yes"/>
      <point x="414.5" y="126.1"/>
      <point x="372.3" y="83.6"/>
    </contour>
  </outline>
</glyph>
<glyph name="c" format="2">
  <advance width="600.0"/>
  <unicode hex="0063"/>
  <anchor x="303.7" y="0.0" name="bottom"/>
  <anchor x="303.7" y="550.0" name="top"/>
  <outline>
    <contour>
      <point x="303.7" y="-10.0" type="curve" smooth="yes"/>
      <point x="436.1" y="-10.0"/>
      <point x="522.1" y="64.5"/>
      <point x="526.4" y="184.5" type="curve"/>
      <point x="419.6" y="184.5" type="line"/>
      <point x="415.6" y="121.1"/>
      <point x="372.0" y="85.0"/>
      <point x="303.7" y="85.0" type="curve" smooth="yes"/>
      <point x="230.4" y="85.0"/>
      <point x="185.5" y="127.5"/>
      <point x="185.5" y="203.0" type="curve" smooth="yes"/>
      <point x="185.5" y="347.7" type="line" smooth="yes"/>
      <point x="185.5" y="422.5"/>
      <point x="230.4" y="465.0"/>
      <point x="303.7" y="465.0" type="curve" smooth="yes"/>
      <point x="371.7" y="465.0"/>
      <point x="415.6" y="428.6"/>
      <point x="419.6" y="365.5" type="curve"/>
      <point x="526.4" y="365.5" type="line"/>
      <point x="522.1" y="485.5"/>
      <point x="436.1" y="560.0"/>
      <point x="303.7" y="560.0" type="curve" smooth="yes"/>
      <point x="166.5" y="560.0"/>
      <point x="77.5" y="478.6"/>
      <point x="77.5" y="347.0" type="curve" smooth="yes"/>
      <point x="77.5" y="203.0" type="line" smooth="yes"/>
      <point x="77.5" y="71.4"/>
      <point x="166.5" y="-10.0"/>
    </contour>
  </outline>
</glyph>
<glyph name="d" format="2">
  <advance width="600.0"/>
  <unicode hex="0064"/>
  <anchor x="300.0" y="0.0" name="bottom"/>
  <anchor x="300.0" y="275.0" name="center"/>
  <anchor x="300.0" y="730.0" name="top"/>
  <anchor x="580.0" y="550.0" name="topright"/>
  <outline>
    <contour>
      <point x="259.0" y="-10.0" type="curve" smooth="yes"/>
      <point x="353.3" y="-10.0"/>
      <point x="412.9" y="48.9"/>
      <point x="412.9" y="145.2" type="curve"/>
      <point x="386.2" y="102.0" type="line"/>
      <point x="409.3" y="102.0" type="line"/>
      <point x="409.3" y="0.0" type="line"/>
      <point x="515.8" y="0.0" type="line"/>
      <point x="515.8" y="730.0" type="line"/>
      <point x="407.8" y="730.0" type="line"/>
      <point x="407.8" y="573.0" type="line"/>
      <point x="410.7" y="448.0" type="line"/>
      <point x="386.2" y="448.0" type="line"/>
      <point x="412.9" y="404.8" type="line"/>
      <point x="412.9" y="500.4"/>
      <point x="352.6" y="560.0"/>
      <point x="259.0" y="560.0" type="curve" smooth="yes"/>
      <point x="149.5" y="560.0"/>
      <point x="77.5" y="480.2"/>
      <point x="77.5" y="352.0" type="curve" smooth="yes"/>
      <point x="77.5" y="197.3" type="line" smooth="yes"/>
      <point x="77.5" y="69.8"/>
      <point x="150.2" y="-10.0"/>
    </contour>
    <contour>
      <point x="297.4" y="83.6" type="curve" smooth="yes"/>
      <point x="227.7" y="83.6"/>
      <point x="185.5" y="126.1"/>
      <point x="185.5" y="203.0" type="curve" smooth="yes"/>
      <point x="185.5" y="347.0" type="line" smooth="yes"/>
      <point x="185.5" y="423.9"/>
      <point x="227.7" y="466.4"/>
      <point x="297.4" y="466.4" type="curve" smooth="yes"/>
      <point x="366.3" y="466.4"/>
      <point x="407.8" y="421.9"/>
      <point x="407.8" y="345.5" type="curve" smooth="yes"/>
      <point x="407.8" y="204.5" type="line" smooth="yes"/>
      <point x="407.8" y="128.1"/>
      <point x="366.3" y="83.6"/>
    </contour>
  </outline>
</glyph>
<glyph name="e" format="2">
  <advance width="600.0"/>
  <unicode hex="0065"/>
  <anchor x="300.0" y="0.0" name="bottom"/>
  <anchor x="348.5" y="0.0" name="ogonek"/>
  <anchor x="300.0" y="550.0" name="top"/>
  <outline>
    <contour>
      <point x="300.3" y="-10.0" type="curve" smooth="yes"/>
      <point x="417.2" y="-10.0"/>
      <point x="504.0" y="49.8"/>
      <point x="519.6" y="143.0" type="curve"/>
      <point x="412.5" y="143.0" type="line"/>
      <point x="402.8" y="100.3"/>
      <point x="363.3" y="77.7"/>
      <point x="300.9" y="77.7" type="curve" smooth="yes"/>
      <point x="223.4" y="77.7"/>
      <point x="182.0" y="121.4"/>
      <point x="182.0" y="203.0" type="curve" smooth="yes"/>
      <point x="182.0" y="249.1" type="line"/>
      <point x="522.5" y="249.1" type="line"/>
      <point x="522.5" y="347.0" type="line" smooth="yes"/>
      <point x="522.5" y="475.5"/>
      <point x="435.1" y="560.0"/>
      <point x="300.3" y="560.0" type="curve" smooth="yes"/>
      <point x="165.2" y="560.0"/>
      <point x="77.5" y="475.5"/>
      <point x="77.5" y="347.0" type="curve" smooth="yes"/>
      <point x="77.5" y="203.0" type="line" smooth="yes"/>
      <point x="77.5" y="74.5"/>
      <point x="165.2" y="-10.0"/>
    </contour>
    <contour>
      <point x="418.0" y="314.2" type="line"/>
      <point x="425.9" y="322.8" type="line"/>
      <point x="182.0" y="322.2" type="line"/>
      <point x="182.0" y="347.0" type="line" smooth="yes"/>
      <point x="182.0" y="428.3"/>
      <point x="223.1" y="473.6"/>
      <point x="300.3" y="473.6" type="curve" smooth="yes"/>
      <point x="377.2" y="473.6"/>
      <point x="418.0" y="428.9"/>
      <point x="418.0" y="347.6" type="curve" smooth="yes"/>
    </contour>
  </outline>
</glyph>
<glyph name="f" format="2">
  <advance width="600.0"/>
  <unicode hex="0066"/>
  <anchor x="300.0" y="0.0" name="bottom"/>
  <anchor x="300.0" y="730.0" name="top"/>
  <outline>
    <contour>
      <point x="212.5" y="0.0" type="line"/>
      <point x="320.5" y="0.0" type="line"/>
      <point x="320.5" y="394.1" type="line"/>
      <point x="538.3" y="394.1" type="line"/>
      <point x="538.3" y="492.0" type="line"/>
      <point x="320.5" y="492.0" type="line"/>
      <point x="320.5" y="579.5" type="line" smooth="yes"/>
      <point x="320.5" y="614.2"/>
      <point x="342.0" y="633.6"/>
      <point x="378.8" y="633.6" type="curve" smooth="yes"/>
      <point x="538.3" y="633.6" type="line"/>
      <point x="538.3" y="730.0" type="line"/>
      <point x="377.3" y="730.0" type="line" smooth="yes"/>
      <point x="275.9" y="730.0"/>
      <point x="212.5" y="672.5"/>
      <point x="212.5" y="581.0" type="curve" smooth="yes"/>
      <point x="212.5" y="492.0" type="line"/>
      <point x="56.7" y="492.0" type="line"/>
      <point x="56.7" y="394.1" type="line"/>
      <point x="212.5" y="394.1" type="line"/>
    </contour>
  </outline>
</glyph>
<glyph name="g" format="2">
  <advance width="600.0"/>
  <unicode hex="0067"/>
  <anchor x="300.0" y="-270.0" name="bottom"/>
  <anchor x="297.0" y="550.0" name="top"/>
  <outline>
    <contour>
      <point x="156.2" y="-180.0" type="line"/>
      <point x="326.0" y="-180.0" type="line" smooth="yes"/>
      <point x="443.9" y="-180.0"/>
      <point x="515.1" y="-115.1"/>
      <point x="515.1" y="-9.8" type="curve" smooth="yes"/>
      <point x="515.1" y="550.0" type="line"/>
      <point x="407.8" y="550.0" type="line"/>
      <point x="409.3" y="445.0" type="line"/>
      <point x="386.9" y="445.0" type="line"/>
      <point x="409.3" y="424.0" type="line"/>
      <point x="409.3" y="508.5"/>
      <point x="352.2" y="560.0"/>
      <point x="262.6" y="560.0" type="curve" smooth="yes"/>
      <point x="150.2" y="560.0"/>
      <point x="79.6" y="479.5"/>
      <point x="79.6" y="352.7" type="curve" smooth="yes"/>
      <point x="79.6" y="241.5" type="line" smooth="yes"/>
      <point x="79.6" y="113.7"/>
      <point x="150.2" y="33.5"/>
      <point x="262.6" y="33.5" type="curve" smooth="yes"/>
      <point x="352.2" y="33.5"/>
      <point x="409.3" y="85.0"/>
      <point x="409.3" y="169.5" type="curve"/>
      <point x="386.9" y="148.5" type="line"/>
      <point x="410.0" y="148.5" type="line"/>
      <point x="408.0" y="47.0" type="line"/>
      <point x="408.0" y="-8.3" type="line" smooth="yes"/>
      <point x="408.0" y="-60.4"/>
      <point x="381.2" y="-86.6"/>
      <point x="325.2" y="-86.6" type="curve" smooth="yes"/>
      <point x="156.2" y="-86.6" type="line"/>
    </contour>
    <contour>
      <point x="297.7" y="127.1" type="curve" smooth="yes"/>
      <point x="227.7" y="127.1"/>
      <point x="187.6" y="169.6"/>
      <point x="187.6" y="246.5" type="curve" smooth="yes"/>
      <point x="187.6" y="347.0" type="line" smooth="yes"/>
      <point x="187.6" y="423.6"/>
      <point x="227.7" y="466.4"/>
      <point x="297.7" y="466.4" type="curve" smooth="yes"/>
      <point x="366.0" y="466.4"/>
      <point x="407.8" y="422.2"/>
      <point x="407.8" y="347.0" type="curve" smooth="yes"/>
      <point x="407.8" y="246.5" type="line" smooth="yes"/>
      <point x="407.8" y="171.0"/>
      <point x="366.0" y="127.1"/>
    </contour>
  </outline>
</glyph>
<glyph name="k" format="2">
  <advance width="600.0"/>
  <unicode hex="006B"/>
  <anchor x="300.0" y="0.0" name="bottom"/>
  <anchor x="300.0" y="730.0" name="top"/>
  <outline>
    <contour>
      <point x="87.2" y="0.0" type="line"/>
      <point x="195.2" y="0.0" type="line"/>
      <point x="195.2" y="236.3" type="line"/>
      <point x="292.6" y="236.3" type="line"/>
      <point x="439.4" y="0.0" type="line"/>
      <point x="563.3" y="0.0" type="line"/>
      <point x="384.9" y="285.9" type="line"/>
      <point x="560.3" y="550.0" type="line"/>
      <point x="438.7" y="550.0" type="line"/>
      <point x="292.2" y="328.7" type="line"/>
      <point x="195.2" y="328.7" type="line"/>
      <point x="195.2" y="730.0" type="line"/>
      <point x="87.2" y="730.0" type="line"/>
    </contour>
  </outline>
</glyph>
<glyph name="l" format="2">
  <advance width="600.0"/>
  <unicode hex="006C"/>
  <anchor x="320.0" y="0.0" name="bottom"/>
  <anchor x="300.0" y="365.0" name="center"/>
  <anchor x="256.0" y="730.0" name="top"/>
  <anchor x="580.0" y="730.0" name="topright"/>
  <outline>
    <contour>
      <point x="384.5" y="0.0" type="curve" smooth="yes"/>
      <point x="554.5" y="0.0" type="line"/>
      <point x="554.5" y="97.9" type="line"/>
      <point x="389.0" y="97.9" type="line" smooth="yes"/>
      <point x="348.1" y="97.9"/>
      <point x="322.0" y="125.3"/>
      <point x="322.0" y="168.5" type="curve" smooth="yes"/>
      <point x="322.0" y="730.0" type="line"/>
      <point x="28.5" y="730.0" type="line"/>
      <point x="28.5" y="632.1" type="line"/>
      <point x="214.0" y="632.1" type="line"/>
      <point x="214.0" y="167.0" type="line" smooth="yes"/>
      <point x="214.0" y="66.1"/>
      <point x="281.5" y="0.0"/>
    </contour>
  </outline>
</glyph>
<glyph name="m" format="2">
  <advance width="600.0"/>
  <unicode hex="006D"/>
  <anchor x="300.0" y="0.0" name="bottom"/>
  <anchor x="300.0" y="550.0" name="top"/>
  <outline>
    <contour>
      <point x="54.6" y="0.0" type="line"/>
      <point x="150.5" y="0.0" type="line"/>
      <point x="150.5" y="414.9" type="line" smooth="yes"/>
      <point x="150.5" y="455.7"/>
      <point x="169.4" y="479.0"/>
      <point x="203.5" y="479.0" type="curve" smooth="yes"/>
      <point x="238.3" y="479.0"/>
      <point x="258.6" y="455.7"/>
      <point x="258.6" y="414.2" type="curve" smooth="yes"/>
      <point x="258.6" y="0.0" type="line"/>
      <point x="341.7" y="0.0" type="line"/>
      <point x="341.7" y="414.9" type="line" smooth="yes"/>
      <point x="341.7" y="455.7"/>
      <point x="361.3" y="479.0"/>
      <point x="396.1" y="479.0" type="curve" smooth="yes"/>
      <point x="430.2" y="479.0"/>
      <point x="449.8" y="455.7"/>
      <point x="449.8" y="414.2" type="curve" smooth="yes"/>
      <point x="449.8" y="0.0" type="line"/>
      <point x="545.7" y="0.0" type="line"/>
      <point x="545.7" y="418.6" type="line" smooth="yes"/>
      <point x="545.7" y="502.0"/>
      <point x="499.4" y="560.0"/>
      <point x="433.7" y="560.0" type="curve" smooth="yes"/>
      <point x="377.0" y="560.0"/>
      <point x="337.7" y="518.4"/>
      <point x="337.7" y="458.8" type="curve"/>
      <point x="353.7" y="479.8" type="line"/>
      <point x="315.9" y="479.8" type="line"/>
      <point x="341.1" y="433.0" type="line"/>
      <point x="341.1" y="507.9"/>
      <point x="300.5" y="560.0"/>
      <point x="242.4" y="560.0" type="curve" smooth="yes"/>
      <point x="187.3" y="560.0"/>
      <point x="149.0" y="518.4"/>
      <point x="149.0" y="458.8" type="curve"/>
      <point x="165.1" y="479.8" type="line"/>
      <point x="145.3" y="479.8" type="line"/>
      <point x="145.3" y="550.0" type="line"/>
      <point x="54.6" y="550.0" type="line"/>
    </contour>
  </outline>
</glyph>
<glyph name="o" format="2">
  <advance width="600.0"/>
  <unicode hex="006F"/>
  <anchor x="300.0" y="0.0" name="bottom"/>
  <anchor x="300.0" y="275.0" name="center"/>
  <anchor x="328.4" y="550.0" name="horn"/>
  <anchor x="348.5" y="0.0" name="ogonek"/>
  <anchor x="300.0" y="550.0" name="top"/>
  <anchor x="580.0" y="550.0" name="topright"/>
  <outline>
    <contour>
      <point x="300.0" y="-8.6" type="curve" smooth="yes"/>
      <point x="437.2" y="-8.6"/>
      <point x="522.5" y="73.8"/>
      <point x="522.5" y="204.4" type="curve" smooth="yes"/>
      <point x="522.5" y="346.3" type="line" smooth="yes"/>
      <point x="522.5" y="476.2"/>
      <point x="437.2" y="558.6"/>
      <point x="300.0" y="558.6" type="curve" smooth="yes"/>
      <point x="162.8" y="558.6"/>
      <point x="77.5" y="476.2"/>
      <point x="77.5" y="345.6" type="curve" smooth="yes"/>
      <point x="77.5" y="204.4" type="line" smooth="yes"/>
      <point x="77.5" y="73.8"/>
      <point x="162.8" y="-8.6"/>
    </contour>
    <contour>
      <point x="300.0" y="86.4" type="curve" smooth="yes"/>
      <point x="228.0" y="86.4"/>
      <point x="185.5" y="127.5"/>
      <point x="185.5" y="204.4" type="curve" smooth="yes"/>
      <point x="185.5" y="345.6" type="line" smooth="yes"/>
      <point x="185.5" y="422.5"/>
      <point x="228.0" y="463.6"/>
      <point x="300.0" y="463.6" type="curve" smooth="yes"/>
      <point x="372.0" y="463.6"/>
      <point x="414.5" y="422.5"/>
      <point x="414.5" y="345.6" type="curve" smooth="yes"/>
      <point x="414.5" y="204.4" type="line" smooth="yes"/>
      <point x="414.5" y="127.5"/>
      <point x="372.0" y="86.4"/>
    </contour>
  </outline>
</glyph>
<glyph name="p" format="2">
  <advance width="600.0"/>
  <unicode hex="0070"/>
  <anchor x="300.0" y="0.0" name="bottom"/>
  <anchor x="300.0" y="550.0" name="top"/>
  <outline>
    <contour>
      <point x="84.9" y="-180.0" type="line"/>
      <point x="192.9" y="-180.0" type="line"/>
      <point x="192.9" y="-23.0" type="line"/>
      <point x="190.0" y="102.0" type="line"/>
      <point x="214.5" y="102.0" type="line"/>
      <point x="187.8" y="145.2" type="line"/>
      <point x="187.8" y="49.6"/>
      <point x="248.8" y="-10.0"/>
      <point x="342.4" y="-10.0" type="curve" smooth="yes"/>
      <point x="451.9" y="-10.0"/>
      <point x="523.2" y="69.8"/>
      <point x="523.2" y="198.0" type="curve" smooth="yes"/>
      <point x="523.2" y="352.7" type="line" smooth="yes"/>
      <point x="523.2" y="480.2"/>
      <point x="451.2" y="560.0"/>
      <point x="342.4" y="560.0" type="curve" smooth="yes"/>
      <point x="248.1" y="560.0"/>
      <point x="187.8" y="501.1"/>
      <point x="187.8" y="404.8" type="curve"/>
      <point x="214.5" y="448.0" type="line"/>
      <point x="191.4" y="448.0" type="line"/>
      <point x="191.4" y="550.0" type="line"/>
      <point x="84.9" y="550.0" type="line"/>
    </contour>
    <contour>
      <point x="304.0" y="83.6" type="curve" smooth="yes"/>
      <point x="235.1" y="83.6"/>
      <point x="192.9" y="128.1"/>
      <point x="192.9" y="204.5" type="curve" smooth="yes"/>
      <point x="192.9" y="345.5" type="line" smooth="yes"/>
      <point x="192.9" y="421.9"/>
      <point x="235.1" y="466.4"/>
      <point x="304.0" y="466.4" type="curve" smooth="yes"/>
      <point x="373.7" y="466.4"/>
      <point x="415.2" y="423.9"/>
      <point x="415.2" y="347.0" type="curve" smooth="yes"/>
      <point x="415.2" y="203.0" type="line" smooth="yes"/>
      <point x="415.2" y="126.1"/>
      <point x="373.7" y="83.6"/>
    </contour>
  </outline>
</glyph>
<glyph name="q" format="2">
  <advance width="600.0"/>
  <unicode hex="0071"/>
  <anchor x="300.0" y="0.0" name="bottom"/>
  <anchor x="300.0" y="550.0" name="top"/>
  <outline>
    <contour>
      <point x="407.8" y="-180.0" type="line"/>
      <point x="515.8" y="-180.0" type="line"/>
      <point x="515.8" y="550.0" type="line"/>
      <point x="409.3" y="550.0" type="line"/>
      <point x="409.3" y="448.0" type="line"/>
      <point x="386.2" y="448.0" type="line"/>
      <point x="412.9" y="404.8" type="line"/>
      <point x="412.9" y="501.1"/>
      <point x="353.3" y="560.0"/>
      <point x="259.0" y="560.0" type="curve" smooth="yes"/>
      <point x="150.2" y="560.0"/>
      <point x="79.6" y="480.2"/>
      <point x="79.6" y="352.7" type="curve" smooth="yes"/>
      <point x="79.6" y="198.0" type="line" smooth="yes"/>
      <point x="79.6" y="69.8"/>
      <point x="149.5" y="-10.0"/>
      <point x="259.0" y="-10.0" type="curve" smooth="yes"/>
      <point x="352.6" y="-10.0"/>
      <point x="412.9" y="49.6"/>
      <point x="412.9" y="145.2" type="curve"/>
      <point x="386.2" y="102.0" type="line"/>
      <point x="410.7" y="102.0" type="line"/>
      <point x="407.8" y="-23.0" type="line"/>
    </contour>
    <contour>
      <point x="297.4" y="83.6" type="curve" smooth="yes"/>
      <point x="227.7" y="83.6"/>
      <point x="187.6" y="126.1"/>
      <point x="187.6" y="203.0" type="curve" smooth="yes"/>
      <point x="187.6" y="347.0" type="line" smooth="yes"/>
      <point x="187.6" y="423.9"/>
      <point x="227.7" y="466.4"/>
      <point x="297.4" y="466.4" type="curve" smooth="yes"/>
      <point x="366.3" y="466.4"/>
      <point x="407.8" y="421.9"/>
      <point x="407.8" y="345.5" type="curve" smooth="yes"/>
      <point x="407.8" y="204.5" type="line" smooth="yes"/>
      <point x="407.8" y="128.1"/>
      <point x="366.3" y="83.6"/>
    </contour>
  </outline>
</glyph>
<glyph name="r" format="2">
  <advance width="600.0"/>
  <unicode hex="0072"/>
  <anchor x="145.0" y="0.0" name="bottom"/>
  <anchor x="320.0" y="550.0" name="top"/>
  <outline>
    <contour>
      <point x="100.9" y="0.0" type="line"/>
      <point x="208.9" y="0.0" type="line"/>
      <point x="208.9" y="343.4" type="line" smooth="yes"/>
      <point x="208.9" y="424.4"/>
      <point x="247.6" y="466.4"/>
      <point x="319.9" y="466.4" type="curve" smooth="yes"/>
      <point x="393.7" y="466.4"/>
      <point x="433.8" y="422.9"/>
      <point x="433.8" y="347.0" type="curve" smooth="yes"/>
      <point x="433.8" y="314.0" type="line"/>
      <point x="544.8" y="314.0" type="line"/>
      <point x="544.8" y="355.6" type="line" smooth="yes"/>
      <point x="544.8" y="481.1"/>
      <point x="470.8" y="560.0"/>
      <point x="357.4" y="560.0" type="curve" smooth="yes"/>
      <point x="264.2" y="560.0"/>
      <point x="207.4" y="507.6"/>
      <point x="207.4" y="419.8" type="curve"/>
      <point x="233.9" y="445.0" type="line"/>
      <point x="207.4" y="445.0" type="line"/>
      <point x="207.4" y="550.0" type="line"/>
      <point x="100.9" y="550.0" type="line"/>
    </contour>
  </outline>
</glyph>
<glyph name="s" format="2">
  <advance width="600.0"/>
  <unicode hex="0073"/>
  <anchor x="300.0" y="0.0" name="bottom"/>
  <anchor x="300.0" y="550.0" name="top"/>
  <outline>
    <contour>
      <point x="281.2" y="-8.6" type="curve" smooth="yes"/>
      <point x="323.8" y="-8.6" type="line" smooth="yes"/>
      <point x="459.8" y="-8.6"/>
      <point x="529.0" y="52.7"/>
      <point x="529.0" y="156.5" type="curve" smooth="yes"/>
      <point x="529.0" y="253.4"/>
      <point x="472.8" y="303.7"/>
      <point x="352.1" y="321.8" type="curve" smooth="yes"/>
      <point x="276.0" y="333.5" type="line" smooth="yes"/>
      <point x="223.9" y="341.6"/>
      <point x="197.0" y="363.1"/>
      <point x="197.0" y="401.5" type="curve" smooth="yes"/>
      <point x="197.0" y="444.4"/>
      <point x="228.7" y="468.4"/>
      <point x="286.9" y="468.4" type="curve" smooth="yes"/>
      <point x="324.9" y="468.4" type="line" smooth="yes"/>
      <point x="379.6" y="468.4"/>
      <point x="412.7" y="448.2"/>
      <point x="412.7" y="414.1" type="curve"/>
      <point x="522.1" y="414.1" type="line"/>
      <point x="522.1" y="501.6"/>
      <point x="444.9" y="558.6"/>
      <point x="326.3" y="558.6" type="curve" smooth="yes"/>
      <point x="288.3" y="558.6" type="line" smooth="yes"/>
      <point x="161.0" y="558.6"/>
      <point x="91.9" y="503.3"/>
      <point x="91.9" y="401.5" type="curve" smooth="yes"/>
      <point x="91.9" y="310.1"/>
      <point x="146.2" y="257.7"/>
      <point x="258.5" y="240.6" type="curve" smooth="yes"/>
      <point x="334.0" y="229.2" type="line" smooth="yes"/>
      <point x="392.0" y="220.1"/>
      <point x="423.9" y="195.9"/>
      <point x="423.9" y="153.1" type="curve" smooth="yes"/>
      <point x="423.9" y="109.0"/>
      <point x="391.4" y="81.6"/>
      <point x="325.2" y="81.6" type="curve" smooth="yes"/>
      <point x="282.6" y="81.6" type="line" smooth="yes"/>
      <point x="226.0" y="81.6"/>
      <point x="187.4" y="104.1"/>
      <point x="187.4" y="144.6" type="curve"/>
      <point x="78.0" y="144.6" type="line"/>
      <point x="78.0" y="50.3"/>
      <point x="161.3" y="-8.6"/>
    </contour>
  </outline>
</glyph>
<glyph name="t" format="2">
  <advance width="600.0"/>
  <unicode hex="0074"/>
  <anchor x="360.0" y="0.0" name="bottom"/>
  <anchor x="300.0" y="275.0" name="center"/>
  <anchor x="300.0" y="705.0" name="top"/>
  <anchor x="580.0" y="550.0" name="topright"/>
  <outline>
    <contour>
      <point x="360.0" y="0.0" type="curve" smooth="yes"/>
      <point x="514.5" y="0.0" type="line"/>
      <point x="514.5" y="97.9" type="line"/>
      <point x="364.5" y="97.9" type="line" smooth="yes"/>
      <point x="330.6" y="97.9"/>
      <point x="309.0" y="121.7"/>
      <point x="309.0" y="157.0" type="curve" smooth="yes"/>
      <point x="309.0" y="452.1" type="line"/>
      <point x="524.5" y="452.1" type="line"/>
      <point x="524.5" y="550.0" type="line"/>
      <point x="309.0" y="550.0" type="line"/>
      <point x="309.0" y="705.0" type="line"/>
      <point x="201.0" y="705.0" type="line"/>
      <point x="201.0" y="550.0" type="line"/>
      <point x="49.0" y="550.0" type="line"/>
      <point x="49.0" y="452.1" type="line"/>
      <point x="201.0" y="452.1" type="line"/>
      <point x="201.0" y="155.5" type="line" smooth="yes"/>
      <point x="201.0" y="60.3"/>
      <point x="262.7" y="0.0"/>
    </contour>
  </outline>
</glyph>
<glyph name="u" format="2">
  <advance width="600.0"/>
  <unicode hex="0075"/>
  <anchor x="300.0" y="0.0" name="bottom"/>
  <anchor x="417.0" y="550.0" name="horn"/>
  <anchor x="348.5" y="0.0" name="ogonek"/>
  <anchor x="300.0" y="550.0" name="top"/>
  <anchor x="580.0" y="550.0" name="topright"/>
  <outline>
    <contour>
      <point x="299.3" y="-10.0" type="curve" smooth="yes"/>
      <point x="432.0" y="-10.0"/>
      <point x="517.8" y="71.9"/>
      <point x="517.8" y="204.2" type="curve" smooth="yes"/>
      <point x="517.8" y="550.0" type="line"/>
      <point x="409.8" y="550.0" type="line"/>
      <point x="409.8" y="204.5" type="line" smooth="yes"/>
      <point x="409.8" y="127.8"/>
      <point x="368.3" y="84.3"/>
      <point x="299.3" y="84.3" type="curve" smooth="yes"/>
      <point x="230.7" y="84.3"/>
      <point x="190.2" y="127.8"/>
      <point x="190.2" y="204.5" type="curve" smooth="yes"/>
      <point x="190.2" y="550.0" type="line"/>
      <point x="82.2" y="550.0" type="line"/>
      <point x="82.2" y="204.2" type="line" smooth="yes"/>
      <point x="82.2" y="72.2"/>
      <point x="166.0" y="-10.0"/>
    </contour>
  </outline>
</glyph>
<glyph name="v" format="2">
  <advance width="600.0"/>
  <unicode hex="0076"/>
  <anchor x="300.0" y="0.0" name="bottom"/>
  <anchor x="300.0" y="550.0" name="top"/>
  <outline>
    <contour>
      <point x="230.8" y="0.0" type="line"/>
      <point x="369.8" y="0.0" type="line"/>
      <point x="559.0" y="550.0" type="line"/>
      <point x="447.3" y="550.0" type="line"/>
      <point x="331.1" y="198.0" type="line" smooth="yes"/>
      <point x="317.3" y="156.4"/>
      <point x="308.0" y="109.9"/>
      <point x="302.0" y="86.4" type="curve"/>
      <point x="296.0" y="109.9"/>
      <point x="286.3" y="156.4"/>
      <point x="272.2" y="198.3" type="curve" smooth="yes"/>
      <point x="152.6" y="550.0" type="line"/>
      <point x="41.0" y="550.0" type="line"/>
    </contour>
  </outline>
</glyph>
<glyph name="w" format="2">
  <advance width="600.0"/>
  <unicode hex="0077"/>
  <anchor x="300.0" y="0.0" name="bottom"/>
  <anchor x="300.0" y="550.0" name="top"/>
  <outline>
    <contour>
      <point x="113.1" y="0.0" type="line"/>
      <point x="227.7" y="0.0" type="line"/>
      <point x="283.7" y="359.0" type="line" smooth="yes"/>
      <point x="289.4" y="396.0"/>
      <point x="294.7" y="442.7"/>
      <point x="297.3" y="468.6" type="curve"/>
      <point x="301.6" y="468.6" type="line"/>
      <point x="303.9" y="442.7"/>
      <point x="310.2" y="396.0"/>
      <point x="315.9" y="359.0" type="curve" smooth="yes"/>
      <point x="369.5" y="0.0" type="line"/>
      <point x="483.8" y="0.0" type="line"/>
      <point x="572.5" y="550.0" type="line"/>
      <point x="487.1" y="550.0" type="line"/>
      <point x="434.6" y="187.0" type="line" smooth="yes"/>
      <point x="430.0" y="152.9"/>
      <point x="425.6" y="107.0"/>
      <point x="422.6" y="80.5" type="curve"/>
      <point x="418.0" y="80.5" type="line"/>
      <point x="415.4" y="107.4"/>
      <point x="410.4" y="152.5"/>
      <point x="404.8" y="187.0" type="curve" smooth="yes"/>
      <point x="348.9" y="550.0" type="line"/>
      <point x="251.7" y="550.0" type="line"/>
      <point x="195.2" y="187.0" type="line" smooth="yes"/>
      <point x="189.6" y="152.6"/>
      <point x="184.6" y="107.3"/>
      <point x="182.0" y="80.8" type="curve"/>
      <point x="177.4" y="80.8" type="line"/>
      <point x="175.1" y="107.0"/>
      <point x="171.7" y="153.5"/>
      <point x="167.1" y="187.0" type="curve" smooth="yes"/>
      <point x="116.6" y="550.0" type="line"/>
      <point x="27.5" y="550.0" type="line"/>
    </contour>
  </outline>
</glyph>
<glyph name="x" format="2">
  <advance width="600.0"/>
  <unicode hex="0078"/>
  <anchor x="300.0" y="0.0" name="bottom"/>
  <anchor x="300.0" y="550.0" name="top"/>
  <outline>
    <contour>
      <point x="42.8" y="0.0" type="line"/>
      <point x="166.4" y="0.0" type="line"/>
      <point x="274.0" y="165.0" type="line" smooth="yes"/>
      <point x="284.3" y="180.9"/>
      <point x="295.0" y="203.5"/>
      <point x="300.7" y="215.8" type="curve"/>
      <point x="306.4" y="203.5"/>
      <point x="316.0" y="180.9"/>
      <point x="326.3" y="165.0" type="curve" smooth="yes"/>
      <point x="432.9" y="0.0" type="line"/>
      <point x="557.2" y="0.0" type="line"/>
      <point x="364.7" y="282.9" type="line"/>
      <point x="545.6" y="550.0" type="line"/>
      <point x="422.0" y="550.0" type="line"/>
      <point x="324.6" y="398.0" type="line" smooth="yes"/>
      <point x="314.6" y="382.1"/>
      <point x="305.0" y="361.6"/>
      <point x="300.7" y="350.0" type="curve"/>
      <point x="295.7" y="361.6"/>
      <point x="285.7" y="382.1"/>
      <point x="276.1" y="398.0" type="curve" smooth="yes"/>
      <point x="179.4" y="550.0" type="line"/>
      <point x="55.1" y="550.0" type="line"/>
      <point x="236.3" y="283.6" type="line"/>
    </contour>
  </outline>
</glyph>
<glyph name="y" format="2">
  <advance width="600.0"/>
  <unicode hex="0079"/>
  <anchor x="300.0" y="0.0" name="bottom"/>
  <anchor x="300.0" y="550.0" name="top"/>
  <outline>
    <contour>
      <point x="172.4" y="-180.0" type="line"/>
      <point x="285.3" y="-180.0" type="line"/>
      <point x="559.3" y="550.0" type="line"/>
      <point x="446.7" y="550.0" type="line"/>
      <point x="333.1" y="240.0" type="line" smooth="yes"/>
      <point x="322.9" y="213.1"/>
      <point x="311.3" y="169.9"/>
      <point x="305.7" y="145.6" type="curve"/>
      <point x="300.1" y="169.9"/>
      <point x="289.2" y="213.1"/>
      <point x="279.0" y="240.0" type="curve" smooth="yes"/>
      <point x="158.2" y="550.0" type="line"/>
      <point x="40.7" y="550.0" type="line"/>
      <point x="251.6" y="31.9" type="line"/>
    </contour>
  </outline>
</glyph>
<glyph name="z" format="2">
  <advance width="600.0"/>
  <unicode hex="007A"/>
  <anchor x="300.0" y="0.0" name="bottom"/>
  <anchor x="300.0" y="275.0" name="center"/>
  <anchor x="300.0" y="550.0" name="top"/>
  <outline>
    <contour>
      <point x="84.0" y="0.0" type="line"/>
      <point x="516.0" y="0.0" type="line"/>
      <point x="516.0" y="96.4" type="line"/>
      <point x="203.6" y="96.4" type="line"/>
      <point x="505.0" y="448.0" type="line"/>
      <point x="505.0" y="550.0" type="line"/>
      <point x="92.6" y="550.0" type="line"/>
      <point x="92.6" y="453.6" type="line"/>
      <point x="381.2" y="453.6" type="line"/>
      <point x="84.0" y="102.0" type="line"/>
    </contour>
  </outline>
</glyph>
<glyph name="braceleft" format="2">
  <advance width="600.0"/>
  <unicode hex="007B"/>
  <outline>
    <contour>
      <point x="451.0" y="-110.3" type="curve" smooth="yes"/>
      <point x="508.0" y="-110.3" type="line"/>
      <point x="508.0" y="-12.3" type="line"/>
      <point x="460.0" y="-12.3" type="line" smooth="yes"/>
      <point x="403.9" y="-12.3"/>
      <point x="370.8" y="15.2"/>
      <point x="375.5" y="65.9" type="curve" smooth="yes"/>
      <point x="390.5" y="225.7" type="line" smooth="yes"/>
      <point x="398.2" y="308.1"/>
      <point x="341.5" y="366.1"/>
      <point x="253.0" y="366.1" type="curve"/>
      <point x="253.0" y="360.5" type="line"/>
      <point x="342.2" y="360.5"/>
      <point x="398.2" y="411.2"/>
      <point x="390.5" y="493.7" type="curve" smooth="yes"/>
      <point x="375.5" y="653.8" type="line" smooth="yes"/>
      <point x="371.1" y="704.5"/>
      <point x="404.2" y="732.0"/>
      <point x="460.0" y="732.0" type="curve" smooth="yes"/>
      <point x="508.0" y="732.0" type="line"/>
      <point x="508.0" y="830.0" type="line"/>
      <point x="451.0" y="830.0" type="line" smooth="yes"/>
      <point x="333.0" y="830.0"/>
      <point x="257.2" y="765.4"/>
      <point x="267.5" y="659.8" type="curve" smooth="yes"/>
      <point x="282.5" y="499.7" type="line" smooth="yes"/>
      <point x="287.9" y="437.4"/>
      <point x="267.4" y="408.7"/>
      <point x="194.5" y="408.7" type="curve" smooth="yes"/>
      <point x="72.0" y="408.7" type="line"/>
      <point x="72.0" y="310.7" type="line"/>
      <point x="194.5" y="310.7" type="line" smooth="yes"/>
      <point x="266.7" y="310.7"/>
      <point x="287.9" y="282.0"/>
      <point x="282.5" y="219.7" type="curve" smooth="yes"/>
      <point x="267.5" y="61.4" type="line" smooth="yes"/>
      <point x="256.9" y="-45.1"/>
      <point x="332.7" y="-110.3"/>
    </contour>
  </outline>
</glyph>
<glyph name="bar" format="2">
  <advance width="600.0"/>
  <unicode hex="007C"/>
  <outline>
    <contour>
      <point x="246.0" y="-110.0" type="line"/>
      <point x="354.0" y="-110.0" type="line"/>
      <point x="354.0" y="830.0" type="line"/>
      <point x="246.0" y="830.0" type="line"/>
    </contour>
  </outline>
</glyph>
<glyph name="braceright" format="2">
  <advance width="600.0"/>
  <unicode hex="007D"/>
  <outline>
    <contour>
      <point x="92.0" y="-110.3" type="line"/>
      <point x="149.0" y="-110.3" type="line" smooth="yes"/>
      <point x="267.0" y="-110.3"/>
      <point x="343.1" y="-45.1"/>
      <point x="332.5" y="61.4" type="curve" smooth="yes"/>
      <point x="317.5" y="219.7" type="line" smooth="yes"/>
      <point x="312.1" y="282.0"/>
      <point x="333.3" y="310.7"/>
      <point x="405.5" y="310.7" type="curve" smooth="yes"/>
      <point x="528.0" y="310.7" type="line"/>
      <point x="528.0" y="408.7" type="line"/>
      <point x="405.5" y="408.7" type="line" smooth="yes"/>
      <point x="332.6" y="408.7"/>
      <point x="312.1" y="437.4"/>
      <point x="317.5" y="499.7" type="curve" smooth="yes"/>
      <point x="332.5" y="659.8" type="line" smooth="yes"/>
      <point x="342.8" y="765.4"/>
      <point x="266.7" y="830.0"/>
      <point x="149.0" y="830.0" type="curve" smooth="yes"/>
      <point x="92.0" y="830.0" type="line"/>
      <point x="92.0" y="732.0" type="line"/>
      <point x="140.0" y="732.0" type="line" smooth="yes"/>
      <point x="195.8" y="732.0"/>
      <point x="228.9" y="704.5"/>
      <point x="224.5" y="653.8" type="curve" smooth="yes"/>
      <point x="209.5" y="493.7" type="line" smooth="yes"/>
      <point x="201.8" y="411.2"/>
      <point x="257.8" y="361.2"/>
      <point x="347.0" y="361.2" type="curve"/>
      <point x="347.0" y="366.8" type="line"/>
      <point x="258.5" y="366.8"/>
      <point x="201.8" y="308.1"/>
      <point x="209.5" y="225.7" type="curve" smooth="yes"/>
      <point x="224.5" y="65.9" type="line" smooth="yes"/>
      <point x="229.2" y="15.2"/>
      <point x="196.1" y="-12.3"/>
      <point x="140.0" y="-12.3" type="curve" smooth="yes"/>
      <point x="92.0" y="-12.3" type="line"/>
    </contour>
  </outline>
</glyph>
<glyph name="asciitilde" format="2">
  <advance width="600.0"/>
  <unicode hex="007E"/>
  <outline>
    <contour>
      <point x="61.0" y="255.0" type="line"/>
      <point x="156.5" y="255.0" type="line"/>
      <point x="156.5" y="326.5" type="line" smooth="yes"/>
      <point x="156.5" y="358.3"/>
      <point x="171.7" y="375.5"/>
      <point x="199.0" y="375.5" type="curve" smooth="yes"/>
      <point x="267.0" y="375.5"/>
      <point x="270.5" y="242.5"/>
      <point x="401.5" y="242.5" type="curve" smooth="yes"/>
      <point x="484.6" y="242.5"/>
      <point x="539.0" y="296.1"/>
      <point x="539.0" y="375.5" type="curve" smooth="yes"/>
      <point x="539.0" y="450.0" type="line"/>
      <point x="443.5" y="450.0" type="line"/>
      <point x="443.5" y="378.5" type="line" smooth="yes"/>
      <point x="443.5" y="346.7"/>
      <point x="428.3" y="329.5"/>
      <point x="401.0" y="329.5" type="curve" smooth="yes"/>
      <point x="333.0" y="329.5"/>
      <point x="329.5" y="462.5"/>
      <point x="198.5" y="462.5" type="curve" smooth="yes"/>
      <point x="115.7" y="462.5"/>
      <point x="61.0" y="409.6"/>
      <point x="61.0" y="329.5" type="curve" smooth="yes"/>
    </contour>
  </outline>
</glyph>
<glyph name="exclamdown" format="2">
  <advance width="600.0"/>
  <unicode hex="00A1"/>
  <outline>
    <contour>
      <point x="239.2" y="-180.0" type="line"/>
      <point x="360.8" y="-180.0" type="line"/>
      <point x="360.8" y="-44.5" type="line"/>
      <point x="339.2" y="326.7" type="line"/>
      <point x="260.8" y="326.7" type="line"/>
      <point x="239.2" y="-44.5" type="line"/>
    </contour>
    <contour>
      <point x="288.5" y="429.7" type="curve" smooth="yes"/>
      <point x="311.5" y="429.7" type="line" smooth="yes"/>
      <point x="352.3" y="429.7"/>
      <point x="379.5" y="455.6"/>
      <point x="379.5" y="494.1" type="curve" smooth="yes"/>
      <point x="379.5" y="531.9"/>
      <point x="352.3" y="555.7"/>
      <point x="311.5" y="555.7" type="curve" smooth="yes"/>
      <point x="288.8" y="555.7" type="line" smooth="yes"/>
      <point x="247.7" y="555.7"/>
      <point x="220.5" y="531.5"/>
      <point x="220.5" y="493.7" type="curve" smooth="yes"/>
      <point x="220.5" y="455.6"/>
      <point x="247.7" y="429.7"/>
    </contour>
  </outline>
</glyph>
<glyph name="sterling" format="2">
  <advance width="600.0"/>
  <unicode hex="00A3"/>
  <outline>
    <contour>
      <point x="75.0" y="0.0" type="line"/>
      <point x="535.0" y="0.0" type="line"/>
      <point x="535.0" y="98.0" type="line"/>
      <point x="165.0" y="98.0" type="line"/>
      <point x="217.4" y="120.6"/>
      <point x="287.0" y="182.0"/>
      <point x="287.0" y="269.0" type="curve" smooth="yes"/>
      <point x="287.0" y="428.0"/>
      <point x="184.8" y="446.9"/>
      <point x="184.8" y="544.6" type="curve" smooth="yes"/>
      <point x="184.8" y="606.5"/>
      <point x="226.1" y="645.0"/>
      <point x="298.1" y="645.0" type="curve" smooth="yes"/>
      <point x="366.0" y="645.0"/>
      <point x="410.4" y="604.1"/>
      <point x="411.9" y="544.0" type="curve"/>
      <point x="523.4" y="544.0" type="line"/>
      <point x="519.3" y="664.5"/>
      <point x="435.0" y="740.0"/>
      <point x="300.0" y="740.0" type="curve" smooth="yes"/>
      <point x="163.0" y="740.0"/>
      <point x="76.1" y="663.2"/>
      <point x="76.1" y="550.5" type="curve" smooth="yes"/>
      <point x="76.1" y="424.2"/>
      <point x="184.0" y="401.0"/>
      <point x="184.0" y="260.0" type="curve" smooth="yes"/>
      <point x="184.0" y="210.0"/>
      <point x="122.0" y="149.9"/>
      <point x="75.0" y="118.0" type="curve"/>
    </contour>
    <contour>
      <point x="72.0" y="299.0" type="line"/>
      <point x="435.0" y="299.0" type="line"/>
      <point x="435.0" y="391.0" type="line"/>
      <point x="72.0" y="391.0" type="line"/>
    </contour>
  </outline>
</glyph>
<glyph name="currency" format="2">
  <advance width="600.0"/>
  <unicode hex="00A4"/>
  <outline>
    <contour>
      <point x="494.4" y="112.1" type="line"/>
      <point x="559.8" y="177.2" type="line"/>
      <point x="474.2" y="262.8" type="line"/>
      <point x="493.6" y="294.5"/>
      <point x="505.0" y="331.9"/>
      <point x="505.0" y="373.0" type="curve" smooth="yes"/>
      <point x="505.0" y="413.1"/>
      <point x="494.3" y="450.5"/>
      <point x="475.2" y="481.9" type="curve"/>
      <point x="558.5" y="565.5" type="line"/>
      <point x="494.8" y="629.2" type="line"/>
      <point x="410.8" y="544.9" type="line"/>
      <point x="379.8" y="564.3"/>
      <point x="342.4" y="575.0"/>
      <point x="301.0" y="575.0" type="curve" smooth="yes"/>
      <point x="261.3" y="575.0"/>
      <point x="225.3" y="565.0"/>
      <point x="194.6" y="547.3" type="curve"/>
      <point x="106.6" y="635.3" type="line"/>
      <point x="41.5" y="569.9" type="line"/>
      <point x="127.5" y="483.6" type="line"/>
      <point x="106.4" y="452.2"/>
      <point x="95.0" y="414.8"/>
      <point x="95.0" y="373.0" type="curve" smooth="yes"/>
      <point x="95.0" y="331.6"/>
      <point x="106.7" y="293.2"/>
      <point x="127.1" y="262.2" type="curve"/>
      <point x="43.5" y="177.9" type="line"/>
      <point x="107.9" y="113.5" type="line"/>
      <point x="193.5" y="199.1" type="line"/>
      <point x="224.2" y="180.7"/>
      <point x="260.9" y="171.0"/>
      <point x="301.0" y="171.0" type="curve" smooth="yes"/>
      <point x="340.4" y="171.0"/>
      <point x="377.1" y="180.7"/>
      <point x="407.1" y="199.1" type="curve"/>
    </contour>
    <contour>
      <point x="301.0" y="247.8" type="curve" smooth="yes"/>
      <point x="230.5" y="247.8"/>
      <point x="176.8" y="301.5"/>
      <point x="176.8" y="373.0" type="curve" smooth="yes"/>
      <point x="176.8" y="444.5"/>
      <point x="230.5" y="498.2"/>
      <point x="301.0" y="498.2" type="curve" smooth="yes"/>
      <point x="370.5" y="498.2"/>
      <point x="423.2" y="444.5"/>
      <point x="423.2" y="373.0" type="curve" smooth="yes"/>
      <point x="423.2" y="301.5"/>
      <point x="370.5" y="247.8"/>
    </contour>
  </outline>
</glyph>
<glyph name="brokenbar" format="2">
  <advance width="600.0"/>
  <unicode hex="00A6"/>
  <outline>
    <contour>
      <point x="246.0" y="450.0" type="line"/>
      <point x="354.0" y="450.0" type="line"/>
      <point x="354.0" y="830.0" type="line"/>
      <point x="246.0" y="830.0" type="line"/>
    </contour>
    <contour>
      <point x="246.0" y="-110.0" type="line"/>
      <point x="354.0" y="-110.0" type="line"/>
      <point x="354.0" y="270.0" type="line"/>
      <point x="246.0" y="270.0" type="line"/>
    </contour>
  </outline>
</glyph>
<glyph name="section" format="2">
  <advance width="600.0"/>
  <unicode hex="00A7"/>
  <outline>
    <contour>
      <point x="284.7" y="-154.3" type="curve" smooth="yes"/>
      <point x="314.7" y="-154.3" type="line" smooth="yes"/>
      <point x="452.3" y="-154.3"/>
      <point x="532.6" y="-88.7"/>
      <point x="532.6" y="16.2" type="curve" smooth="yes"/>
      <point x="532.6" y="117.3"/>
      <point x="454.4" y="161.8"/>
      <point x="395.5" y="166.6" type="curve"/>
      <point x="395.5" y="173.6" type="line"/>
      <point x="478.8" y="175.7"/>
      <point x="531.2" y="232.8"/>
      <point x="531.2" y="309.8" type="curve" smooth="yes"/>
      <point x="531.2" y="390.8"/>
      <point x="470.8" y="453.0"/>
      <point x="368.9" y="474.5" type="curve" smooth="yes"/>
      <point x="275.0" y="494.4" type="line" smooth="yes"/>
      <point x="218.2" y="506.5"/>
      <point x="186.7" y="536.2"/>
      <point x="186.7" y="575.6" type="curve" smooth="yes"/>
      <point x="186.7" y="621.1"/>
      <point x="223.1" y="650.4"/>
      <point x="287.5" y="650.4" type="curve" smooth="yes"/>
      <point x="317.5" y="650.4" type="line" smooth="yes"/>
      <point x="368.0" y="650.4"/>
      <point x="405.7" y="626.5"/>
      <point x="414.2" y="592.9" type="curve"/>
      <point x="525.7" y="592.9" type="line"/>
      <point x="512.3" y="682.9"/>
      <point x="431.8" y="740.0"/>
      <point x="317.5" y="740.0" type="curve" smooth="yes"/>
      <point x="287.5" y="740.0" type="line" smooth="yes"/>
      <point x="156.8" y="740.0"/>
      <point x="79.5" y="675.8"/>
      <point x="79.5" y="575.1" type="curve" smooth="yes"/>
      <point x="79.5" y="473.6"/>
      <point x="153.2" y="431.4"/>
      <point x="209.3" y="428.2" type="curve"/>
      <point x="209.3" y="421.2" type="line"/>
      <point x="130.2" y="413.9"/>
      <point x="76.7" y="357.4"/>
      <point x="76.7" y="280.8" type="curve" smooth="yes"/>
      <point x="76.7" y="202.2"/>
      <point x="139.8" y="139.0"/>
      <point x="238.4" y="119.2" type="curve" smooth="yes"/>
      <point x="330.7" y="99.9" type="line" smooth="yes"/>
      <point x="394.4" y="86.5"/>
      <point x="425.4" y="58.5"/>
      <point x="425.4" y="15.3" type="curve" smooth="yes"/>
      <point x="425.4" y="-32.8"/>
      <point x="385.9" y="-64.7"/>
      <point x="314.7" y="-64.7" type="curve" smooth="yes"/>
      <point x="284.7" y="-64.7" type="line" smooth="yes"/>
      <point x="232.0" y="-64.7"/>
      <point x="189.7" y="-38.3"/>
      <point x="178.9" y="0.6" type="curve"/>
      <point x="67.4" y="0.6" type="line"/>
      <point x="81.8" y="-93.8"/>
      <point x="166.4" y="-154.3"/>
    </contour>
    <contour>
      <point x="325.2" y="191.6" type="curve" smooth="yes"/>
      <point x="255.5" y="205.4" type="line" smooth="yes"/>
      <point x="212.5" y="213.8"/>
      <point x="183.6" y="252.0"/>
      <point x="183.6" y="301.2" type="curve" smooth="yes"/>
      <point x="183.6" y="367.1"/>
      <point x="222.5" y="414.1"/>
      <point x="279.4" y="402.4" type="curve" smooth="yes"/>
      <point x="347.7" y="388.3" type="line" smooth="yes"/>
      <point x="393.2" y="378.6"/>
      <point x="424.0" y="341.5"/>
      <point x="424.0" y="295.7" type="curve" smooth="yes"/>
      <point x="424.0" y="228.0"/>
      <point x="383.9" y="179.6"/>
    </contour>
  </outline>
</glyph>
<glyph name="copyright" format="2">
  <advance width="600.0"/>
  <unicode hex="00A9"/>
  <outline>
    <contour>
      <point x="300.0" y="110.0" type="curve" smooth="yes"/>
      <point x="453.0" y="110.0"/>
      <point x="555.0" y="206.0"/>
      <point x="555.0" y="350.0" type="curve" smooth="yes"/>
      <point x="555.0" y="500.0" type="line" smooth="yes"/>
      <point x="555.0" y="644.0"/>
      <point x="453.0" y="740.0"/>
      <point x="300.0" y="740.0" type="curve" smooth="yes"/>
      <point x="147.0" y="740.0"/>
      <point x="45.0" y="644.0"/>
      <point x="45.0" y="500.0" type="curve" smooth="yes"/>
      <point x="45.0" y="350.0" type="line" smooth="yes"/>
      <point x="45.0" y="206.0"/>
      <point x="147.0" y="110.0"/>
    </contour>
    <contour>
      <point x="300.0" y="160.0" type="curve" smooth="yes"/>
      <point x="181.0" y="160.0"/>
      <point x="100.0" y="236.0"/>
      <point x="100.0" y="350.0" type="curve" smooth="yes"/>
      <point x="100.0" y="500.0" type="line" smooth="yes"/>
      <point x="100.0" y="614.0"/>
      <point x="181.0" y="690.0"/>
      <point x="300.0" y="690.0" type="curve" smooth="yes"/>
      <point x="420.0" y="690.0"/>
      <point x="500.0" y="614.0"/>
      <point x="500.0" y="500.0" type="curve" smooth="yes"/>
      <point x="500.0" y="350.0" type="line" smooth="yes"/>
      <point x="500.0" y="236.0"/>
      <point x="420.0" y="160.0"/>
    </contour>
    <contour>
      <point x="305.0" y="245.0" type="curve" smooth="yes"/>
      <point x="380.8" y="245.0"/>
      <point x="432.0" y="292.2"/>
      <point x="432.0" y="363.0" type="curve"/>
      <point x="361.0" y="363.0" type="line"/>
      <point x="361.0" y="328.8"/>
      <point x="338.2" y="306.0"/>
      <point x="305.0" y="306.0" type="curve" smooth="yes"/>
      <point x="270.8" y="306.0"/>
      <point x="248.0" y="328.8"/>
      <point x="248.0" y="363.0" type="curve" smooth="yes"/>
      <point x="248.0" y="487.0" type="line" smooth="yes"/>
      <point x="248.0" y="521.2"/>
      <point x="270.8" y="544.0"/>
      <point x="305.0" y="544.0" type="curve" smooth="yes"/>
      <point x="338.2" y="544.0"/>
      <point x="361.0" y="521.2"/>
      <point x="361.0" y="487.0" type="curve"/>
      <point x="432.0" y="487.0" type="line"/>
      <point x="432.0" y="557.8"/>
      <point x="380.8" y="605.0"/>
      <point x="305.0" y="605.0" type="curve" smooth="yes"/>
      <point x="228.2" y="605.0"/>
      <point x="177.0" y="557.8"/>
      <point x="177.0" y="487.0" type="curve" smooth="yes"/>
      <point x="177.0" y="363.0" type="line" smooth="yes"/>
      <point x="177.0" y="292.2"/>
      <point x="228.2" y="245.0"/>
    </contour>
  </outline>
</glyph>
<glyph name="ordfeminine" format="2">
  <advance width="600.0"/>
  <unicode hex="00AA"/>
  <outline>
    <contour>
      <point x="367.0" y="455.0" type="line"/>
      <point x="423.0" y="455.0" type="line"/>
      <point x="423.0" y="650.0" type="line" smooth="yes"/>
      <point x="423.0" y="705.4"/>
      <point x="377.2" y="740.0"/>
      <point x="305.0" y="740.0" type="curve" smooth="yes"/>
      <point x="239.3" y="740.0"/>
      <point x="194.9" y="709.5"/>
      <point x="187.0" y="658.5" type="curve"/>
      <point x="246.0" y="658.5" type="line"/>
      <point x="249.4" y="679.8"/>
      <point x="273.0" y="694.0"/>
      <point x="305.0" y="694.0" type="curve" smooth="yes"/>
      <point x="341.1" y="694.0"/>
      <point x="364.0" y="677.1"/>
      <point x="364.0" y="650.0" type="curve" smooth="yes"/>
      <point x="364.0" y="510.0" type="line"/>
      <point x="367.0" y="510.0" type="line"/>
    </contour>
    <contour>
      <point x="271.0" y="450.0" type="curve" smooth="yes"/>
      <point x="314.9" y="450.0"/>
      <point x="349.7" y="472.7"/>
      <point x="364.0" y="510.0" type="curve"/>
      <point x="375.0" y="510.0" type="line"/>
      <point x="375.0" y="555.0" type="line"/>
      <point x="364.0" y="555.0" type="line"/>
      <point x="364.0" y="516.6"/>
      <point x="334.5" y="493.1"/>
      <point x="287.0" y="493.1" type="curve" smooth="yes"/>
      <point x="253.2" y="493.1"/>
      <point x="231.0" y="510.2"/>
      <point x="231.0" y="537.2" type="curve" smooth="yes"/>
      <point x="231.0" y="563.4"/>
      <point x="249.2" y="579.2"/>
      <point x="280.0" y="579.2" type="curve" smooth="yes"/>
      <point x="375.0" y="579.2" type="line"/>
      <point x="375.0" y="622.2" type="line"/>
      <point x="280.0" y="622.2" type="line" smooth="yes"/>
      <point x="213.8" y="622.2"/>
      <point x="172.0" y="588.6"/>
      <point x="172.0" y="536.6" type="curve" smooth="yes"/>
      <point x="172.0" y="484.3"/>
      <point x="211.3" y="450.0"/>
    </contour>
  </outline>
</glyph>
<glyph name="guillemetleft" format="2">
  <advance width="600.0"/>
  <unicode hex="00AB"/>
  <outline>
    <contour>
      <point x="453.9" y="40.0" type="line"/>
      <point x="574.5" y="40.0" type="line"/>
      <point x="379.9" y="282.0" type="line"/>
      <point x="574.5" y="520.0" type="line"/>
      <point x="453.8" y="520.0" type="line"/>
      <point x="263.6" y="280.0" type="line"/>
    </contour>
    <contour>
      <point x="215.8" y="40.0" type="line"/>
      <point x="336.4" y="40.0" type="line"/>
      <point x="141.8" y="282.0" type="line"/>
      <point x="336.4" y="520.0" type="line"/>
      <point x="215.7" y="520.0" type="line"/>
      <point x="25.5" y="280.0" type="line"/>
    </contour>
  </outline>
</glyph>
<glyph name="logicalnot" format="2">
  <advance width="600.0"/>
  <unicode hex="00AC"/>
  <outline>
    <contour>
      <point x="425.5" y="196.0" type="line"/>
      <point x="530.0" y="196.0" type="line"/>
      <point x="530.0" y="425.5" type="line"/>
      <point x="70.0" y="425.5" type="line"/>
      <point x="70.0" y="327.5" type="line"/>
      <point x="425.5" y="327.5" type="line"/>
    </contour>
  </outline>
</glyph>
<glyph name="registered" format="2">
  <advance width="600.0"/>
  <unicode hex="00AE"/>
  <outline>
    <contour>
      <point x="300.0" y="110.0" type="curve" smooth="yes"/>
      <point x="453.0" y="110.0"/>
      <point x="555.0" y="206.0"/>
      <point x="555.0" y="350.0" type="curve" smooth="yes"/>
      <point x="555.0" y="500.0" type="line" smooth="yes"/>
      <point x="555.0" y="644.0"/>
      <point x="453.0" y="740.0"/>
      <point x="300.0" y="740.0" type="curve" smooth="yes"/>
      <point x="147.0" y="740.0"/>
      <point x="45.0" y="644.0"/>
      <point x="45.0" y="500.0" type="curve" smooth="yes"/>
      <point x="45.0" y="350.0" type="line" smooth="yes"/>
      <point x="45.0" y="206.0"/>
      <point x="147.0" y="110.0"/>
    </contour>
    <contour>
      <point x="100.0" y="350.0" type="curve" smooth="yes"/>
      <point x="100.0" y="500.0" type="line" smooth="yes"/>
      <point x="100.0" y="614.0"/>
      <point x="181.0" y="690.0"/>
      <point x="300.0" y="690.0" type="curve" smooth="yes"/>
      <point x="420.0" y="690.0"/>
      <point x="500.0" y="614.0"/>
      <point x="500.0" y="500.0" type="curve" smooth="yes"/>
      <point x="500.0" y="350.0" type="line" smooth="yes"/>
      <point x="500.0" y="236.0"/>
      <point x="420.0" y="160.0"/>
      <point x="300.0" y="160.0" type="curve" smooth="yes"/>
      <point x="181.0" y="160.0"/>
      <point x="100.0" y="236.0"/>
    </contour>
    <contour>
      <point x="187.0" y="250.0" type="line"/>
      <point x="253.0" y="250.0" type="line"/>
      <point x="253.0" y="388.5" type="line"/>
      <point x="302.8075" y="388.5" type="line"/>
      <point x="360.0" y="250.0" type="line"/>
      <point x="430.0" y="250.0" type="line"/>
      <point x="365.1494" y="400.2474" type="line"/>
      <point x="402.2558" y="416.57800000000003"/>
      <point x="424.0" y="449.4247"/>
      <point x="424.0" y="493.5" type="curve" smooth="yes"/>
      <point x="424.0" y="558.1"/>
      <point x="377.2" y="600.0"/>
      <point x="304.0" y="600.0" type="curve" smooth="yes"/>
      <point x="187.0" y="600.0" type="line"/>
    </contour>
    <contour>
      <point x="253.0" y="443.0" type="line"/>
      <point x="253.0" y="547.0" type="line"/>
      <point x="304.0" y="547.0" type="line" smooth="yes"/>
      <point x="336.9" y="547.0"/>
      <point x="357.0" y="527.6"/>
      <point x="357.0" y="495.0" type="curve" smooth="yes"/>
      <point x="357.0" y="462.4"/>
      <point x="336.9" y="443.0"/>
      <point x="304.0" y="443.0" type="curve" smooth="yes"/>
    </contour>
  </outline>
</glyph>
<glyph name="degree" format="2">
  <advance width="600.0"/>
  <unicode hex="00B0"/>
  <outline>
    <contour>
      <point x="300.0" y="450.0" type="curve" smooth="yes"/>
      <point x="390.0" y="450.0"/>
      <point x="450.0" y="508.0"/>
      <point x="450.0" y="595.0" type="curve" smooth="yes"/>
      <point x="450.0" y="682.0"/>
      <point x="390.0" y="740.0"/>
      <point x="300.0" y="740.0" type="curve" smooth="yes"/>
      <point x="210.0" y="740.0"/>
      <point x="150.0" y="682.0"/>
      <point x="150.0" y="595.0" type="curve" smooth="yes"/>
      <point x="150.0" y="508.0"/>
      <point x="210.0" y="450.0"/>
    </contour>
    <contour>
      <point x="299.3" y="505.2" type="curve" smooth="yes"/>
      <point x="248.7" y="505.2"/>
      <point x="214.5" y="541.4"/>
      <point x="214.5" y="595.0" type="curve" smooth="yes"/>
      <point x="214.5" y="649.3"/>
      <point x="248.7" y="685.5"/>
      <point x="299.3" y="685.5" type="curve" smooth="yes"/>
      <point x="351.3" y="685.5"/>
      <point x="385.5" y="649.3"/>
      <point x="385.5" y="595.0" type="curve" smooth="yes"/>
      <point x="385.5" y="541.4"/>
      <point x="351.3" y="505.2"/>
    </contour>
  </outline>
</glyph>
<glyph name="plusminus" format="2">
  <advance width="600.0"/>
  <unicode hex="00B1"/>
  <outline>
    <contour>
      <point x="68.5" y="0.0" type="line"/>
      <point x="531.5" y="0.0" type="line"/>
      <point x="531.5" y="82.3" type="line"/>
      <point x="354.8" y="82.3" type="line"/>
      <point x="354.8" y="284.5" type="line"/>
      <point x="539.5" y="284.5" type="line"/>
      <point x="539.5" y="382.5" type="line"/>
      <point x="354.8" y="382.5" type="line"/>
      <point x="354.8" y="570.0" type="line"/>
      <point x="248.2" y="570.0" type="line"/>
      <point x="248.2" y="382.5" type="line"/>
      <point x="63.5" y="382.5" type="line"/>
      <point x="63.5" y="284.5" type="line"/>
      <point x="248.2" y="284.5" type="line"/>
      <point x="248.2" y="82.3" type="line"/>
      <point x="68.5" y="82.3" type="line"/>
    </contour>
  </outline>
</glyph>
<glyph name="twosuperior" format="2">
  <advance width="600.0"/>
  <unicode hex="00B2"/>
  <outline>
    <contour>
      <point x="162.1" y="405.0" type="line"/>
      <point x="458.9" y="405.0" type="line"/>
      <point x="458.9" y="474.7" type="line"/>
      <point x="245.1" y="474.7" type="line"/>
      <point x="367.7" y="561.6" type="line" smooth="yes"/>
      <point x="417.9" y="596.7"/>
      <point x="449.4" y="648.9"/>
      <point x="449.4" y="697.1" type="curve" smooth="yes"/>
      <point x="449.4" y="784.4"/>
      <point x="391.3" y="840.0"/>
      <point x="299.2" y="840.0" type="curve" smooth="yes"/>
      <point x="209.9" y="840.0"/>
      <point x="151.1" y="783.7"/>
      <point x="148.3" y="695.4" type="curve"/>
      <point x="225.8" y="695.4" type="line"/>
      <point x="225.8" y="742.1"/>
      <point x="254.6" y="771.3"/>
      <point x="299.2" y="771.3" type="curve" smooth="yes"/>
      <point x="343.8" y="771.3"/>
      <point x="372.6" y="742.1"/>
      <point x="372.6" y="695.4" type="curve" smooth="yes"/>
      <point x="372.6" y="665.7"/>
      <point x="355.2" y="634.3"/>
      <point x="327.7" y="614.8" type="curve" smooth="yes"/>
      <point x="162.1" y="495.0" type="line"/>
    </contour>
  </outline>
</glyph>
<glyph name="threesuperior" format="2">
  <advance width="600.0"/>
  <unicode hex="00B3"/>
  <outline>
    <contour>
      <point x="284.0" y="395.0" type="curve" smooth="yes"/>
      <point x="376.5" y="395.0"/>
      <point x="435.9" y="449.6"/>
      <point x="435.9" y="537.1" type="curve" smooth="yes"/>
      <point x="435.9" y="618.5"/>
      <point x="379.6" y="670.5"/>
      <point x="293.1" y="670.5" type="curve"/>
      <point x="293.1" y="640.4" type="line"/>
      <point x="408.6" y="748.7" type="line"/>
      <point x="408.6" y="830.7" type="line"/>
      <point x="161.4" y="830.7" type="line"/>
      <point x="161.4" y="761.0" type="line"/>
      <point x="343.8" y="761.0" type="line"/>
      <point x="255.0" y="677.1" type="line"/>
      <point x="255.0" y="610.4" type="line"/>
      <point x="285.0" y="610.4" type="line" smooth="yes"/>
      <point x="329.2" y="610.4"/>
      <point x="357.0" y="582.6"/>
      <point x="357.0" y="537.1" type="curve" smooth="yes"/>
      <point x="357.0" y="491.0"/>
      <point x="329.2" y="463.7"/>
      <point x="284.0" y="463.7" type="curve" smooth="yes"/>
      <point x="237.1" y="463.7"/>
      <point x="208.0" y="491.0"/>
      <point x="208.0" y="536.5" type="curve"/>
      <point x="131.2" y="536.5" type="line"/>
      <point x="131.2" y="449.6"/>
      <point x="190.9" y="395.0"/>
    </contour>
  </outline>
</glyph>
<glyph name="paragraph" format="2">
  <advance width="600.0"/>
  <unicode hex="00B6"/>
  <outline>
    <contour>
      <point x="250.5" y="-180.0" type="line"/>
      <point x="339.5" y="-180.0" type="line"/>
      <point x="339.5" y="730.0" type="line"/>
      <point x="250.5" y="730.0" type="line" smooth="yes"/>
      <point x="136.5" y="730.0"/>
      <point x="60.5" y="662.0"/>
      <point x="60.5" y="560.0" type="curve" smooth="yes"/>
      <point x="60.5" y="480.0" type="line" smooth="yes"/>
      <point x="60.5" y="378.0"/>
      <point x="136.5" y="310.0"/>
      <point x="250.5" y="310.0" type="curve"/>
    </contour>
    <contour>
      <point x="423.5" y="-180.0" type="line"/>
      <point x="512.5" y="-180.0" type="line"/>
      <point x="512.5" y="730.0" type="line"/>
      <point x="423.5" y="730.0" type="line"/>
    </contour>
  </outline>
</glyph>
<glyph name="onesuperior" format="2">
  <advance width="600.0"/>
  <unicode hex="00B9"/>
  <outline>
    <contour>
      <point x="152.0" y="405.0" type="line"/>
      <point x="464.5" y="405.0" type="line"/>
      <point x="464.5" y="475.3" type="line"/>
      <point x="361.1" y="475.3" type="line"/>
      <point x="361.1" y="830.0" type="line"/>
      <point x="258.6" y="830.0" type="line"/>
      <point x="161.0" y="758.1" type="line"/>
      <point x="161.0" y="673.4" type="line"/>
      <point x="283.6" y="761.0" type="line"/>
      <point x="283.6" y="475.3" type="line"/>
      <point x="152.0" y="475.3" type="line"/>
    </contour>
  </outline>
</glyph>
<glyph name="ordmasculine" format="2">
  <advance width="600.0"/>
  <unicode hex="00BA"/>
  <outline>
    <contour>
      <point x="300.0" y="446.5" type="curve" smooth="yes"/>
      <point x="372.6" y="446.5"/>
      <point x="421.0" y="491.5"/>
      <point x="421.0" y="556.3" type="curve" smooth="yes"/>
      <point x="421.0" y="627.0" type="line" smooth="yes"/>
      <point x="421.0" y="692.7"/>
      <point x="372.6" y="736.5"/>
      <point x="300.0" y="736.5" type="curve" smooth="yes"/>
      <point x="227.4" y="736.5"/>
      <point x="179.0" y="692.7"/>
      <point x="179.0" y="627.0" type="curve" smooth="yes"/>
      <point x="179.0" y="556.3" type="line" smooth="yes"/>
      <point x="179.0" y="491.5"/>
      <point x="227.4" y="446.5"/>
    </contour>
    <contour>
      <point x="300.0" y="495.5" type="curve" smooth="yes"/>
      <point x="262.8" y="495.5"/>
      <point x="238.0" y="519.7"/>
      <point x="238.0" y="556.3" type="curve" smooth="yes"/>
      <point x="238.0" y="627.0" type="line" smooth="yes"/>
      <point x="238.0" y="663.3"/>
      <point x="262.8" y="687.5"/>
      <point x="300.0" y="687.5" type="curve" smooth="yes"/>
      <point x="337.2" y="687.5"/>
      <point x="362.0" y="663.3"/>
      <point x="362.0" y="627.0" type="curve" smooth="yes"/>
      <point x="362.0" y="556.3" type="line" smooth="yes"/>
      <point x="362.0" y="519.7"/>
      <point x="337.2" y="495.5"/>
    </contour>
  </outline>
</glyph>
<glyph name="guillemetright" format="2">
  <advance width="600.0"/>
  <unicode hex="00BB"/>
  <outline>
    <contour>
      <point x="264.3" y="40.0" type="line"/>
      <point x="384.3" y="40.0" type="line"/>
      <point x="574.5" y="280.0" type="line"/>
      <point x="384.2" y="520.0" type="line"/>
      <point x="263.6" y="520.0" type="line"/>
      <point x="455.8" y="280.7" type="line"/>
    </contour>
    <contour>
      <point x="26.2" y="40.0" type="line"/>
      <point x="146.2" y="40.0" type="line"/>
      <point x="336.4" y="280.0" type="line"/>
      <point x="146.1" y="520.0" type="line"/>
      <point x="25.5" y="520.0" type="line"/>
      <point x="217.7" y="280.7" type="line"/>
    </contour>
  </outline>
</glyph>
<glyph name="onequarter" format="2">
  <advance width="600.0"/>
  <unicode hex="00BC"/>
  <outline>
    <contour>
      <point x="32.1" y="404.7" type="line"/>
      <point x="312.8" y="404.7" type="line"/>
      <point x="312.8" y="462.2" type="line"/>
      <point x="217.9" y="462.2" type="line"/>
      <point x="217.9" y="729.7" type="line"/>
      <point x="123.9" y="729.7" type="line"/>
      <point x="52.4" y="670.8" type="line"/>
      <point x="52.4" y="592.4" type="line"/>
      <point x="114.1" y="644.3" type="line" smooth="yes"/>
      <point x="129.1" y="657.0"/>
      <point x="142.3" y="673.9"/>
      <point x="148.9" y="683.8" type="curve"/>
      <point x="148.9" y="462.2" type="line"/>
      <point x="32.1" y="462.2" type="line"/>
    </contour>
    <contour>
      <point x="473.7" y="0.0" type="line"/>
      <point x="542.7" y="0.0" type="line"/>
      <point x="542.7" y="207.8" type="line"/>
      <point x="473.7" y="207.8" type="line"/>
      <point x="473.7" y="123.0" type="line"/>
      <point x="370.7" y="123.0" type="line"/>
      <point x="370.7" y="139.0" type="line"/>
      <point x="505.7" y="325.0" type="line"/>
      <point x="427.7" y="325.0" type="line"/>
      <point x="301.7" y="153.0" type="line"/>
      <point x="301.7" y="67.0" type="line"/>
      <point x="473.7" y="67.0" type="line"/>
    </contour>
    <component base="fraction"/>
  </outline>
</glyph>
<glyph name="onehalf" format="2">
  <advance width="600.0"/>
  <unicode hex="00BD"/>
  <outline>
    <contour>
      <point x="313.5" y="0.0" type="line"/>
      <point x="574.5" y="0.0" type="line"/>
      <point x="574.5" y="57.5" type="line"/>
      <point x="468.2" y="57.5" type="line" smooth="yes"/>
      <point x="442.5" y="57.5"/>
      <point x="412.7" y="53.1"/>
      <point x="397.7" y="50.4" type="curve"/>
      <point x="397.7" y="60.1" type="line"/>
      <point x="480.2" y="105.8" type="line" smooth="yes"/>
      <point x="538.5" y="138.0"/>
      <point x="569.5" y="177.9"/>
      <point x="569.5" y="220.7" type="curve" smooth="yes"/>
      <point x="569.5" y="286.2"/>
      <point x="518.6" y="330.0"/>
      <point x="442.4" y="330.0" type="curve" smooth="yes"/>
      <point x="367.7" y="330.0"/>
      <point x="315.6" y="284.4"/>
      <point x="313.5" y="216.0" type="curve"/>
      <point x="382.5" y="216.0" type="line"/>
      <point x="382.5" y="251.1"/>
      <point x="406.4" y="274.0"/>
      <point x="442.4" y="274.0" type="curve" smooth="yes"/>
      <point x="477.2" y="274.0"/>
      <point x="500.5" y="251.7"/>
      <point x="500.5" y="216.9" type="curve" smooth="yes"/>
      <point x="500.5" y="190.6"/>
      <point x="481.1" y="167.2"/>
      <point x="440.4" y="143.8" type="curve" smooth="yes"/>
      <point x="313.5" y="71.5" type="line"/>
    </contour>
    <contour>
      <point x="32.1" y="405.0" type="line"/>
      <point x="319.8" y="405.0" type="line"/>
      <point x="319.8" y="462.5" type="line"/>
      <point x="217.9" y="462.5" type="line"/>
      <point x="217.9" y="730.0" type="line"/>
      <point x="123.9" y="730.0" type="line"/>
      <point x="52.4" y="671.1" type="line"/>
      <point x="52.4" y="592.7" type="line"/>
      <point x="114.1" y="644.6" type="line" smooth="yes"/>
      <point x="129.1" y="657.3"/>
      <point x="142.3" y="674.2"/>
      <point x="148.9" y="684.1" type="curve"/>
      <point x="148.9" y="462.5" type="line"/>
      <point x="32.1" y="462.5" type="line"/>
    </contour>
    <component base="fraction"/>
  </outline>
</glyph>
<glyph name="threequarters" format="2">
  <advance width="600.0"/>
  <unicode hex="00BE"/>
  <outline>
    <contour>
      <point x="473.7" y="0.0" type="line"/>
      <point x="542.7" y="0.0" type="line"/>
      <point x="542.7" y="207.8" type="line"/>
      <point x="473.7" y="207.8" type="line"/>
      <point x="473.7" y="123.0" type="line"/>
      <point x="370.7" y="123.0" type="line"/>
      <point x="370.7" y="139.0" type="line"/>
      <point x="505.7" y="325.0" type="line"/>
      <point x="427.7" y="325.0" type="line"/>
      <point x="301.7" y="153.0" type="line"/>
      <point x="301.7" y="67.0" type="line"/>
      <point x="473.7" y="67.0" type="line"/>
    </contour>
    <contour>
      <point x="154.3" y="400.0" type="curve" smooth="yes"/>
      <point x="232.1" y="400.0"/>
      <point x="284.0" y="442.6"/>
      <point x="284.0" y="506.5" type="curve" smooth="yes"/>
      <point x="284.0" y="568.6"/>
      <point x="235.2" y="610.0"/>
      <point x="163.4" y="610.0" type="curve"/>
      <point x="163.4" y="591.4" type="line"/>
      <point x="268.3" y="672.9" type="line"/>
      <point x="268.3" y="730.0" type="line"/>
      <point x="47.3" y="730.0" type="line"/>
      <point x="47.3" y="675.5" type="line"/>
      <point x="200.6" y="675.5" type="line"/>
      <point x="125.3" y="616.7" type="line"/>
      <point x="125.3" y="557.0" type="line"/>
      <point x="155.3" y="557.0" type="line" smooth="yes"/>
      <point x="190.7" y="557.0"/>
      <point x="215.0" y="536.8"/>
      <point x="215.0" y="506.5" type="curve" smooth="yes"/>
      <point x="215.0" y="476.2"/>
      <point x="190.7" y="456.0"/>
      <point x="154.3" y="456.0" type="curve" smooth="yes"/>
      <point x="116.9" y="456.0"/>
      <point x="92.3" y="475.6"/>
      <point x="92.3" y="505.0" type="curve"/>
      <point x="23.3" y="505.0" type="line"/>
      <point x="23.3" y="442.0"/>
      <point x="75.5" y="400.0"/>
    </contour>
    <component base="fraction"/>
  </outline>
</glyph>
<glyph name="questiondown" format="2">
  <advance width="600.0"/>
  <unicode hex="00BF"/>
  <outline>
    <contour>
      <point x="337.0" y="-170.0" type="curve" smooth="yes"/>
      <point x="471.0" y="-170.0" type="line"/>
      <point x="471.0" y="-68.5" type="line"/>
      <point x="334.0" y="-68.5" type="line" smooth="yes"/>
      <point x="256.3" y="-68.5"/>
      <point x="209.0" y="-27.8"/>
      <point x="209.0" y="40.0" type="curve" smooth="yes"/>
      <point x="209.0" y="107.8"/>
      <point x="256.3" y="148.5"/>
      <point x="333.0" y="148.5" type="curve" smooth="yes"/>
      <point x="398.0" y="148.5" type="line"/>
      <point x="396.5" y="339.0" type="line"/>
      <point x="296.0" y="339.0" type="line"/>
      <point x="296.0" y="241.5" type="line"/>
      <point x="179.4" y="237.3"/>
      <point x="101.0" y="156.7"/>
      <point x="101.0" y="40.0" type="curve" smooth="yes"/>
      <point x="101.0" y="-88.1"/>
      <point x="192.6" y="-170.0"/>
    </contour>
    <contour>
      <point x="336.8" y="429.0" type="curve" smooth="yes"/>
      <point x="359.8" y="429.0" type="line" smooth="yes"/>
      <point x="400.6" y="429.0"/>
      <point x="427.8" y="454.9"/>
      <point x="427.8" y="493.4" type="curve" smooth="yes"/>
      <point x="427.8" y="531.2"/>
      <point x="400.6" y="555.0"/>
      <point x="359.8" y="555.0" type="curve" smooth="yes"/>
      <point x="337.1" y="555.0" type="line" smooth="yes"/>
      <point x="296.0" y="555.0"/>
      <point x="268.8" y="530.8"/>
      <point x="268.8" y="493.0" type="curve" smooth="yes"/>
      <point x="268.8" y="454.9"/>
      <point x="296.0" y="429.0"/>
    </contour>
  </outline>
</glyph>
<glyph name="AE" format="2">
  <advance width="600.0"/>
  <unicode hex="00C6"/>
  <anchor x="300.0" y="0.0" name="bottom"/>
  <anchor x="300.0" y="730.0" name="top"/>
  <outline>
    <contour>
      <point x="21.0" y="0.0" type="line"/>
      <point x="127.6" y="0.0" type="line"/>
      <point x="163.4" y="191.6" type="line"/>
      <point x="298.7" y="191.6" type="line"/>
      <point x="298.7" y="0.0" type="line"/>
      <point x="573.0" y="0.0" type="line"/>
      <point x="573.0" y="95.2" type="line"/>
      <point x="396.4" y="95.2" type="line"/>
      <point x="396.4" y="328.1" type="line"/>
      <point x="548.0" y="328.1" type="line"/>
      <point x="548.0" y="424.8" type="line"/>
      <point x="396.4" y="424.8" type="line"/>
      <point x="396.4" y="635.1" type="line"/>
      <point x="573.0" y="635.1" type="line"/>
      <point x="573.0" y="730.0" type="line"/>
      <point x="163.6" y="730.0" type="line"/>
    </contour>
    <contour>
      <point x="178.3" y="275.6" type="line"/>
      <point x="244.8" y="635.1" type="line"/>
      <point x="298.7" y="635.1" type="line"/>
      <point x="298.7" y="275.6" type="line"/>
    </contour>
  </outline>
</glyph>
<glyph name="Ccedilla" format="2">
  <advance width="600.0"/>
  <unicode hex="00C7"/>
  <anchor x="305.0" y="0.0" name="_bottom"/>
  <anchor x="305.0" y="0.0" name="bottom"/>
  <anchor x="305.0" y="730.0" name="top"/>
  <outline>
    <contour>
      <point x="207.0" y="-209.6" type="line"/>
      <point x="299.5" y="-209.6" type="line" smooth="yes"/>
      <point x="375.1" y="-209.6"/>
      <point x="425.5" y="-170.8"/>
      <point x="425.5" y="-123.9" type="curve" smooth="yes"/>
      <point x="425.5" y="-69.2"/>
      <point x="353.6" y="-41.6"/>
      <point x="298.9" y="-36.2" type="curve"/>
      <point x="319.3" y="23.0" type="line"/>
      <point x="257.5" y="23.0" type="line"/>
      <point x="222.5" y="-69.0" type="line"/>
      <point x="291.3" y="-69.0"/>
      <point x="330.8" y="-88.7"/>
      <point x="330.8" y="-114.1" type="curve" smooth="yes"/>
      <point x="330.8" y="-131.5"/>
      <point x="310.2" y="-150.1"/>
      <point x="280.0" y="-150.1" type="curve" smooth="yes"/>
      <point x="207.0" y="-150.1" type="line"/>
    </contour>
    <component base="C"/>
  </outline>
</glyph>
<glyph name="multiply" format="2">
  <advance width="600.0"/>
  <unicode hex="00D7"/>
  <outline>
    <contour>
      <point x="163.2" y="125.2" type="line"/>
      <point x="298.6" y="260.9" type="line"/>
      <point x="433.3" y="125.2" type="line"/>
      <point x="500.6" y="192.5" type="line"/>
      <point x="364.9" y="327.2" type="line"/>
      <point x="502.7" y="464.7" type="line"/>
      <point x="436.1" y="532.0" type="line"/>
      <point x="298.6" y="394.5" type="line"/>
      <point x="163.2" y="529.2" type="line"/>
      <point x="96.6" y="462.6" type="line"/>
      <point x="231.3" y="327.2" type="line"/>
      <point x="96.6" y="192.5" type="line"/>
    </contour>
  </outline>
</glyph>
<glyph name="Oslash" format="2">
  <advance width="600.0"/>
  <unicode hex="00D8"/>
  <anchor x="300.0" y="0.0" name="bottom"/>
  <anchor x="320.0" y="730.0" name="horn"/>
  <anchor x="300.0" y="730.0" name="top"/>
  <outline>
    <contour>
      <point x="29.0" y="-40.0" type="line"/>
      <point x="123.2" y="-40.0" type="line"/>
      <point x="571.0" y="750.0" type="line"/>
      <point x="476.8" y="750.0" type="line"/>
    </contour>
    <contour>
      <point x="300.0" y="-10.0" type="curve" smooth="yes"/>
      <point x="435.8" y="-10.0"/>
      <point x="520.4" y="71.7"/>
      <point x="520.4" y="203.0" type="curve" smooth="yes"/>
      <point x="520.4" y="527.7" type="line" smooth="yes"/>
      <point x="520.4" y="658.3"/>
      <point x="435.8" y="740.0"/>
      <point x="300.0" y="740.0" type="curve" smooth="yes"/>
      <point x="164.2" y="740.0"/>
      <point x="79.6" y="658.3"/>
      <point x="79.6" y="527.0" type="curve" smooth="yes"/>
      <point x="79.6" y="203.0" type="line" smooth="yes"/>
      <point x="79.6" y="71.7"/>
      <point x="164.2" y="-10.0"/>
    </contour>
    <contour>
      <point x="300.0" y="85.7" type="curve" smooth="yes"/>
      <point x="227.1" y="85.7"/>
      <point x="186.1" y="127.5"/>
      <point x="186.1" y="203.0" type="curve" smooth="yes"/>
      <point x="186.1" y="527.0" type="line" smooth="yes"/>
      <point x="186.1" y="602.5"/>
      <point x="227.1" y="644.3"/>
      <point x="300.0" y="644.3" type="curve" smooth="yes"/>
      <point x="372.9" y="644.3"/>
      <point x="413.9" y="602.5"/>
      <point x="413.9" y="527.0" type="curve" smooth="yes"/>
      <point x="413.9" y="203.0" type="line" smooth="yes"/>
      <point x="413.9" y="127.5"/>
      <point x="372.9" y="85.7"/>
    </contour>
  </outline>
</glyph>
<glyph name="Thorn" format="2">
  <advance width="600.0"/>
  <unicode hex="00DE"/>
  <outline>
    <contour>
      <point x="84.0" y="0.0" type="line"/>
      <point x="192.0" y="0.0" type="line"/>
      <point x="192.0" y="175.5" type="line"/>
      <point x="335.1" y="175.5" type="line" smooth="yes"/>
      <point x="470.4" y="175.5"/>
      <point x="556.0" y="254.4"/>
      <point x="556.0" y="380.0" type="curve" smooth="yes"/>
      <point x="556.0" y="504.5"/>
      <point x="470.0" y="584.5"/>
      <point x="335.1" y="584.5" type="curve" smooth="yes"/>
      <point x="192.0" y="584.5" type="line"/>
      <point x="192.0" y="730.0" type="line"/>
      <point x="84.0" y="730.0" type="line"/>
    </contour>
    <contour>
      <point x="192.0" y="269.0" type="line"/>
      <point x="192.0" y="491.0" type="line"/>
      <point x="327.6" y="491.0" type="line" smooth="yes"/>
      <point x="401.2" y="491.0"/>
      <point x="445.9" y="449.2"/>
      <point x="445.9" y="380.0" type="curve" smooth="yes"/>
      <point x="445.9" y="310.8"/>
      <point x="401.9" y="269.0"/>
      <point x="327.6" y="269.0" type="curve" smooth="yes"/>
    </contour>
  </outline>
</glyph>
<glyph name="germandbls" format="2">
  <advance width="600.0"/>
  <unicode hex="00DF"/>
  <outline>
    <contour>
      <point x="82.4" y="0.0" type="line"/>
      <point x="185.9" y="0.0" type="line"/>
      <point x="185.9" y="528.6" type="line" smooth="yes"/>
      <point x="185.9" y="600.8"/>
      <point x="230.5" y="645.1"/>
      <point x="300.6" y="645.1" type="curve" smooth="yes"/>
      <point x="370.3" y="645.1"/>
      <point x="414.2" y="602.2"/>
      <point x="414.2" y="530.3" type="curve" smooth="yes"/>
      <point x="414.2" y="464.1"/>
      <point x="372.2" y="417.5"/>
      <point x="303.6" y="417.5" type="curve" smooth="yes"/>
      <point x="260.7" y="417.5" type="line"/>
      <point x="260.7" y="329.9" type="line"/>
      <point x="305.6" y="329.9" type="line" smooth="yes"/>
      <point x="381.2" y="329.9"/>
      <point x="427.2" y="285.9"/>
      <point x="427.2" y="214.0" type="curve" smooth="yes"/>
      <point x="427.2" y="142.1"/>
      <point x="380.8" y="94.9"/>
      <point x="305.6" y="94.9" type="curve" smooth="yes"/>
      <point x="252.3" y="94.9" type="line"/>
      <point x="252.3" y="0.0" type="line"/>
      <point x="314.1" y="0.0" type="line" smooth="yes"/>
      <point x="449.1" y="0.0"/>
      <point x="539.0" y="85.4"/>
      <point x="539.0" y="208.3" type="curve" smooth="yes"/>
      <point x="539.0" y="324.1"/>
      <point x="461.0" y="399.1"/>
      <point x="343.0" y="397.1" type="curve"/>
      <point x="343.0" y="382.1" type="line"/>
      <point x="455.4" y="380.7"/>
      <point x="525.3" y="449.1"/>
      <point x="525.3" y="551.3" type="curve" smooth="yes"/>
      <point x="525.3" y="670.4"/>
      <point x="435.8" y="740.0"/>
      <point x="300.9" y="740.0" type="curve" smooth="yes"/>
      <point x="168.7" y="740.0"/>
      <point x="82.4" y="655.6"/>
      <point x="82.4" y="528.6" type="curve" smooth="yes"/>
    </contour>
  </outline>
</glyph>
<glyph name="ae" format="2">
  <advance width="600.0"/>
  <unicode hex="00E6"/>
  <anchor x="300.0" y="550.0" name="top"/>
  <outline>
    <contour>
      <point x="170.6" y="-10.0" type="curve" smooth="yes"/>
      <point x="254.4" y="-10.0"/>
      <point x="293.5" y="35.1"/>
      <point x="299.5" y="68.5" type="curve"/>
      <point x="304.7" y="68.5" type="line"/>
      <point x="309.7" y="35.1"/>
      <point x="344.4" y="-10.0"/>
      <point x="420.0" y="-10.0" type="curve" smooth="yes"/>
      <point x="507.0" y="-10.0"/>
      <point x="565.0" y="47.2"/>
      <point x="565.0" y="133.0" type="curve"/>
      <point x="471.0" y="133.0" type="line"/>
      <point x="471.0" y="95.5"/>
      <point x="447.0" y="73.0"/>
      <point x="408.2" y="73.0" type="curve" smooth="yes"/>
      <point x="371.5" y="73.0"/>
      <point x="347.2" y="102.1"/>
      <point x="347.2" y="147.0" type="curve" smooth="yes"/>
      <point x="347.2" y="253.5" type="line"/>
      <point x="565.0" y="253.5" type="line"/>
      <point x="565.0" y="403.0" type="line" smooth="yes"/>
      <point x="565.0" y="499.3"/>
      <point x="509.1" y="560.0"/>
      <point x="420.0" y="560.0" type="curve" smooth="yes"/>
      <point x="345.1" y="560.0"/>
      <point x="310.4" y="514.9"/>
      <point x="304.7" y="481.5" type="curve"/>
      <point x="299.5" y="481.5" type="line"/>
      <point x="293.8" y="514.9"/>
      <point x="257.7" y="560.0"/>
      <point x="180.3" y="560.0" type="curve" smooth="yes"/>
      <point x="97.9" y="560.0"/>
      <point x="43.4" y="501.6"/>
      <point x="43.4" y="414.0" type="curve"/>
      <point x="137.4" y="414.0" type="line"/>
      <point x="137.4" y="452.6"/>
      <point x="160.3" y="477.0"/>
      <point x="196.2" y="477.0" type="curve" smooth="yes"/>
      <point x="236.8" y="477.0"/>
      <point x="256.3" y="452.8"/>
      <point x="256.3" y="402.3" type="curve" smooth="yes"/>
      <point x="256.3" y="326.5" type="line"/>
      <point x="191.6" y="326.5" type="line" smooth="yes"/>
      <point x="96.8" y="326.5"/>
      <point x="35.0" y="272.6"/>
      <point x="35.0" y="190.0" type="curve" smooth="yes"/>
      <point x="35.0" y="133.0" type="line" smooth="yes"/>
      <point x="35.0" y="45.8"/>
      <point x="87.9" y="-10.0"/>
    </contour>
    <contour>
      <point x="192.7" y="73.0" type="curve" smooth="yes"/>
      <point x="155.4" y="73.0"/>
      <point x="132.5" y="95.8"/>
      <point x="132.5" y="133.0" type="curve" smooth="yes"/>
      <point x="132.5" y="190.0" type="line" smooth="yes"/>
      <point x="132.5" y="229.4"/>
      <point x="155.0" y="253.5"/>
      <point x="193.0" y="253.5" type="curve" smooth="yes"/>
      <point x="256.3" y="253.5" type="line"/>
      <point x="256.3" y="147.0" type="line" smooth="yes"/>
      <point x="256.3" y="102.1"/>
      <point x="231.2" y="73.0"/>
    </contour>
    <contour>
      <point x="347.2" y="326.5" type="line"/>
      <point x="347.2" y="403.0" type="line" smooth="yes"/>
      <point x="347.2" y="447.9"/>
      <point x="369.8" y="477.0"/>
      <point x="408.2" y="477.0" type="curve" smooth="yes"/>
      <point x="447.7" y="477.0"/>
      <point x="471.0" y="448.2"/>
      <point x="471.0" y="403.0" type="curve" smooth="yes"/>
      <point x="471.0" y="326.5" type="line"/>
    </contour>
  </outline>
</glyph>
<glyph name="ccedilla" format="2">
  <advance width="600.0"/>
  <unicode hex="00E7"/>
  <anchor x="303.7" y="0.0" name="_bottom"/>
  <anchor x="303.7" y="0.0" name="bottom"/>
  <anchor x="303.7" y="550.0" name="top"/>
  <outline>
    <contour>
      <point x="204.2" y="-209.6" type="line"/>
      <point x="296.7" y="-209.6" type="line" smooth="yes"/>
      <point x="372.3" y="-209.6"/>
      <point x="422.7" y="-170.8"/>
      <point x="422.7" y="-123.9" type="curve" smooth="yes"/>
      <point x="422.7" y="-69.2"/>
      <point x="350.8" y="-41.6"/>
      <point x="296.1" y="-36.2" type="curve"/>
      <point x="316.5" y="23.0" type="line"/>
      <point x="254.7" y="23.0" type="line"/>
      <point x="219.7" y="-69.0" type="line"/>
      <point x="288.5" y="-69.0"/>
      <point x="328.0" y="-88.7"/>
      <point x="328.0" y="-114.1" type="curve" smooth="yes"/>
      <point x="328.0" y="-131.5"/>
      <point x="307.4" y="-150.1"/>
      <point x="277.2" y="-150.1" type="curve" smooth="yes"/>
      <point x="204.2" y="-150.1" type="line"/>
    </contour>
    <component base="c"/>
  </outline>
</glyph>
<glyph name="eth" format="2">
  <advance width="600.0"/>
  <unicode hex="00F0"/>
  <outline>
    <contour>
      <point x="299.3" y="-7.0" type="curve" smooth="yes"/>
      <point x="444.3" y="-7.0"/>
      <point x="539.0" y="86.9"/>
      <point x="539.0" y="231.4" type="curve" smooth="yes"/>
      <point x="539.0" y="316.7"/>
      <point x="503.1" y="414.6"/>
      <point x="436.9" y="506.2" type="curve" smooth="yes"/>
      <point x="366.4" y="606.0" type="line"/>
      <point x="470.6" y="651.1" type="line"/>
      <point x="470.6" y="738.6" type="line"/>
      <point x="317.8" y="672.6" type="line"/>
      <point x="277.1" y="730.0" type="line"/>
      <point x="154.2" y="730.0" type="line"/>
      <point x="225.3" y="633.7" type="line"/>
      <point x="113.7" y="584.6" type="line"/>
      <point x="113.7" y="497.1" type="line"/>
      <point x="274.3" y="567.1" type="line"/>
      <point x="335.7" y="482.7" type="line" smooth="yes"/>
      <point x="379.0" y="425.2"/>
      <point x="399.7" y="389.1"/>
      <point x="403.6" y="378.5" type="curve"/>
      <point x="392.0" y="378.5" type="line"/>
      <point x="375.5" y="405.8"/>
      <point x="330.9" y="442.0"/>
      <point x="269.6" y="442.0" type="curve" smooth="yes"/>
      <point x="144.4" y="442.0"/>
      <point x="61.0" y="354.0"/>
      <point x="61.0" y="221.3" type="curve" smooth="yes"/>
      <point x="61.0" y="84.2"/>
      <point x="156.3" y="-7.0"/>
    </contour>
    <contour>
      <point x="299.3" y="86.5" type="curve" smooth="yes"/>
      <point x="221.1" y="86.5"/>
      <point x="169.0" y="140.0"/>
      <point x="169.0" y="221.0" type="curve" smooth="yes"/>
      <point x="169.0" y="302.0"/>
      <point x="221.1" y="355.5"/>
      <point x="299.3" y="355.5" type="curve" smooth="yes"/>
      <point x="378.6" y="355.5"/>
      <point x="431.0" y="301.7"/>
      <point x="431.0" y="221.0" type="curve" smooth="yes"/>
      <point x="431.0" y="140.0"/>
      <point x="378.9" y="86.5"/>
    </contour>
  </outline>
</glyph>
<glyph name="divide" format="2">
  <advance width="600.0"/>
  <unicode hex="00F7"/>
  <outline>
    <contour>
      <point x="100.0" y="284.5" type="line"/>
      <point x="500.0" y="284.5" type="line"/>
      <point x="500.0" y="379.0" type="line"/>
      <point x="100.0" y="379.0" type="line"/>
    </contour>
    <contour>
      <point x="300.0" y="460.0" type="curve" smooth="yes"/>
      <point x="353.0" y="460.0"/>
      <point x="388.1" y="491.8"/>
      <point x="388.1" y="539.5" type="curve" smooth="yes"/>
      <point x="388.1" y="587.2"/>
      <point x="353.0" y="619.0"/>
      <point x="300.0" y="619.0" type="curve" smooth="yes"/>
      <point x="247.0" y="619.0"/>
      <point x="211.9" y="587.2"/>
      <point x="211.9" y="539.5" type="curve" smooth="yes"/>
      <point x="211.9" y="491.8"/>
      <point x="247.0" y="460.0"/>
    </contour>
    <contour>
      <point x="300.0" y="44.5" type="curve" smooth="yes"/>
      <point x="353.0" y="44.5"/>
      <point x="388.1" y="76.3"/>
      <point x="388.1" y="124.0" type="curve" smooth="yes"/>
      <point x="388.1" y="171.7"/>
      <point x="353.0" y="203.5"/>
      <point x="300.0" y="203.5" type="curve" smooth="yes"/>
      <point x="247.0" y="203.5"/>
      <point x="211.9" y="171.7"/>
      <point x="211.9" y="124.0" type="curve" smooth="yes"/>
      <point x="211.9" y="76.3"/>
      <point x="247.0" y="44.5"/>
    </contour>
  </outline>
</glyph>
<glyph name="oslash" format="2">
  <advance width="600.0"/>
  <unicode hex="00F8"/>
  <anchor x="300.0" y="0.0" name="bottom"/>
  <anchor x="328.4" y="550.0" name="horn"/>
  <anchor x="300.0" y="550.0" name="top"/>
  <outline>
    <contour>
      <point x="32.0" y="-30.0" type="line"/>
      <point x="129.5" y="-30.0" type="line"/>
      <point x="568.0" y="590.0" type="line"/>
      <point x="469.8" y="590.0" type="line"/>
    </contour>
    <contour>
      <point x="300.0" y="-10.0" type="curve" smooth="yes"/>
      <point x="435.8" y="-10.0"/>
      <point x="520.4" y="71.7"/>
      <point x="520.4" y="203.0" type="curve" smooth="yes"/>
      <point x="520.4" y="347.7" type="line" smooth="yes"/>
      <point x="520.4" y="478.3"/>
      <point x="435.8" y="560.0"/>
      <point x="300.0" y="560.0" type="curve" smooth="yes"/>
      <point x="164.2" y="560.0"/>
      <point x="79.6" y="478.3"/>
      <point x="79.6" y="347.0" type="curve" smooth="yes"/>
      <point x="79.6" y="203.0" type="line" smooth="yes"/>
      <point x="79.6" y="71.7"/>
      <point x="164.2" y="-10.0"/>
    </contour>
    <contour>
      <point x="300.0" y="85.0" type="curve" smooth="yes"/>
      <point x="225.1" y="85.0"/>
      <point x="181.1" y="128.8"/>
      <point x="181.1" y="203.0" type="curve" smooth="yes"/>
      <point x="181.1" y="347.0" type="line" smooth="yes"/>
      <point x="181.1" y="421.2"/>
      <point x="225.1" y="465.0"/>
      <point x="300.0" y="465.0" type="curve" smooth="yes"/>
      <point x="374.9" y="465.0"/>
      <point x="418.9" y="421.2"/>
      <point x="418.9" y="347.0" type="curve" smooth="yes"/>
      <point x="418.9" y="203.0" type="line" smooth="yes"/>
      <point x="418.9" y="128.8"/>
      <point x="374.9" y="85.0"/>
    </contour>
  </outline>
</glyph>
<glyph name="thorn" format="2">
  <advance width="600.0"/>
  <unicode hex="00FE"/>
  <anchor x="296.5" y="0.0" name="bottom"/>
  <anchor x="296.5" y="730.0" name="top"/>
  <outline>
    <contour>
      <point x="80.7" y="-170.0" type="line"/>
      <point x="187.2" y="-170.0" type="line"/>
      <point x="187.2" y="56.3" type="line"/>
      <point x="80.7" y="56.3" type="line"/>
    </contour>
    <component base="b" xOffset="-3.5"/>
  </outline>
</glyph>
<glyph name="Aogonek" format="2">
  <advance width="600.0"/>
  <unicode hex="0104"/>
  <anchor x="300.0" y="0.0" name="bottom"/>
  <anchor x="489.5" y="0.0" name="ogonek"/>
  <anchor x="300.0" y="730.0" name="top"/>
  <outline>
    <contour>
      <point x="494.1" y="-209.6" type="curve" smooth="yes"/>
      <point x="581.1" y="-209.6" type="line"/>
      <point x="581.1" y="-136.1" type="line"/>
      <point x="518.4" y="-136.1" type="line" smooth="yes"/>
      <point x="485.9" y="-136.1"/>
      <point x="466.1" y="-116.3"/>
      <point x="466.1" y="-90.0" type="curve" smooth="yes"/>
      <point x="466.1" y="-65.3"/>
      <point x="483.9" y="-37.8"/>
      <point x="523.2" y="-4.7" type="curve"/>
      <point x="540.5" y="10.3" type="line"/>
      <point x="462.2" y="10.3" type="line"/>
      <point x="397.7" y="-29.5"/>
      <point x="369.4" y="-70.8"/>
      <point x="369.4" y="-111.5" type="curve" smooth="yes"/>
      <point x="369.4" y="-168.8"/>
      <point x="418.0" y="-209.6"/>
    </contour>
    <component base="A"/>
  </outline>
</glyph>
<glyph name="aogonek" format="2">
  <advance width="600.0"/>
  <unicode hex="0105"/>
  <anchor x="305.0" y="0.0" name="bottom"/>
  <anchor x="457.5" y="0.0" name="ogonek"/>
  <anchor x="305.0" y="550.0" name="top"/>
  <outline>
    <contour>
      <point x="482.7" y="-209.6" type="curve" smooth="yes"/>
      <point x="569.7" y="-209.6" type="line"/>
      <point x="569.7" y="-136.1" type="line"/>
      <point x="507.0" y="-136.1" type="line" smooth="yes"/>
      <point x="474.5" y="-136.1"/>
      <point x="454.7" y="-116.3"/>
      <point x="454.7" y="-90.0" type="curve" smooth="yes"/>
      <point x="454.7" y="-65.3"/>
      <point x="472.5" y="-38.5"/>
      <point x="517.8" y="0.0" type="curve"/>
      <point x="450.8" y="10.3" type="line"/>
      <point x="386.3" y="-29.5"/>
      <point x="358.0" y="-70.8"/>
      <point x="358.0" y="-111.5" type="curve" smooth="yes"/>
      <point x="358.0" y="-168.8"/>
      <point x="406.6" y="-209.6"/>
    </contour>
    <component base="a"/>
  </outline>
</glyph>
<glyph name="dcaron" format="2">
  <advance width="600.0"/>
  <unicode hex="010F"/>
  <outline>
    <contour>
      <point x="508.5" y="550.0" type="line"/>
      <point x="594.5" y="550.0" type="line"/>
      <point x="604.5" y="730.0" type="line"/>
      <point x="508.5" y="730.0" type="line"/>
    </contour>
    <contour>
      <point x="220.5" y="-10.0" type="curve" smooth="yes"/>
      <point x="301.7" y="-10.0"/>
      <point x="352.8" y="44.5"/>
      <point x="352.8" y="130.2" type="curve"/>
      <point x="329.7" y="105.0" type="line"/>
      <point x="352.8" y="105.0" type="line"/>
      <point x="352.8" y="0.0" type="line"/>
      <point x="456.3" y="0.0" type="line"/>
      <point x="456.3" y="730.0" type="line"/>
      <point x="351.3" y="730.0" type="line"/>
      <point x="351.3" y="573.0" type="line"/>
      <point x="354.2" y="445.0" type="line"/>
      <point x="329.7" y="445.0" type="line"/>
      <point x="352.8" y="419.8" type="line"/>
      <point x="352.8" y="505.5"/>
      <point x="301.7" y="560.0"/>
      <point x="220.5" y="560.0" type="curve" smooth="yes"/>
      <point x="119.8" y="560.0"/>
      <point x="56.1" y="481.8"/>
      <point x="56.1" y="357.3" type="curve" smooth="yes"/>
      <point x="56.1" y="192.3" type="line" smooth="yes"/>
      <point x="56.1" y="68.2"/>
      <point x="119.8" y="-10.0"/>
    </contour>
    <contour>
      <point x="257.7" y="80.6" type="curve" smooth="yes"/>
      <point x="197.1" y="80.6"/>
      <point x="161.1" y="124.0"/>
      <point x="161.1" y="198.0" type="curve" smooth="yes"/>
      <point x="161.1" y="352.3" type="line" smooth="yes"/>
      <point x="161.1" y="426.0"/>
      <point x="197.1" y="469.4"/>
      <point x="257.7" y="469.4" type="curve" smooth="yes"/>
      <point x="316.5" y="469.4"/>
      <point x="351.3" y="426.0"/>
      <point x="351.3" y="352.3" type="curve" smooth="yes"/>
      <point x="351.3" y="198.0" type="line" smooth="yes"/>
      <point x="351.3" y="124.0"/>
      <point x="316.5" y="80.6"/>
    </contour>
  </outline>
</glyph>
<glyph name="dcroat" format="2">
  <advance width="600.0"/>
  <unicode hex="0111"/>
  <outline>
    <contour>
      <point x="260.5" y="-10.0" type="curve" smooth="yes"/>
      <point x="351.5" y="-10.0"/>
      <point x="407.9" y="42.9"/>
      <point x="407.9" y="130.2" type="curve"/>
      <point x="384.8" y="105.0" type="line"/>
      <point x="407.9" y="105.0" type="line"/>
      <point x="407.9" y="0.0" type="line"/>
      <point x="514.4" y="0.0" type="line"/>
      <point x="514.4" y="730.0" type="line"/>
      <point x="406.4" y="730.0" type="line"/>
      <point x="406.4" y="513.0" type="line"/>
      <point x="409.3" y="385.0" type="line"/>
      <point x="384.8" y="385.0" type="line"/>
      <point x="407.9" y="359.8" type="line"/>
      <point x="407.9" y="446.4"/>
      <point x="350.8" y="500.0"/>
      <point x="260.5" y="500.0" type="curve" smooth="yes"/>
      <point x="149.5" y="500.0"/>
      <point x="81.0" y="420.2"/>
      <point x="81.0" y="292.0" type="curve" smooth="yes"/>
      <point x="81.0" y="197.3" type="line" smooth="yes"/>
      <point x="81.0" y="69.5"/>
      <point x="150.2" y="-10.0"/>
    </contour>
    <contour>
      <point x="297.7" y="83.6" type="curve" smooth="yes"/>
      <point x="227.7" y="83.6"/>
      <point x="189.0" y="126.1"/>
      <point x="189.0" y="203.0" type="curve" smooth="yes"/>
      <point x="189.0" y="287.0" type="line" smooth="yes"/>
      <point x="189.0" y="363.6"/>
      <point x="227.7" y="406.4"/>
      <point x="297.7" y="406.4" type="curve" smooth="yes"/>
      <point x="366.0" y="406.4"/>
      <point x="406.4" y="362.2"/>
      <point x="406.4" y="287.0" type="curve" smooth="yes"/>
      <point x="406.4" y="203.0" type="line" smooth="yes"/>
      <point x="406.4" y="127.5"/>
      <point x="366.0" y="83.6"/>
    </contour>
    <contour>
      <point x="247.0" y="565.5" type="line"/>
      <point x="600.0" y="565.5" type="line"/>
      <point x="600.0" y="645.0" type="line"/>
      <point x="247.0" y="645.0" type="line"/>
    </contour>
  </outline>
</glyph>
<glyph name="Eogonek" format="2">
  <advance width="600.0"/>
  <unicode hex="0118"/>
  <anchor x="320.0" y="0.0" name="bottom"/>
  <anchor x="437.0" y="0.0" name="ogonek"/>
  <anchor x="320.0" y="730.0" name="top"/>
  <anchor x="20.0" y="730.0" name="topleft"/>
  <outline>
    <contour>
      <point x="440.7" y="-209.6" type="curve" smooth="yes"/>
      <point x="527.7" y="-209.6" type="line"/>
      <point x="527.7" y="-136.1" type="line"/>
      <point x="465.0" y="-136.1" type="line" smooth="yes"/>
      <point x="432.5" y="-136.1"/>
      <point x="412.7" y="-116.3"/>
      <point x="412.7" y="-90.0" type="curve" smooth="yes"/>
      <point x="412.7" y="-65.3"/>
      <point x="430.5" y="-37.8"/>
      <point x="469.8" y="-4.7" type="curve"/>
      <point x="487.1" y="10.3" type="line"/>
      <point x="408.8" y="10.3" type="line"/>
      <point x="344.3" y="-29.5"/>
      <point x="316.0" y="-70.8"/>
      <point x="316.0" y="-111.5" type="curve" smooth="yes"/>
      <point x="316.0" y="-168.8"/>
      <point x="364.6" y="-209.6"/>
    </contour>
    <component base="E"/>
  </outline>
</glyph>
<glyph name="eogonek" format="2">
  <advance width="600.0"/>
  <unicode hex="0119"/>
  <anchor x="300.0" y="550.0" name="top"/>
  <outline>
    <contour>
      <point x="369.1" y="-209.6" type="curve" smooth="yes"/>
      <point x="456.1" y="-209.6" type="line"/>
      <point x="456.1" y="-136.1" type="line"/>
      <point x="393.4" y="-136.1" type="line" smooth="yes"/>
      <point x="360.9" y="-136.1"/>
      <point x="341.1" y="-116.3"/>
      <point x="341.1" y="-90.0" type="curve" smooth="yes"/>
      <point x="341.1" y="-65.3"/>
      <point x="358.9" y="-37.8"/>
      <point x="398.2" y="-4.7" type="curve" smooth="yes"/>
      <point x="424.7" y="18.5" type="line"/>
      <point x="474.3" y="44.7"/>
      <point x="508.7" y="87.8"/>
      <point x="517.5" y="143.0" type="curve"/>
      <point x="410.4" y="143.0" type="line"/>
      <point x="400.7" y="100.3"/>
      <point x="363.3" y="77.7"/>
      <point x="300.9" y="77.7" type="curve" smooth="yes"/>
      <point x="223.4" y="77.7"/>
      <point x="184.1" y="121.4"/>
      <point x="184.1" y="203.0" type="curve" smooth="yes"/>
      <point x="184.1" y="249.1" type="line"/>
      <point x="520.4" y="249.1" type="line"/>
      <point x="520.4" y="347.0" type="line" smooth="yes"/>
      <point x="520.4" y="475.5"/>
      <point x="435.1" y="560.0"/>
      <point x="300.3" y="560.0" type="curve" smooth="yes"/>
      <point x="165.2" y="560.0"/>
      <point x="79.6" y="475.5"/>
      <point x="79.6" y="347.0" type="curve" smooth="yes"/>
      <point x="79.6" y="203.0" type="line" smooth="yes"/>
      <point x="79.6" y="74.5"/>
      <point x="165.2" y="-10.0"/>
      <point x="300.3" y="-10.0" type="curve" smooth="yes"/>
      <point x="312.9" y="-10.0"/>
      <point x="322.6" y="-4.3"/>
      <point x="324.7" y="1.6999999999999993" type="curve"/>
      <point x="271.3" y="-37.2"/>
      <point x="244.4" y="-76.4"/>
      <point x="244.4" y="-111.5" type="curve" smooth="yes"/>
      <point x="244.4" y="-168.8"/>
      <point x="293.0" y="-209.6"/>
    </contour>
    <contour>
      <point x="415.9" y="291.8" type="line"/>
      <point x="446.9" y="322.8" type="line"/>
      <point x="184.1" y="322.2" type="line"/>
      <point x="184.1" y="347.0" type="line" smooth="yes"/>
      <point x="184.1" y="428.3"/>
      <point x="223.1" y="473.6"/>
      <point x="300.3" y="473.6" type="curve" smooth="yes"/>
      <point x="377.2" y="473.6"/>
      <point x="415.9" y="428.9"/>
      <point x="415.9" y="347.6" type="curve" smooth="yes"/>
    </contour>
  </outline>
</glyph>
<glyph name="Iogonek" format="2">
  <advance width="600.0"/>
  <unicode hex="012E"/>
  <anchor x="300.0" y="0.0" name="bottom"/>
  <anchor x="320.0" y="0.0" name="ogonek"/>
  <anchor x="300.0" y="730.0" name="top"/>
  <anchor x="20.0" y="730.0" name="topleft"/>
  <outline>
    <contour>
      <point x="303.7" y="-209.6" type="curve" smooth="yes"/>
      <point x="390.7" y="-209.6" type="line"/>
      <point x="390.7" y="-136.1" type="line"/>
      <point x="328.0" y="-136.1" type="line" smooth="yes"/>
      <point x="295.5" y="-136.1"/>
      <point x="275.7" y="-116.3"/>
      <point x="275.7" y="-90.0" type="curve" smooth="yes"/>
      <point x="275.7" y="-65.3"/>
      <point x="293.5" y="-37.8"/>
      <point x="332.8" y="-4.7" type="curve"/>
      <point x="350.1" y="10.3" type="line"/>
      <point x="271.8" y="10.3" type="line"/>
      <point x="207.3" y="-29.5"/>
      <point x="179.0" y="-70.8"/>
      <point x="179.0" y="-111.5" type="curve" smooth="yes"/>
      <point x="179.0" y="-168.8"/>
      <point x="227.6" y="-209.6"/>
    </contour>
    <component base="I"/>
  </outline>
</glyph>
<glyph name="iogonek" format="2">
  <advance width="600.0"/>
  <unicode hex="012F"/>
  <anchor x="316.5" y="0.0" name="bottom"/>
  <anchor x="330.0" y="0.0" name="ogonek"/>
  <anchor x="316.5" y="781.8" name="top"/>
  <outline>
    <contour>
      <point x="320.2" y="-209.6" type="curve" smooth="yes"/>
      <point x="407.2" y="-209.6" type="line"/>
      <point x="407.2" y="-136.1" type="line"/>
      <point x="344.5" y="-136.1" type="line" smooth="yes"/>
      <point x="312.0" y="-136.1"/>
      <point x="292.2" y="-116.3"/>
      <point x="292.2" y="-90.0" type="curve" smooth="yes"/>
      <point x="292.2" y="-65.3"/>
      <point x="310.0" y="-37.8"/>
      <point x="349.3" y="-4.7" type="curve"/>
      <point x="366.6" y="10.3" type="line"/>
      <point x="288.3" y="10.3" type="line"/>
      <point x="223.8" y="-29.5"/>
      <point x="195.5" y="-70.8"/>
      <point x="195.5" y="-111.5" type="curve" smooth="yes"/>
      <point x="195.5" y="-168.8"/>
      <point x="244.1" y="-209.6"/>
    </contour>
    <component base="idotless"/>
    <component base="dotaccentcomb" xOffset="616.5"/>
  </outline>
</glyph>
<glyph name="idotless" format="2">
  <advance width="600.0"/>
  <unicode hex="0131"/>
  <anchor x="316.5" y="0.0" name="bottom"/>
  <anchor x="330.0" y="0.0" name="ogonek"/>
  <anchor x="316.5" y="550.0" name="top"/>
  <outline>
    <contour>
      <point x="80.5" y="0.0" type="line"/>
      <point x="556.5" y="0.0" type="line"/>
      <point x="556.5" y="97.9" type="line"/>
      <point x="379.6" y="97.9" type="line"/>
      <point x="379.6" y="550.0" type="line"/>
      <point x="100.5" y="550.0" type="line"/>
      <point x="100.5" y="452.1" type="line"/>
      <point x="271.6" y="452.1" type="line"/>
      <point x="271.6" y="97.9" type="line"/>
      <point x="80.5" y="97.9" type="line"/>
    </contour>
  </outline>
</glyph>
<glyph name="Lslash" format="2">
  <advance width="600.0"/>
  <unicode hex="0141"/>
  <anchor x="343.0" y="0.0" name="bottom"/>
  <anchor x="303.0" y="365.0" name="center"/>
  <anchor x="182.5" y="730.0" name="top"/>
  <anchor x="583.0" y="730.0" name="topright"/>
  <outline>
    <contour>
      <point x="20.0" y="230.0" type="line"/>
      <point x="393.0" y="462.0" type="line"/>
      <point x="393.0" y="560.0" type="line"/>
      <point x="20.0" y="328.0" type="line"/>
    </contour>
    <component base="L" xOffset="3.0"/>
  </outline>
</glyph>
<glyph name="lslash" format="2">
  <advance width="600.0"/>
  <unicode hex="0142"/>
  <anchor x="320.0" y="0.0" name="bottom"/>
  <anchor x="300.0" y="365.0" name="center"/>
  <anchor x="256.0" y="730.0" name="top"/>
  <anchor x="580.0" y="730.0" name="topright"/>
  <outline>
    <contour>
      <point x="100.0" y="230.0" type="line"/>
      <point x="473.0" y="462.0" type="line"/>
      <point x="473.0" y="560.0" type="line"/>
      <point x="100.0" y="328.0" type="line"/>
    </contour>
    <component base="l"/>
  </outline>
</glyph>
<glyph name="Eng" format="2">
  <advance width="600.0"/>
  <unicode hex="014A"/>
  <outline>
    <contour>
      <point x="243.0" y="-180.0" type="line"/>
      <point x="303.5" y="-180.0" type="line" smooth="yes"/>
      <point x="432.6" y="-180.0"/>
      <point x="519.0" y="-100.9"/>
      <point x="519.0" y="18.0" type="curve" smooth="yes"/>
      <point x="519.0" y="730.0" type="line"/>
      <point x="418.5" y="730.0" type="line"/>
      <point x="418.5" y="435.7" type="line" smooth="yes"/>
      <point x="418.5" y="363.9"/>
      <point x="425.4" y="261.9"/>
      <point x="430.3" y="205.0" type="curve"/>
      <point x="217.5" y="730.0" type="line"/>
      <point x="81.0" y="730.0" type="line"/>
      <point x="81.0" y="0.0" type="line"/>
      <point x="181.5" y="0.0" type="line"/>
      <point x="181.5" y="383.0" type="line" smooth="yes"/>
      <point x="181.5" y="454.8"/>
      <point x="175.6" y="553.5"/>
      <point x="171.0" y="607.0" type="curve"/>
      <point x="411.0" y="22.8" type="line"/>
      <point x="411.0" y="-40.6"/>
      <point x="371.5" y="-79.1"/>
      <point x="306.5" y="-79.1" type="curve" smooth="yes"/>
      <point x="243.0" y="-79.1" type="line"/>
    </contour>
  </outline>
</glyph>
<glyph name="eng" format="2">
  <advance width="600.0"/>
  <unicode hex="014B"/>
  <outline>
    <contour>
      <point x="241.8" y="-180.0" type="line"/>
      <point x="300.9" y="-180.0" type="line" smooth="yes"/>
      <point x="430.0" y="-180.0"/>
      <point x="516.4" y="-100.9"/>
      <point x="516.4" y="18.0" type="curve" smooth="yes"/>
      <point x="516.4" y="365.5" type="line" smooth="yes"/>
      <point x="516.4" y="484.6"/>
      <point x="447.1" y="560.0"/>
      <point x="338.0" y="560.0" type="curve" smooth="yes"/>
      <point x="246.3" y="560.0"/>
      <point x="192.1" y="507.9"/>
      <point x="192.1" y="419.8" type="curve"/>
      <point x="218.6" y="445.0" type="line"/>
      <point x="192.1" y="445.0" type="line"/>
      <point x="192.1" y="550.0" type="line"/>
      <point x="85.6" y="550.0" type="line"/>
      <point x="85.6" y="0.0" type="line"/>
      <point x="193.6" y="0.0" type="line"/>
      <point x="193.6" y="347.0" type="line" smooth="yes"/>
      <point x="193.6" y="423.6"/>
      <point x="233.7" y="467.8"/>
      <point x="302.1" y="467.8" type="curve" smooth="yes"/>
      <point x="368.7" y="467.8"/>
      <point x="408.4" y="425.7"/>
      <point x="408.4" y="354.0" type="curve" smooth="yes"/>
      <point x="408.4" y="22.8" type="line" smooth="yes"/>
      <point x="408.4" y="-40.6"/>
      <point x="368.9" y="-79.1"/>
      <point x="303.9" y="-79.1" type="curve" smooth="yes"/>
      <point x="241.8" y="-79.1" type="line"/>
    </contour>
  </outline>
</glyph>
<glyph name="OE" format="2">
  <advance width="600.0"/>
  <unicode hex="0152"/>
  <outline>
    <contour>
      <point x="189.0" y="-8.2" type="curve" smooth="yes"/>
      <point x="258.9" y="-8.2"/>
      <point x="293.3" y="42.8"/>
      <point x="299.0" y="81.8" type="curve"/>
      <point x="304.0" y="81.8" type="line"/>
      <point x="304.0" y="0.0" type="line"/>
      <point x="576.5" y="0.0" type="line"/>
      <point x="576.5" y="95.2" type="line"/>
      <point x="404.3" y="95.2" type="line"/>
      <point x="404.3" y="328.5" type="line"/>
      <point x="551.5" y="328.5" type="line"/>
      <point x="551.5" y="423.7" type="line"/>
      <point x="404.3" y="423.7" type="line"/>
      <point x="404.3" y="635.1" type="line"/>
      <point x="576.5" y="635.1" type="line"/>
      <point x="576.5" y="730.0" type="line"/>
      <point x="304.0" y="730.0" type="line"/>
      <point x="304.0" y="650.0" type="line"/>
      <point x="299.0" y="650.0" type="line"/>
      <point x="293.3" y="689.0"/>
      <point x="258.9" y="740.0"/>
      <point x="189.0" y="740.0" type="curve" smooth="yes"/>
      <point x="94.5" y="740.0"/>
      <point x="37.0" y="666.7"/>
      <point x="37.0" y="547.3" type="curve" smooth="yes"/>
      <point x="37.0" y="184.5" type="line" smooth="yes"/>
      <point x="37.0" y="65.1"/>
      <point x="94.5" y="-8.2"/>
    </contour>
    <contour>
      <point x="222.1" y="85.3" type="curve" smooth="yes"/>
      <point x="172.4" y="85.3"/>
      <point x="142.0" y="123.1"/>
      <point x="142.0" y="184.5" type="curve" smooth="yes"/>
      <point x="142.0" y="547.3" type="line" smooth="yes"/>
      <point x="142.0" y="608.7"/>
      <point x="172.4" y="646.5"/>
      <point x="222.1" y="646.5" type="curve" smooth="yes"/>
      <point x="272.1" y="646.5"/>
      <point x="302.2" y="609.0"/>
      <point x="302.2" y="547.3" type="curve" smooth="yes"/>
      <point x="302.2" y="184.5" type="line" smooth="yes"/>
      <point x="302.2" y="122.8"/>
      <point x="272.1" y="85.3"/>
    </contour>
  </outline>
</glyph>
<glyph name="oe" format="2">
  <advance width="600.0"/>
  <unicode hex="0153"/>
  <outline>
    <contour>
      <point x="180.0" y="-10.0" type="curve" smooth="yes"/>
      <point x="258.2" y="-10.0"/>
      <point x="293.5" y="35.1"/>
      <point x="297.4" y="68.5" type="curve"/>
      <point x="302.6" y="68.5" type="line"/>
      <point x="306.2" y="35.1"/>
      <point x="340.9" y="-10.0"/>
      <point x="420.0" y="-10.0" type="curve" smooth="yes"/>
      <point x="497.9" y="-10.0"/>
      <point x="553.8" y="44.4"/>
      <point x="562.9" y="129.5" type="curve"/>
      <point x="468.9" y="129.5" type="line"/>
      <point x="464.7" y="94.8"/>
      <point x="440.7" y="73.0"/>
      <point x="408.2" y="73.0" type="curve" smooth="yes"/>
      <point x="370.8" y="73.0"/>
      <point x="347.2" y="101.4"/>
      <point x="347.2" y="147.0" type="curve" smooth="yes"/>
      <point x="347.2" y="250.0" type="line"/>
      <point x="565.0" y="250.0" type="line"/>
      <point x="565.0" y="403.0" type="line" smooth="yes"/>
      <point x="565.0" y="498.6"/>
      <point x="508.4" y="560.0"/>
      <point x="420.0" y="560.0" type="curve" smooth="yes"/>
      <point x="340.9" y="560.0"/>
      <point x="306.2" y="514.9"/>
      <point x="302.6" y="481.5" type="curve"/>
      <point x="297.4" y="481.5" type="line"/>
      <point x="293.5" y="514.9"/>
      <point x="258.2" y="560.0"/>
      <point x="180.0" y="560.0" type="curve" smooth="yes"/>
      <point x="91.6" y="560.0"/>
      <point x="35.0" y="498.6"/>
      <point x="35.0" y="403.0" type="curve" smooth="yes"/>
      <point x="35.0" y="147.0" type="line" smooth="yes"/>
      <point x="35.0" y="51.4"/>
      <point x="91.6" y="-10.0"/>
    </contour>
    <contour>
      <point x="192.1" y="73.0" type="curve" smooth="yes"/>
      <point x="153.3" y="73.0"/>
      <point x="129.0" y="101.4"/>
      <point x="129.0" y="147.0" type="curve" smooth="yes"/>
      <point x="129.0" y="403.0" type="line" smooth="yes"/>
      <point x="129.0" y="448.6"/>
      <point x="153.3" y="477.0"/>
      <point x="192.1" y="477.0" type="curve" smooth="yes"/>
      <point x="229.5" y="477.0"/>
      <point x="252.8" y="448.9"/>
      <point x="252.8" y="403.0" type="curve" smooth="yes"/>
      <point x="252.8" y="147.0" type="line" smooth="yes"/>
      <point x="252.8" y="101.1"/>
      <point x="229.5" y="73.0"/>
    </contour>
    <contour>
      <point x="347.2" y="325.1" type="line"/>
      <point x="347.2" y="403.0" type="line" smooth="yes"/>
      <point x="347.2" y="448.6"/>
      <point x="370.5" y="477.0"/>
      <point x="408.2" y="477.0" type="curve" smooth="yes"/>
      <point x="447.0" y="477.0"/>
      <point x="471.0" y="448.9"/>
      <point x="471.0" y="403.0" type="curve" smooth="yes"/>
      <point x="471.0" y="325.1" type="line"/>
    </contour>
  </outline>
</glyph>
<glyph name="Scedilla" format="2">
  <advance width="600.0"/>
  <unicode hex="015E"/>
  <anchor x="300.0" y="0.0" name="_bottom"/>
  <anchor x="300.0" y="0.0" name="bottom"/>
  <anchor x="300.0" y="730.0" name="top"/>
  <outline>
    <contour>
      <point x="202.0" y="-209.6" type="line"/>
      <point x="294.5" y="-209.6" type="line" smooth="yes"/>
      <point x="370.1" y="-209.6"/>
      <point x="420.5" y="-170.8"/>
      <point x="420.5" y="-123.9" type="curve" smooth="yes"/>
      <point x="420.5" y="-69.2"/>
      <point x="348.6" y="-41.6"/>
      <point x="293.9" y="-36.2" type="curve"/>
      <point x="314.3" y="23.0" type="line"/>
      <point x="252.5" y="23.0" type="line"/>
      <point x="217.5" y="-69.0" type="line"/>
      <point x="286.3" y="-69.0"/>
      <point x="325.8" y="-88.7"/>
      <point x="325.8" y="-114.1" type="curve" smooth="yes"/>
      <point x="325.8" y="-131.5"/>
      <point x="305.2" y="-150.1"/>
      <point x="275.0" y="-150.1" type="curve" smooth="yes"/>
      <point x="202.0" y="-150.1" type="line"/>
    </contour>
    <component base="S"/>
  </outline>
</glyph>
<glyph name="scedilla" format="2">
  <advance width="600.0"/>
  <unicode hex="015F"/>
  <anchor x="310.0" y="0.0" name="_bottom"/>
  <anchor x="300.0" y="0.0" name="bottom"/>
  <anchor x="300.0" y="550.0" name="top"/>
  <outline>
    <contour>
      <point x="210.5" y="-209.6" type="line"/>
      <point x="303.0" y="-209.6" type="line" smooth="yes"/>
      <point x="378.6" y="-209.6"/>
      <point x="429.0" y="-170.8"/>
      <point x="429.0" y="-123.9" type="curve" smooth="yes"/>
      <point x="429.0" y="-69.2"/>
      <point x="357.1" y="-41.6"/>
      <point x="302.4" y="-36.2" type="curve"/>
      <point x="322.8" y="23.0" type="line"/>
      <point x="261.0" y="23.0" type="line"/>
      <point x="226.0" y="-69.0" type="line"/>
      <point x="294.8" y="-69.0"/>
      <point x="334.3" y="-88.7"/>
      <point x="334.3" y="-114.1" type="curve" smooth="yes"/>
      <point x="334.3" y="-131.5"/>
      <point x="313.7" y="-150.1"/>
      <point x="283.5" y="-150.1" type="curve" smooth="yes"/>
      <point x="210.5" y="-150.1" type="line"/>
    </contour>
    <component base="s"/>
  </outline>
</glyph>
<glyph name="Tcedilla" format="2">
  <advance width="600.0"/>
  <unicode hex="0162"/>
  <anchor x="300.0" y="0.0" name="_bottom"/>
  <anchor x="300.0" y="0.0" name="bottom"/>
  <anchor x="300.0" y="365.0" name="center"/>
  <anchor x="300.0" y="730.0" name="top"/>
  <outline>
    <contour>
      <point x="249.8" y="-209.6" type="line"/>
      <point x="342.3" y="-209.6" type="line" smooth="yes"/>
      <point x="417.9" y="-209.6"/>
      <point x="468.3" y="-170.8"/>
      <point x="468.3" y="-123.9" type="curve" smooth="yes"/>
      <point x="468.3" y="-69.2"/>
      <point x="396.4" y="-41.6"/>
      <point x="341.7" y="-36.2" type="curve"/>
      <point x="354.0" y="0.0" type="line"/>
      <point x="300.3" y="23.0" type="line"/>
      <point x="265.3" y="-69.0" type="line"/>
      <point x="334.1" y="-69.0"/>
      <point x="373.6" y="-88.7"/>
      <point x="373.6" y="-114.1" type="curve" smooth="yes"/>
      <point x="373.6" y="-131.5"/>
      <point x="353.0" y="-150.1"/>
      <point x="322.8" y="-150.1" type="curve" smooth="yes"/>
      <point x="249.8" y="-150.1" type="line"/>
    </contour>
    <component base="T"/>
  </outline>
</glyph>
<glyph name="uogonek" format="2">
  <advance width="600.0"/>
  <unicode hex="0173"/>
  <anchor x="417.0" y="550.0" name="horn"/>
  <anchor x="300.0" y="550.0" name="top"/>
  <outline>
    <contour>
      <point x="368.1" y="-209.6" type="curve" smooth="yes"/>
      <point x="455.1" y="-209.6" type="line"/>
      <point x="455.1" y="-136.1" type="line"/>
      <point x="392.4" y="-136.1" type="line" smooth="yes"/>
      <point x="359.9" y="-136.1"/>
      <point x="340.1" y="-116.3"/>
      <point x="340.1" y="-90.0" type="curve" smooth="yes"/>
      <point x="340.1" y="-65.3"/>
      <point x="357.6" y="-37.5"/>
      <point x="397.2" y="-4.7" type="curve" smooth="yes"/>
      <point x="430.8" y="24.0" type="line"/>
      <point x="486.9" y="59.5"/>
      <point x="517.8" y="122.4"/>
      <point x="517.8" y="203.0" type="curve" smooth="yes"/>
      <point x="517.8" y="550.0" type="line"/>
      <point x="409.8" y="550.0" type="line"/>
      <point x="409.8" y="203.0" type="line" smooth="yes"/>
      <point x="409.8" y="126.1"/>
      <point x="372.0" y="85.0"/>
      <point x="300.0" y="85.0" type="curve" smooth="yes"/>
      <point x="228.0" y="85.0"/>
      <point x="190.2" y="126.1"/>
      <point x="190.2" y="203.0" type="curve" smooth="yes"/>
      <point x="190.2" y="550.0" type="line"/>
      <point x="82.2" y="550.0" type="line"/>
      <point x="82.2" y="203.0" type="line" smooth="yes"/>
      <point x="82.2" y="71.7"/>
      <point x="164.2" y="-10.0"/>
      <point x="300.0" y="-10.0" type="curve" smooth="yes"/>
      <point x="308.4" y="-10.0"/>
      <point x="323.1" y="-3.4000000000000004"/>
      <point x="325.2" y="2.299999999999999" type="curve"/>
      <point x="265.4" y="-41.4"/>
      <point x="243.4" y="-77.1"/>
      <point x="243.4" y="-111.5" type="curve" smooth="yes"/>
      <point x="243.4" y="-168.8"/>
      <point x="292.0" y="-209.6"/>
    </contour>
  </outline>
</glyph>
<glyph name="longs" format="2">
  <advance width="600.0"/>
  <unicode hex="017F"/>
  <outline>
    <contour>
      <point x="156.0" y="0.0" type="line"/>
      <point x="264.0" y="0.0" type="line"/>
      <point x="264.0" y="556.5" type="line" smooth="yes"/>
      <point x="264.0" y="603.6"/>
      <point x="295.4" y="635.0"/>
      <point x="341.8" y="635.0" type="curve" smooth="yes"/>
      <point x="517.5" y="635.0" type="line"/>
      <point x="517.5" y="730.0" type="line"/>
      <point x="338.8" y="730.0" type="line" smooth="yes"/>
      <point x="228.8" y="730.0"/>
      <point x="156.0" y="661.2"/>
      <point x="156.0" y="557.2" type="curve" smooth="yes"/>
    </contour>
  </outline>
</glyph>
<glyph name="Schwa" format="2">
  <advance width="600.0"/>
  <unicode hex="018F"/>
  <outline>
    <contour>
      <point x="300.3" y="-10.0" type="curve" smooth="yes"/>
      <point x="435.4" y="-10.0"/>
      <point x="519.0" y="74.5"/>
      <point x="519.0" y="203.0" type="curve" smooth="yes"/>
      <point x="519.0" y="527.0" type="line" smooth="yes"/>
      <point x="519.0" y="658.6"/>
      <point x="437.5" y="740.0"/>
      <point x="300.3" y="740.0" type="curve" smooth="yes"/>
      <point x="164.8" y="740.0"/>
      <point x="81.6" y="657.5"/>
      <point x="81.6" y="527.0" type="curve"/>
      <point x="189.6" y="527.0" type="line"/>
      <point x="189.6" y="602.5"/>
      <point x="227.7" y="645.0"/>
      <point x="300.3" y="645.0" type="curve" smooth="yes"/>
      <point x="373.6" y="645.0"/>
      <point x="411.0" y="602.5"/>
      <point x="411.0" y="527.7" type="curve" smooth="yes"/>
      <point x="411.0" y="404.8" type="line"/>
      <point x="81.0" y="404.8" type="line"/>
      <point x="81.0" y="203.0" type="line" smooth="yes"/>
      <point x="81.0" y="74.5"/>
      <point x="165.5" y="-10.0"/>
    </contour>
    <contour>
      <point x="300.3" y="77.0" type="curve" smooth="yes"/>
      <point x="224.3" y="77.0"/>
      <point x="189.0" y="120.5"/>
      <point x="189.0" y="203.0" type="curve" smooth="yes"/>
      <point x="189.0" y="331.4" type="line"/>
      <point x="181.1" y="322.8" type="line"/>
      <point x="411.0" y="322.8" type="line"/>
      <point x="411.0" y="203.0" type="line" smooth="yes"/>
      <point x="411.0" y="121.7"/>
      <point x="377.5" y="77.0"/>
    </contour>
  </outline>
</glyph>
<glyph name="Ohorn" format="2">
  <advance width="600.0"/>
  <unicode hex="01A0"/>
  <anchor x="290.0" y="730.0" name="top"/>
  <anchor x="300.0" y="0.0" name="bottom"/>
  <anchor x="300.0" y="365.0" name="center"/>
  <anchor x="320.0" y="700.0" name="horn"/>
  <anchor x="348.5" y="0.0" name="ogonek"/>
  <anchor x="20.0" y="730.0" name="topleft"/>
  <anchor x="580.0" y="730.0" name="topright"/>
  <outline>
    <contour>
      <point x="394.3" y="624.5" type="line"/>
      <point x="429.8" y="624.5" type="line" smooth="yes"/>
      <point x="500.7" y="624.5"/>
      <point x="546.8" y="666.6"/>
      <point x="546.8" y="731.5" type="curve" smooth="yes"/>
      <point x="546.8" y="810.0" type="line"/>
      <point x="458.3" y="810.0" type="line"/>
      <point x="458.3" y="735.0" type="line" smooth="yes"/>
      <point x="458.3" y="713.7"/>
      <point x="444.6" y="700.0"/>
      <point x="423.3" y="700.0" type="curve" smooth="yes"/>
      <point x="394.3" y="700.0" type="line"/>
    </contour>
    <component base="O"/>
  </outline>
</glyph>
<glyph name="ohorn" format="2">
  <advance width="600.0"/>
  <unicode hex="01A1"/>
  <anchor x="290.0" y="550.0" name="top"/>
  <anchor x="300.0" y="0.0" name="bottom"/>
  <anchor x="300.0" y="275.0" name="center"/>
  <anchor x="328.4" y="550.0" name="horn"/>
  <anchor x="348.5" y="0.0" name="ogonek"/>
  <anchor x="580.0" y="550.0" name="topright"/>
  <outline>
    <contour>
      <point x="386.7" y="454.5" type="line"/>
      <point x="435.0" y="454.5" type="line" smooth="yes"/>
      <point x="505.2" y="454.5"/>
      <point x="552.0" y="497.3"/>
      <point x="552.0" y="561.5" type="curve" smooth="yes"/>
      <point x="552.0" y="640.0" type="line"/>
      <point x="463.5" y="640.0" type="line"/>
      <point x="463.5" y="565.0" type="line" smooth="yes"/>
      <point x="463.5" y="542.3"/>
      <point x="451.2" y="530.0"/>
      <point x="428.5" y="530.0" type="curve" smooth="yes"/>
      <point x="386.7" y="530.0" type="line"/>
    </contour>
    <component base="o"/>
  </outline>
</glyph>
<glyph name="Uhorn" format="2">
  <advance width="600.0"/>
  <unicode hex="01AF"/>
  <anchor x="300.0" y="730.0" name="top"/>
  <anchor x="300.0" y="0.0" name="bottom"/>
  <anchor x="385.0" y="730.0" name="horn"/>
  <anchor x="348.5" y="0.0" name="ogonek"/>
  <anchor x="580.0" y="730.0" name="topright"/>
  <outline>
    <contour>
      <point x="438.3" y="654.5" type="line"/>
      <point x="494.8" y="654.5" type="line" smooth="yes"/>
      <point x="565.7" y="654.5"/>
      <point x="611.8" y="696.6"/>
      <point x="611.8" y="761.5" type="curve" smooth="yes"/>
      <point x="611.8" y="840.0" type="line"/>
      <point x="523.3" y="840.0" type="line"/>
      <point x="523.3" y="765.0" type="line" smooth="yes"/>
      <point x="523.3" y="743.7"/>
      <point x="509.6" y="730.0"/>
      <point x="488.3" y="730.0" type="curve" smooth="yes"/>
      <point x="438.3" y="730.0" type="line"/>
    </contour>
    <component base="U"/>
  </outline>
</glyph>
<glyph name="uhorn" format="2">
  <advance width="600.0"/>
  <unicode hex="01B0"/>
  <anchor x="293.3" y="0.0" name="bottom"/>
  <anchor x="294.0" y="550.0" name="top"/>
  <outline>
    <contour>
      <point x="82.2" y="202.7" type="line" smooth="yes"/>
      <point x="82.2" y="71.3"/>
      <point x="163.9" y="-10.0"/>
      <point x="293.3" y="-10.0" type="curve" smooth="yes"/>
      <point x="422.7" y="-10.0"/>
      <point x="505.8" y="71.3"/>
      <point x="505.8" y="202.7" type="curve" smooth="yes"/>
      <point x="505.8" y="474.5" type="line"/>
      <point x="576.0" y="474.5"/>
      <point x="610.5" y="517.3"/>
      <point x="610.5" y="581.5" type="curve" smooth="yes"/>
      <point x="610.5" y="660.0" type="line"/>
      <point x="522.0" y="660.0" type="line"/>
      <point x="522.0" y="585.0" type="line" smooth="yes"/>
      <point x="522.0" y="562.3"/>
      <point x="509.7" y="550.0"/>
      <point x="487.0" y="550.0" type="curve" smooth="yes"/>
      <point x="397.8" y="550.0" type="line"/>
      <point x="397.8" y="201.8" type="line" smooth="yes"/>
      <point x="397.8" y="126.9"/>
      <point x="358.7" y="84.3"/>
      <point x="293.3" y="84.3" type="curve" smooth="yes"/>
      <point x="228.6" y="84.3"/>
      <point x="190.2" y="126.9"/>
      <point x="190.2" y="201.8" type="curve" smooth="yes"/>
      <point x="190.2" y="550.0" type="line"/>
      <point x="82.2" y="550.0" type="line"/>
    </contour>
  </outline>
</glyph>
<glyph name="Oogonek" format="2">
  <advance width="600.0"/>
  <unicode hex="01EA"/>
  <anchor x="320.0" y="700.0" name="horn"/>
  <anchor x="300.0" y="730.0" name="top"/>
  <outline>
    <contour>
      <point x="371.5" y="-209.6" type="curve" smooth="yes"/>
      <point x="458.5" y="-209.6" type="line"/>
      <point x="458.5" y="-136.1" type="line"/>
      <point x="395.8" y="-136.1" type="line" smooth="yes"/>
      <point x="363.3" y="-136.1"/>
      <point x="343.5" y="-116.3"/>
      <point x="343.5" y="-89.7" type="curve" smooth="yes"/>
      <point x="343.5" y="-65.0"/>
      <point x="357.6" y="-36.6"/>
      <point x="396.5" y="-4.3999999999999995" type="curve" smooth="yes"/>
      <point x="431.2" y="23.8" type="line"/>
      <point x="486.8" y="59.4"/>
      <point x="520.4" y="122.8"/>
      <point x="520.4" y="203.0" type="curve" smooth="yes"/>
      <point x="520.4" y="527.7" type="line" smooth="yes"/>
      <point x="520.4" y="658.3"/>
      <point x="435.8" y="740.0"/>
      <point x="300.0" y="740.0" type="curve" smooth="yes"/>
      <point x="164.2" y="740.0"/>
      <point x="79.6" y="658.3"/>
      <point x="79.6" y="527.0" type="curve" smooth="yes"/>
      <point x="79.6" y="203.0" type="line" smooth="yes"/>
      <point x="79.6" y="71.7"/>
      <point x="164.2" y="-10.0"/>
      <point x="300.0" y="-10.0" type="curve" smooth="yes"/>
      <point x="312.7" y="-10.0"/>
      <point x="320.7" y="-3.7"/>
      <point x="323.5" y="-0.7000000000000011" type="curve"/>
      <point x="277.9" y="-34.2"/>
      <point x="246.8" y="-77.8"/>
      <point x="246.8" y="-111.5" type="curve" smooth="yes"/>
      <point x="246.8" y="-168.8"/>
      <point x="295.4" y="-209.6"/>
    </contour>
    <contour>
      <point x="300.0" y="85.7" type="curve" smooth="yes"/>
      <point x="227.4" y="85.7"/>
      <point x="187.6" y="127.5"/>
      <point x="187.6" y="203.0" type="curve" smooth="yes"/>
      <point x="187.6" y="527.0" type="line" smooth="yes"/>
      <point x="187.6" y="602.5"/>
      <point x="227.1" y="644.3"/>
      <point x="300.0" y="644.3" type="curve" smooth="yes"/>
      <point x="372.9" y="644.3"/>
      <point x="412.4" y="602.5"/>
      <point x="412.4" y="527.0" type="curve" smooth="yes"/>
      <point x="412.4" y="203.0" type="line" smooth="yes"/>
      <point x="412.4" y="127.5"/>
      <point x="372.6" y="85.7"/>
    </contour>
  </outline>
</glyph>
<glyph name="oogonek" format="2">
  <advance width="600.0"/>
  <unicode hex="01EB"/>
  <anchor x="328.4" y="550.0" name="horn"/>
  <anchor x="300.0" y="550.0" name="top"/>
  <outline>
    <contour>
      <point x="368.1" y="-209.6" type="curve" smooth="yes"/>
      <point x="455.1" y="-209.6" type="line"/>
      <point x="455.1" y="-136.1" type="line"/>
      <point x="392.4" y="-136.1" type="line" smooth="yes"/>
      <point x="359.9" y="-136.1"/>
      <point x="340.1" y="-116.3"/>
      <point x="340.1" y="-90.0" type="curve" smooth="yes"/>
      <point x="340.1" y="-65.3"/>
      <point x="357.6" y="-37.5"/>
      <point x="397.2" y="-4.7" type="curve" smooth="yes"/>
      <point x="430.8" y="24.0" type="line"/>
      <point x="486.9" y="59.5"/>
      <point x="520.4" y="122.4"/>
      <point x="520.4" y="203.0" type="curve" smooth="yes"/>
      <point x="520.4" y="347.7" type="line" smooth="yes"/>
      <point x="520.4" y="478.3"/>
      <point x="435.8" y="560.0"/>
      <point x="300.0" y="560.0" type="curve" smooth="yes"/>
      <point x="164.2" y="560.0"/>
      <point x="79.6" y="478.3"/>
      <point x="79.6" y="347.0" type="curve" smooth="yes"/>
      <point x="79.6" y="203.0" type="line" smooth="yes"/>
      <point x="79.6" y="71.7"/>
      <point x="164.2" y="-10.0"/>
      <point x="300.0" y="-10.0" type="curve" smooth="yes"/>
      <point x="308.4" y="-10.0"/>
      <point x="323.1" y="-3.4000000000000004"/>
      <point x="325.2" y="2.299999999999999" type="curve"/>
      <point x="265.4" y="-41.4"/>
      <point x="243.4" y="-77.1"/>
      <point x="243.4" y="-111.5" type="curve" smooth="yes"/>
      <point x="243.4" y="-168.8"/>
      <point x="292.0" y="-209.6"/>
    </contour>
    <contour>
      <point x="300.0" y="85.0" type="curve" smooth="yes"/>
      <point x="228.0" y="85.0"/>
      <point x="187.6" y="126.1"/>
      <point x="187.6" y="203.0" type="curve" smooth="yes"/>
      <point x="187.6" y="347.0" type="line" smooth="yes"/>
      <point x="187.6" y="423.9"/>
      <point x="228.0" y="465.0"/>
      <point x="300.0" y="465.0" type="curve" smooth="yes"/>
      <point x="372.0" y="465.0"/>
      <point x="412.4" y="423.9"/>
      <point x="412.4" y="347.0" type="curve" smooth="yes"/>
      <point x="412.4" y="203.0" type="line" smooth="yes"/>
      <point x="412.4" y="126.1"/>
      <point x="372.0" y="85.0"/>
    </contour>
  </outline>
</glyph>
<glyph name="jdotless" format="2">
  <advance width="600.0"/>
  <unicode hex="0237"/>
  <anchor x="300.0" y="-270.0" name="bottom"/>
  <anchor x="388.0" y="550.0" name="top"/>
  <outline>
    <contour>
      <point x="67.0" y="-180.0" type="line"/>
      <point x="223.6" y="-180.0" type="line" smooth="yes"/>
      <point x="359.5" y="-180.0"/>
      <point x="445.5" y="-97.4"/>
      <point x="445.5" y="33.7" type="curve" smooth="yes"/>
      <point x="445.5" y="550.0" type="line"/>
      <point x="87.0" y="550.0" type="line"/>
      <point x="87.0" y="452.1" type="line"/>
      <point x="337.5" y="452.1" type="line"/>
      <point x="337.5" y="35.2" type="line" smooth="yes"/>
      <point x="337.5" y="-38.4"/>
      <point x="293.7" y="-81.4"/>
      <point x="220.3" y="-81.4" type="curve" smooth="yes"/>
      <point x="67.0" y="-81.4" type="line"/>
    </contour>
  </outline>
</glyph>
